{"glyphs":{"0":{"ha":1046,"x_min":46,"x_max":987,"o":"m 575 -35 l 609 -35 l 609 -42 l 534 -117 q 513 -126 528 -123 q 488 -129 499 -129 l 488 -123 l 575 -35 m 430 -24 l 434 -23 q 447 -25 442 -23 q 458 -30 452 -27 l 366 -123 l 365 -123 l 361 -123 q 349 -120 358 -122 q 336 -117 339 -118 l 430 -24 m 534 -35 l 448 -123 l 414 -123 l 500 -35 l 534 -35 m 627 -99 q 604 -111 620 -106 q 578 -117 587 -117 l 575 -117 l 656 -35 q 665 -33 658 -35 q 674 -30 671 -31 q 688 -26 677 -27 q 703 -24 700 -24 l 627 -99 m 378 0 l 380 0 q 392 -3 385 0 q 401 -12 399 -7 l 309 -106 l 285 -94 l 378 0 m 237 -60 l 331 35 q 340 31 334 35 q 349 23 346 26 l 349 20 l 349 18 q 347 14 347 15 q 346 9 347 12 q 343 5 345 7 l 267 -71 q 261 -75 266 -73 q 255 -76 256 -76 q 244 -71 251 -76 q 237 -62 237 -66 l 237 -60 m 198 -24 l 290 69 l 309 52 l 216 -42 l 212 -42 l 210 -42 q 203 -35 208 -39 q 198 -30 199 -31 l 198 -26 l 198 -24 m 163 650 q 180 785 164 718 q 226 911 195 852 q 303 1019 256 971 q 414 1097 350 1067 q 496 1131 456 1116 q 585 1145 537 1145 q 667 1134 628 1145 q 743 1103 705 1123 q 768 1090 753 1099 q 798 1073 783 1081 q 824 1058 812 1065 q 837 1050 836 1051 q 854 1034 841 1047 q 872 1016 868 1021 q 935 920 906 971 q 971 812 963 869 q 975 777 972 800 q 979 728 977 753 q 985 683 982 704 q 987 656 987 662 l 987 551 l 987 446 q 985 429 987 444 q 979 395 982 414 q 975 359 977 377 q 971 330 972 340 q 926 208 959 263 q 854 98 894 152 q 817 62 840 79 q 773 35 793 46 q 760 28 769 33 q 741 18 750 23 q 724 9 731 14 q 715 5 716 5 q 690 -2 708 3 q 669 -7 673 -7 l 483 -7 q 418 12 452 -7 q 361 45 384 30 q 262 142 300 88 q 198 260 225 195 q 178 327 184 290 q 168 401 171 363 q 163 476 164 438 q 163 547 163 514 l 163 650 m 157 18 l 250 110 l 267 92 l 175 0 l 172 -1 l 168 0 q 162 4 167 0 q 157 11 157 8 l 156 14 l 157 18 m 129 62 l 221 156 q 227 148 224 155 q 233 138 231 141 l 233 136 l 233 134 l 141 39 q 131 49 136 42 q 126 61 126 56 l 129 62 m 99 114 l 186 203 l 190 203 l 193 203 q 199 194 195 201 q 203 186 203 187 q 199 178 203 184 q 193 168 195 171 q 178 153 189 164 q 155 130 167 142 q 132 107 142 118 q 117 92 121 96 l 111 91 q 101 98 103 91 q 99 110 99 104 l 99 114 m 75 165 q 76 168 75 167 l 168 260 q 175 252 175 259 q 175 241 175 244 l 175 231 l 87 144 q 79 153 83 148 q 75 165 75 159 m 151 324 q 157 314 156 319 q 157 302 157 309 l 157 296 l 69 209 l 64 209 l 64 237 l 151 324 m 414 597 q 414 577 414 591 q 416 547 415 563 q 417 517 416 532 q 418 498 418 503 q 422 477 419 494 q 428 439 425 460 q 435 397 431 418 q 441 365 438 376 q 463 293 449 326 q 513 237 477 260 q 539 220 528 227 q 570 213 551 213 q 618 223 595 213 q 663 249 642 233 q 703 283 685 264 q 738 320 722 302 q 741 324 739 320 q 743 330 743 328 q 761 400 754 365 q 768 472 768 435 q 762 644 768 559 q 732 812 755 728 q 729 822 731 815 q 726 830 727 829 q 695 872 711 856 q 656 911 680 888 l 651 914 q 644 917 646 917 q 619 923 627 922 q 591 924 612 924 q 548 918 568 924 q 513 894 528 913 q 500 879 509 890 q 484 854 492 868 q 466 829 475 841 q 453 812 457 818 q 439 783 445 800 q 429 748 434 766 q 422 711 425 730 q 418 678 419 693 q 417 659 418 671 q 416 634 416 647 q 414 610 415 621 q 414 597 414 600 m 720 339 l 720 336 q 687 297 707 315 q 644 266 667 279 l 720 342 l 720 339 m 52 300 l 146 395 l 146 359 l 60 273 q 56 284 57 275 q 52 296 54 293 l 52 298 l 52 300 m 743 446 l 743 442 l 743 441 q 741 421 743 434 q 738 407 738 408 q 735 400 738 404 q 732 395 732 396 l 656 320 l 651 320 l 656 359 l 743 446 m 134 464 q 140 454 140 458 q 141 442 141 449 q 140 432 141 437 q 134 423 140 427 l 47 336 l 47 377 l 134 464 m 743 522 l 743 488 l 656 399 l 651 399 l 651 429 l 743 522 m 134 540 l 134 505 l 47 416 l 47 452 l 134 540 m 738 597 l 738 563 l 651 476 l 651 510 l 738 597 m 134 585 l 47 498 l 47 514 q 47 527 47 521 q 52 540 46 533 l 134 620 l 134 585 m 732 667 q 737 656 736 661 q 738 646 738 652 l 738 637 l 644 545 l 644 581 l 732 667 m 141 667 l 52 581 l 52 594 q 52 608 52 601 q 60 620 53 614 l 141 701 l 141 667 m 632 646 q 633 650 632 648 l 720 736 q 727 728 727 734 q 727 719 727 723 q 725 704 727 708 q 715 690 723 700 q 700 675 711 686 q 677 652 689 665 q 654 629 665 640 q 639 614 643 618 q 633 626 633 620 q 632 639 632 632 l 632 646 m 157 795 q 151 764 157 780 q 134 736 145 747 q 121 724 130 732 q 102 705 113 715 q 83 686 92 694 q 69 674 73 677 l 69 678 l 69 684 q 76 709 72 693 q 81 726 80 724 l 157 800 l 157 795 m 616 708 l 708 800 q 715 776 715 789 l 715 770 l 621 678 q 618 690 620 681 q 616 701 616 699 l 616 705 l 616 708 m 587 761 l 681 852 q 689 844 685 849 q 693 831 693 838 l 690 830 l 600 736 q 587 757 587 745 l 587 761 m 545 792 q 547 795 545 793 l 639 887 q 647 884 640 888 q 656 876 654 879 l 658 873 l 656 869 l 570 783 l 563 783 q 551 784 557 783 q 545 792 545 785 m 203 922 q 197 908 201 920 q 193 894 194 897 q 187 884 190 890 q 182 873 184 879 q 175 860 178 868 q 163 846 172 856 q 144 827 155 837 q 125 808 134 817 q 111 795 115 799 q 151 864 130 834 q 203 922 172 894 m 570 899 q 576 902 572 901 q 587 905 585 905 l 590 905 l 591 905 q 598 903 594 905 q 604 899 602 901 q 598 890 602 897 q 591 882 594 884 q 579 867 589 878 q 558 846 570 857 q 536 825 547 836 q 522 812 526 815 q 518 808 522 811 q 513 806 514 806 q 497 808 506 806 q 488 812 488 811 l 488 818 l 570 899 z "},"1":{"ha":528,"x_min":50,"x_max":471,"o":"m 216 -30 l 134 -111 q 119 -116 127 -115 q 104 -117 111 -117 l 92 -117 l 180 -30 l 216 -30 m 302 -23 l 209 -117 l 174 -117 l 267 -23 l 302 -23 m 336 -30 q 349 -23 342 -23 q 363 -23 357 -23 l 377 -23 q 372 -33 377 -26 q 366 -42 368 -39 q 318 -92 343 -66 q 255 -117 293 -117 l 255 -111 l 336 -30 m 151 18 q 157 9 157 16 q 157 -1 157 1 q 157 -5 157 -4 q 156 -8 156 -5 l 156 -12 l 69 -99 l 64 -99 l 64 -69 l 151 18 m 151 87 q 149 66 151 77 q 138 47 146 54 l 69 -23 l 57 -30 l 57 -18 q 58 -2 57 -11 q 64 12 58 7 l 151 99 l 151 87 m 174 47 q 174 111 174 68 q 175 207 175 153 q 175 319 175 260 q 175 432 175 378 q 174 528 175 486 q 174 591 174 571 q 173 644 174 604 q 172 736 172 684 q 171 848 172 788 q 170 960 170 907 q 169 1051 170 1012 q 168 1103 168 1090 l 168 1105 l 168 1109 q 174 1116 170 1111 q 180 1120 178 1120 q 291 1122 236 1118 q 401 1127 346 1127 q 442 1107 431 1127 q 453 1061 453 1088 q 450 1027 453 1043 q 446 994 446 1012 l 446 993 q 450 981 448 990 q 453 968 453 971 q 450 960 453 967 q 446 951 446 954 l 446 937 q 448 911 446 922 q 453 882 449 901 q 456 825 454 864 q 459 739 457 787 q 463 637 461 690 q 467 536 465 585 q 469 450 468 488 q 471 395 471 412 l 471 302 q 469 165 471 233 q 458 30 468 98 q 435 13 452 18 q 407 5 418 8 q 392 4 403 5 q 370 2 381 3 q 350 1 359 1 q 336 0 340 0 l 260 0 l 186 0 q 179 23 182 11 q 174 47 176 35 m 151 174 l 151 138 l 64 52 l 64 87 l 151 174 m 151 221 l 64 134 q 63 141 64 136 q 62 148 62 146 q 63 161 62 155 q 69 174 64 168 l 151 255 l 151 221 m 156 336 q 157 330 156 335 q 157 323 157 324 q 157 309 157 315 q 151 296 156 302 l 69 216 l 64 216 l 64 243 l 156 336 m 151 411 l 161 411 q 157 383 161 392 q 138 359 152 374 q 120 340 132 351 q 97 317 109 328 q 77 298 85 307 q 69 290 69 290 l 64 290 l 64 324 l 151 411 m 156 494 l 156 458 l 64 366 l 64 401 l 156 494 m 151 570 l 151 534 l 64 446 l 64 481 l 151 570 m 146 639 q 149 627 148 636 q 151 614 151 617 q 149 610 151 613 q 146 604 148 606 l 57 517 l 57 552 l 146 639 m 146 720 l 146 703 q 146 688 146 696 q 138 674 145 681 l 57 591 l 57 632 l 146 720 m 151 800 l 151 795 l 151 789 q 149 781 149 787 q 148 772 149 776 q 146 761 146 766 l 64 678 l 57 678 l 57 708 l 151 800 m 146 876 l 146 842 l 57 755 l 57 789 l 146 876 m 146 951 l 146 917 l 57 830 l 57 864 l 146 951 m 146 1034 l 146 1016 q 146 1000 146 1008 q 138 986 145 993 l 57 906 l 57 947 l 146 1034 m 146 1085 l 146 1074 l 57 986 l 50 986 q 51 989 50 987 q 52 993 52 991 q 56 998 53 993 q 57 1004 57 1001 l 138 1085 l 146 1085 z "},"2":{"ha":993,"x_min":39,"x_max":935,"o":"m 213 -39 l 248 -39 l 161 -129 q 153 -134 157 -133 q 142 -134 148 -134 q 134 -134 138 -134 q 126 -129 129 -134 l 213 -39 m 563 -39 l 476 -129 q 463 -134 469 -134 q 450 -134 457 -134 l 434 -134 l 528 -39 l 563 -39 m 602 -39 l 637 -39 q 621 -63 633 -47 q 593 -95 609 -79 q 562 -123 578 -111 q 537 -134 547 -134 l 533 -134 q 525 -132 532 -134 q 515 -129 518 -129 l 602 -39 m 68 -113 q 68 -109 68 -111 q 69 -104 68 -106 l 156 -18 l 160 -18 l 161 -18 q 174 -30 171 -20 l 174 -31 l 174 -35 l 80 -129 q 75 -127 79 -130 q 69 -122 71 -125 q 68 -118 68 -122 q 68 -113 68 -114 m 330 -39 q 315 -55 326 -43 q 293 -79 305 -66 q 270 -102 281 -91 q 255 -117 259 -113 q 239 -128 244 -127 q 221 -129 233 -129 l 203 -129 l 290 -39 l 330 -39 m 382 -35 q 407 -39 392 -35 l 320 -129 l 283 -129 l 377 -35 l 382 -35 m 481 -39 l 395 -129 l 359 -129 l 446 -39 l 481 -39 m 719 -39 l 632 -129 l 597 -129 l 684 -39 l 719 -39 m 795 -39 l 708 -129 l 674 -129 l 761 -39 l 795 -39 m 876 -39 l 788 -129 l 754 -129 l 842 -39 l 876 -39 m 57 -39 l 144 47 l 151 47 l 151 18 l 62 -69 q 58 -60 58 -64 q 57 -49 57 -56 l 57 -39 m 168 99 q 169 115 168 104 q 171 137 170 126 q 173 157 172 148 q 174 168 174 165 q 180 195 175 186 q 194 211 186 205 q 213 222 202 217 q 237 237 224 228 q 251 249 240 240 q 266 260 262 258 q 436 433 361 343 q 591 621 511 524 q 649 711 624 663 q 674 812 674 760 q 669 854 674 833 q 654 891 665 875 q 628 918 644 907 q 589 929 612 929 q 545 919 566 929 q 505 892 524 909 q 471 857 487 876 q 446 818 456 837 q 441 807 445 815 q 431 789 437 799 q 422 770 426 779 q 416 761 418 762 q 389 741 408 747 q 346 732 369 734 q 300 730 323 730 q 264 731 278 731 q 216 732 237 731 q 168 738 195 732 q 157 749 157 741 q 156 765 156 758 q 161 821 156 792 q 174 872 165 849 q 177 880 174 872 q 185 896 180 887 q 195 914 190 905 q 203 929 199 924 q 298 1039 239 994 q 423 1115 358 1084 q 448 1125 435 1120 q 476 1133 461 1130 l 545 1133 q 648 1126 597 1133 q 745 1100 699 1119 q 827 1048 791 1081 q 887 963 864 1016 q 892 954 888 962 q 899 937 895 947 q 905 919 902 928 q 911 906 909 910 q 922 858 921 882 q 924 807 924 834 q 911 718 924 762 q 879 632 899 674 q 833 551 859 590 q 783 476 808 511 q 699 355 739 415 q 609 237 658 296 q 633 235 614 236 q 656 233 651 233 q 686 232 662 232 q 736 232 709 232 q 787 233 764 232 q 818 233 811 233 q 829 233 821 233 q 846 231 837 232 q 864 228 856 229 q 876 225 872 227 q 915 203 903 222 q 929 156 926 183 q 932 96 930 130 q 935 30 935 61 q 931 6 935 15 q 917 -12 928 -3 q 864 -14 902 -12 q 783 -16 826 -15 q 703 -17 741 -16 q 650 -18 665 -18 q 570 -18 617 -18 q 473 -17 524 -18 q 374 -16 423 -16 q 286 -14 326 -15 q 222 -13 247 -14 q 197 -12 197 -12 l 186 -5 q 183 5 186 -5 q 178 31 180 16 q 172 60 175 45 q 168 87 170 76 l 168 92 l 168 99 m 144 129 l 144 118 l 144 110 q 141 94 144 107 q 138 81 140 88 l 62 5 l 57 5 l 57 39 l 144 129 m 209 708 l 209 703 l 122 614 l 87 614 l 179 708 l 209 708 m 283 703 l 197 614 l 161 614 l 248 703 l 283 703 m 377 713 l 290 627 q 277 621 283 621 q 264 620 271 620 q 256 621 262 620 q 248 621 251 621 l 336 708 q 349 711 343 709 q 365 713 362 713 l 372 713 l 377 713 m 39 651 l 126 738 q 136 730 129 736 q 144 720 142 723 q 144 715 146 719 q 138 708 141 711 l 62 632 q 58 629 61 631 q 52 627 53 627 l 49 627 q 41 631 42 627 q 39 643 39 636 l 39 651 m 650 787 q 644 761 650 777 q 632 738 639 745 l 557 662 q 559 679 557 666 q 563 696 560 692 q 566 703 563 699 q 568 708 568 707 l 650 789 l 650 787 m 138 821 l 138 818 q 136 803 137 814 q 134 789 134 792 q 130 783 132 787 q 126 777 129 780 l 52 703 q 51 709 52 705 q 50 713 50 712 q 51 729 50 720 q 57 743 52 738 l 138 825 l 138 821 m 637 854 q 647 845 643 850 q 651 833 651 840 q 650 830 651 831 l 557 738 l 545 761 l 637 854 m 602 899 l 604 899 q 606 901 604 899 q 619 897 612 901 q 627 886 627 892 l 627 882 l 540 795 l 534 795 q 521 798 528 795 q 510 807 514 800 l 602 899 m 481 818 l 476 818 q 513 867 491 845 q 563 899 534 888 l 481 818 m 161 906 q 157 893 161 902 q 151 882 153 884 q 140 871 148 879 q 125 856 133 864 q 109 840 117 848 q 98 830 100 833 q 126 871 110 853 q 161 906 142 890 z "},"3":{"ha":975,"x_min":39,"x_max":924,"o":"m 498 -35 l 533 -35 l 446 -123 q 437 -128 441 -127 q 426 -129 433 -129 q 418 -129 422 -129 q 411 -123 414 -129 l 498 -35 m 429 -24 l 431 -24 q 433 -24 433 -24 q 434 -23 433 -23 q 458 -30 445 -23 l 452 -42 l 377 -117 q 371 -120 374 -118 q 365 -123 368 -122 l 363 -123 l 359 -123 q 348 -120 357 -122 q 336 -117 339 -118 l 429 -24 m 609 -35 l 528 -117 q 515 -123 522 -123 q 502 -123 509 -123 l 488 -123 l 575 -35 l 609 -35 m 708 -18 q 695 -31 704 -22 q 676 -50 686 -39 q 657 -69 666 -60 q 644 -81 648 -79 q 613 -100 631 -94 q 581 -111 595 -107 l 667 -24 q 679 -21 669 -23 q 696 -18 689 -19 l 701 -18 l 708 -18 m 372 -7 q 378 -8 372 -5 q 389 -12 385 -11 l 395 -18 l 308 -106 l 297 -106 q 287 -106 294 -106 q 278 -99 279 -106 l 372 -7 m 225 -71 l 320 23 l 321 23 l 324 23 q 331 17 327 20 q 336 11 335 14 l 336 8 l 336 5 l 243 -88 q 235 -83 241 -88 q 225 -76 229 -79 l 225 -73 l 225 -71 m 186 -35 l 278 57 l 296 39 l 203 -54 l 199 -54 l 197 -54 q 190 -47 194 -52 q 186 -42 186 -43 l 184 -38 l 186 -35 m 231 92 l 236 94 q 248 90 241 94 q 255 80 255 87 q 250 72 255 79 q 243 62 245 65 q 229 47 239 58 q 206 25 218 37 q 183 3 194 14 q 168 -12 172 -8 l 160 -12 q 147 -11 152 -12 q 138 0 142 -9 l 231 92 m 156 359 l 168 372 q 182 374 168 372 q 216 380 197 377 q 256 385 236 382 q 290 389 277 388 l 328 389 l 365 389 q 394 370 382 382 q 415 344 406 358 q 433 313 425 330 q 452 283 441 297 q 460 276 453 282 q 474 262 467 270 q 488 248 481 255 q 498 237 495 241 q 532 222 511 227 q 570 218 553 218 q 578 220 574 218 q 585 221 581 220 q 621 232 598 222 q 656 248 644 241 q 686 293 681 266 q 690 347 690 320 q 690 380 690 366 q 684 411 690 395 q 663 452 675 431 q 633 490 651 473 q 595 517 616 506 q 551 528 575 528 q 539 527 548 528 q 519 525 530 526 q 499 523 509 524 q 488 522 490 522 l 477 522 q 460 526 468 522 q 452 540 453 529 l 452 583 q 452 635 452 614 q 458 690 453 656 q 501 711 479 703 q 543 731 524 720 q 578 758 563 742 q 602 800 594 774 q 603 819 602 804 q 604 838 604 834 q 601 880 604 860 q 589 915 598 901 q 565 938 581 929 q 525 947 549 947 q 488 939 505 947 q 458 918 472 930 q 433 889 445 905 q 411 860 422 873 l 399 852 l 361 852 l 308 852 q 296 854 304 853 q 279 858 288 856 q 261 861 270 860 q 248 864 252 863 q 233 873 245 867 q 213 882 220 879 q 199 896 208 886 q 191 913 191 906 l 191 917 q 217 962 205 944 q 248 1004 229 981 q 256 1013 251 1006 q 267 1025 262 1019 q 277 1038 273 1032 q 283 1046 282 1043 q 296 1057 288 1050 q 311 1072 304 1065 q 323 1085 317 1080 q 330 1090 330 1090 q 346 1099 334 1093 q 372 1113 358 1105 q 401 1127 387 1120 q 423 1137 415 1134 q 471 1147 445 1146 q 519 1149 496 1149 l 545 1149 q 564 1147 549 1149 q 597 1143 579 1145 q 631 1139 614 1141 q 656 1137 648 1138 q 756 1093 713 1130 q 830 1010 799 1057 q 849 953 846 983 q 852 894 852 922 q 827 764 852 825 q 761 650 803 703 q 837 597 806 632 q 888 520 868 563 q 916 430 907 477 q 924 339 924 382 q 913 231 924 283 q 864 134 903 178 q 853 121 861 130 q 836 103 845 113 q 819 85 827 94 q 806 75 810 77 q 748 31 776 47 q 690 7 720 15 q 627 -4 661 -1 q 553 -7 594 -7 q 486 -5 517 -7 q 425 4 454 -3 q 368 25 395 11 q 312 62 340 39 q 245 127 273 96 q 197 209 217 159 q 170 273 184 239 q 156 342 156 308 l 156 359 m 110 45 l 203 138 q 209 130 205 137 q 213 122 213 123 l 216 118 q 215 117 216 117 q 214 115 214 117 l 213 114 l 122 23 q 110 39 110 28 l 110 45 m 80 98 l 174 191 q 186 170 186 184 l 186 168 l 92 75 q 80 95 80 81 l 80 98 m 62 156 l 156 248 q 161 237 159 241 q 163 224 163 232 l 161 221 l 69 126 q 62 151 62 138 l 62 156 m 39 213 l 126 300 l 130 302 q 138 293 137 302 q 138 279 138 283 l 138 273 l 52 186 l 49 184 q 41 194 42 184 q 39 210 39 203 l 39 213 m 667 372 l 667 336 l 581 248 l 581 283 l 667 372 m 556 335 q 557 336 556 336 l 644 423 l 646 423 q 655 418 654 423 q 656 408 656 412 l 656 399 l 568 312 l 566 312 q 557 319 559 312 q 556 331 556 326 l 556 335 m 609 469 l 612 471 q 614 469 613 471 q 621 465 616 469 q 627 458 625 460 l 627 454 l 627 452 q 621 442 625 449 q 614 434 616 435 l 540 359 l 537 359 l 533 359 l 515 377 l 609 469 m 476 411 l 563 498 q 566 499 564 498 q 568 500 567 499 q 570 500 568 500 q 591 494 581 500 l 498 399 l 494 399 q 483 401 490 399 q 476 408 476 403 l 476 411 m 336 429 l 429 522 q 435 513 430 519 q 441 505 439 507 l 441 502 l 441 498 l 354 411 q 351 410 353 411 q 347 410 349 410 q 335 427 335 410 l 336 429 m 502 500 q 509 499 503 500 q 515 498 514 498 l 429 411 l 395 411 l 476 494 q 488 500 481 499 q 502 500 495 500 m 430 597 q 428 576 430 591 q 423 557 426 560 l 347 481 l 336 476 q 336 483 336 477 q 335 490 335 488 q 336 504 335 498 q 342 515 336 510 l 423 597 l 430 597 m 429 662 l 429 644 l 342 557 l 342 575 l 429 662 m 336 823 l 372 823 l 365 812 q 357 803 365 811 q 340 785 350 795 q 319 764 330 774 q 302 749 309 754 q 276 734 289 738 q 248 730 263 730 l 248 736 l 336 823 m 266 830 l 296 830 l 296 823 l 209 736 l 201 736 q 189 737 194 736 q 179 743 184 738 l 266 830 m 581 830 l 581 818 q 572 789 581 804 q 550 762 563 774 q 522 742 537 750 q 494 734 506 734 l 494 743 l 581 830 m 209 852 q 210 853 210 852 q 212 854 210 853 l 213 852 q 222 848 216 852 q 231 842 229 844 l 138 749 l 137 749 q 114 761 123 749 l 209 852 m 168 887 l 170 888 q 171 888 171 888 q 172 887 171 887 l 174 887 q 176 886 175 887 q 179 882 179 883 q 184 876 182 879 q 186 869 186 872 l 92 777 l 91 776 l 88 776 l 87 777 q 83 779 85 777 q 80 783 81 781 q 77 789 79 785 q 75 795 75 793 l 168 887 m 476 806 l 568 899 q 574 889 574 894 q 575 879 575 884 l 575 869 l 488 783 l 484 783 q 477 789 477 783 q 476 800 476 796 l 476 806 m 510 917 q 516 920 513 917 q 522 922 519 922 l 525 922 l 528 922 q 537 920 530 922 q 545 917 544 918 l 452 823 l 423 830 l 510 917 z "},"4":{"ha":1028,"x_min":52,"x_max":981,"o":"m 669 -42 l 587 -123 q 574 -129 581 -129 q 560 -129 567 -129 l 545 -129 l 632 -42 l 669 -42 m 713 -35 l 749 -35 l 662 -123 q 650 -125 655 -123 q 632 -129 636 -127 l 627 -129 l 627 -123 l 713 -35 m 837 -30 l 749 -117 q 736 -123 743 -123 q 722 -123 730 -123 l 708 -123 l 800 -30 l 837 -30 m 614 23 q 615 14 614 20 q 616 5 616 8 q 616 -10 616 -3 q 609 -24 616 -18 l 534 -99 l 522 -106 l 522 -91 q 522 -77 522 -84 q 528 -64 522 -71 l 614 23 m 609 92 l 609 57 l 522 -30 l 517 0 l 609 92 m 639 11 q 637 45 639 20 q 633 96 635 69 q 629 146 631 122 q 627 179 627 170 q 625 193 625 184 q 624 210 625 202 q 621 231 623 220 l 581 237 l 221 248 q 184 267 194 250 q 174 309 174 285 q 174 330 174 317 q 176 355 175 342 q 179 380 176 368 q 186 399 182 392 l 186 477 l 186 557 q 177 659 184 609 q 168 761 170 708 l 168 925 l 168 1090 q 178 1098 170 1099 q 190 1097 187 1097 l 209 1097 q 221 1096 212 1097 q 241 1093 231 1095 q 260 1091 251 1092 q 273 1090 270 1090 l 411 1090 q 430 1083 419 1088 q 441 1067 441 1078 l 441 1062 q 438 1050 441 1059 q 435 1038 435 1040 q 435 1022 435 1038 q 433 985 434 1006 q 430 941 431 963 q 429 905 429 918 l 429 901 q 432 888 429 894 q 435 873 435 882 l 435 864 q 425 728 426 796 q 423 591 423 661 l 423 510 q 427 488 423 500 q 441 469 430 475 q 458 469 445 469 q 484 467 471 468 q 511 465 498 465 q 528 464 524 464 l 537 464 l 545 464 q 568 465 555 464 q 595 467 582 465 q 627 469 610 468 l 639 534 q 639 596 639 562 q 632 662 639 631 q 630 731 632 681 q 626 838 628 781 q 623 945 624 894 q 621 1016 621 996 q 621 1029 621 1019 q 621 1051 621 1039 q 620 1075 620 1063 q 620 1093 620 1086 l 620 1123 q 621 1142 620 1133 l 632 1149 l 699 1149 l 795 1149 q 825 1145 804 1147 q 854 1133 845 1143 q 855 1116 854 1128 q 857 1091 856 1104 q 859 1066 859 1078 q 860 1050 860 1054 l 860 894 q 861 875 860 890 q 862 842 861 860 q 863 808 863 823 q 864 788 864 792 q 866 704 867 749 q 882 620 865 659 l 882 467 q 896 467 886 467 q 917 469 906 468 q 937 469 928 469 q 951 469 947 469 q 969 467 958 469 q 981 464 981 465 l 981 260 q 973 248 981 251 q 959 243 966 244 q 947 241 955 243 q 929 239 939 240 q 911 238 920 239 q 899 237 902 237 q 898 205 899 228 q 895 156 897 182 q 891 107 892 130 q 888 75 890 84 q 886 52 887 69 q 882 27 884 34 q 880 14 882 24 q 872 0 879 3 q 835 -2 861 0 q 779 -6 808 -4 q 722 -10 749 -8 q 686 -12 696 -12 l 667 -12 q 646 -9 651 -12 q 639 11 642 -5 m 510 69 q 513 75 510 71 q 517 80 515 79 l 604 168 l 604 134 l 517 45 q 513 57 515 47 q 510 69 510 66 m 575 213 l 597 213 l 597 203 l 510 114 l 481 122 l 575 213 m 302 221 l 216 134 l 202 132 q 190 129 195 130 q 180 126 184 127 l 178 126 l 174 126 l 267 221 l 302 221 m 342 221 l 377 221 l 285 126 l 281 126 l 278 126 q 267 129 275 126 q 255 134 258 132 l 342 221 m 429 221 q 441 217 431 218 q 453 213 450 216 l 366 126 l 331 126 l 423 221 l 426 221 l 429 221 m 534 213 q 519 199 530 209 q 496 176 509 189 q 473 153 484 164 q 458 138 463 142 q 442 126 448 127 q 423 125 437 125 q 414 125 420 125 q 407 126 408 126 l 494 213 l 534 213 m 191 225 q 195 227 193 225 q 198 227 197 227 q 201 228 199 228 q 214 227 208 228 q 221 217 221 225 l 221 213 l 146 138 q 125 131 138 132 q 104 130 111 130 l 104 138 l 191 225 m 62 171 q 64 174 62 172 l 156 266 q 159 254 157 263 q 163 243 161 245 l 163 240 l 163 237 l 69 144 q 64 156 66 151 q 62 168 62 161 l 62 171 m 151 342 l 151 308 l 64 221 l 64 255 l 151 342 m 163 429 l 163 416 q 161 399 163 407 q 151 382 159 392 l 75 308 l 75 342 l 163 429 m 163 510 q 168 486 168 499 q 166 475 168 479 q 156 464 164 471 q 138 446 149 457 q 115 422 126 434 q 96 403 104 411 q 87 395 87 395 l 75 389 l 75 423 l 163 510 m 156 581 q 159 572 157 578 q 163 563 161 566 l 163 559 l 163 557 q 156 545 160 549 l 69 458 l 69 494 l 156 581 m 614 533 q 604 519 612 529 q 584 502 595 510 q 559 489 572 494 q 534 488 547 484 l 614 568 l 614 533 m 517 545 q 519 551 517 547 q 522 557 521 556 l 609 644 q 613 629 612 640 q 614 614 614 618 q 613 608 614 613 q 609 602 612 604 l 534 528 l 522 522 q 519 534 521 525 q 517 545 517 543 m 151 656 l 156 627 l 64 533 l 64 568 l 151 656 m 604 713 l 604 678 l 517 591 l 517 627 l 604 713 m 146 726 l 146 690 l 57 602 l 57 637 l 146 726 m 604 795 q 609 770 609 784 l 609 765 l 517 674 l 517 708 l 604 795 m 138 800 q 144 786 141 798 q 146 770 146 774 q 137 761 144 769 q 126 749 130 753 q 115 736 123 745 q 98 719 107 728 q 81 701 90 709 q 69 690 73 693 q 61 684 68 688 q 52 678 54 681 l 52 713 l 138 800 m 604 869 l 604 836 l 517 749 l 517 783 l 604 869 m 138 876 l 138 842 l 52 754 l 52 788 l 138 876 m 597 947 q 604 922 604 933 q 601 911 604 914 q 591 899 598 907 q 571 878 583 890 q 547 853 559 865 l 517 823 l 510 823 l 510 860 l 597 947 m 138 956 l 138 922 l 52 836 l 52 869 l 138 956 m 597 1021 l 597 986 l 510 899 l 505 899 l 505 929 l 597 1021 m 138 1034 l 138 998 l 52 911 l 52 947 l 138 1034 m 591 1097 l 597 1067 l 505 974 l 505 1010 l 591 1097 z "},"5":{"ha":971,"x_min":57,"x_max":917,"o":"m 557 -35 l 591 -35 l 517 -111 q 502 -119 515 -113 q 481 -129 488 -126 l 479 -129 l 476 -129 q 472 -126 475 -129 q 471 -123 471 -125 l 557 -35 m 411 -24 l 414 -24 q 416 -24 415 -24 q 420 -23 418 -23 q 441 -30 433 -23 l 349 -123 l 346 -123 l 342 -123 q 331 -120 339 -122 q 320 -117 323 -118 l 411 -24 m 510 -35 l 423 -123 l 389 -123 l 476 -35 l 510 -35 m 267 -88 l 354 0 l 359 0 q 371 -1 363 0 q 378 -8 378 -3 q 377 -11 378 -9 l 377 -12 q 375 -19 377 -15 q 372 -24 373 -23 l 296 -99 q 290 -103 293 -100 q 285 -106 286 -106 q 273 -101 281 -106 q 266 -91 266 -96 l 267 -88 m 696 -12 q 686 -24 696 -14 q 669 -42 675 -35 q 621 -77 647 -61 q 570 -99 595 -92 l 650 -18 q 666 -13 651 -18 q 690 -7 681 -8 l 694 -7 q 696 -5 696 -7 l 696 -12 m 308 27 l 309 28 q 311 29 311 28 q 312 30 311 30 q 331 18 324 30 l 237 -76 l 216 -64 l 308 27 m 255 57 l 259 57 l 260 57 q 273 45 270 54 l 273 43 l 273 39 l 180 -54 l 163 -35 l 255 57 m 134 11 l 225 104 q 237 83 237 96 l 237 80 l 146 -12 q 132 8 132 -5 l 134 11 m 167 315 q 168 327 167 319 q 168 336 168 335 l 180 342 q 243 347 213 345 q 296 351 269 350 q 342 354 323 353 l 346 354 q 368 350 355 354 q 389 342 380 346 q 408 323 399 338 q 429 291 418 308 q 454 261 441 274 q 488 248 468 248 l 581 248 q 588 251 582 248 q 597 255 594 254 q 637 275 620 264 q 665 298 654 285 q 681 330 675 312 q 686 373 686 347 q 675 451 686 414 q 627 510 665 488 q 607 521 620 514 q 591 528 594 528 l 505 528 q 480 519 492 528 q 456 502 468 511 q 431 484 444 492 q 407 476 419 476 l 209 476 q 207 495 208 481 q 205 524 206 509 q 204 554 205 540 q 203 575 203 568 l 203 769 l 203 963 q 204 980 203 967 q 206 1007 205 993 q 208 1034 208 1021 q 209 1050 209 1047 q 210 1064 209 1054 q 210 1085 210 1074 q 210 1106 210 1096 q 209 1120 209 1116 l 221 1133 q 250 1133 221 1133 q 318 1135 278 1134 q 400 1136 358 1135 q 471 1137 442 1137 l 665 1137 l 860 1137 q 872 1118 869 1130 q 876 1097 875 1107 q 879 1085 878 1095 q 882 1064 880 1076 q 886 1042 884 1053 q 888 1028 888 1032 l 888 1024 l 888 1021 q 888 1002 888 1016 q 886 972 887 987 q 884 942 884 956 q 882 922 883 928 q 870 913 878 916 q 854 908 863 910 q 837 905 845 906 q 825 905 829 905 l 481 894 l 481 755 q 540 758 511 755 q 597 761 568 761 q 732 732 673 761 q 833 655 792 704 q 895 542 873 606 q 917 407 917 477 l 917 395 q 916 370 917 387 q 914 336 916 353 q 912 307 913 320 q 911 290 911 293 q 899 237 909 262 q 891 218 897 231 q 880 193 886 206 q 870 170 875 180 q 864 156 865 159 q 836 119 857 140 q 789 79 815 99 q 738 44 764 60 q 696 23 712 28 q 650 8 674 14 q 604 -7 627 3 l 534 -7 q 466 -5 495 -7 q 401 11 437 -3 q 369 28 384 18 q 336 45 354 38 q 316 54 334 47 q 296 62 298 61 q 281 77 293 65 q 267 92 270 88 q 232 142 250 115 q 200 197 214 168 q 176 255 186 225 q 167 315 167 285 m 98 54 q 99 57 98 56 l 191 151 q 203 142 201 148 q 205 129 205 136 q 204 127 205 127 q 203 125 203 126 l 203 122 l 117 35 l 113 33 l 110 35 q 104 43 107 37 q 99 52 100 49 l 98 54 m 75 110 l 168 203 q 173 191 171 197 q 175 179 175 186 q 174 178 175 178 q 174 176 174 178 l 174 174 l 87 87 l 85 85 l 83 85 q 76 93 77 85 q 75 104 75 100 l 75 110 m 57 174 l 146 260 l 151 255 q 155 244 153 251 q 156 237 157 237 l 64 144 q 57 153 57 146 q 57 163 57 160 l 57 174 m 568 289 q 570 290 568 290 l 662 382 q 663 375 662 380 q 663 368 663 370 q 663 355 663 361 q 656 342 662 349 q 644 329 652 338 q 625 311 635 320 q 608 294 616 301 q 597 283 600 286 q 587 277 595 281 q 575 273 578 273 q 571 277 572 274 q 570 283 570 281 l 568 286 l 568 289 m 557 359 l 644 446 l 647 446 q 655 439 654 446 q 656 429 656 433 l 656 423 l 563 330 q 557 354 557 342 l 557 359 m 186 458 l 213 445 l 126 359 l 92 359 l 92 365 l 186 458 m 296 452 l 216 372 l 180 372 l 260 452 l 296 452 m 331 446 q 344 452 338 452 q 358 453 350 453 q 365 452 359 453 q 372 452 370 452 l 290 372 l 260 372 l 260 377 l 331 446 m 609 488 l 612 488 q 632 476 625 488 l 540 382 l 534 382 q 517 395 522 382 l 609 488 m 418 416 q 392 410 406 414 q 366 399 378 407 q 376 410 369 403 q 392 426 384 418 q 408 441 400 434 q 418 452 415 449 q 435 460 420 454 q 453 469 450 467 q 471 481 456 472 q 488 494 486 491 q 494 496 490 495 q 500 498 498 498 l 418 416 m 180 528 l 180 494 l 92 407 l 92 441 l 180 528 m 545 505 l 581 505 l 581 498 l 551 468 q 526 444 538 456 q 505 423 513 431 q 497 418 503 422 q 488 411 491 414 l 484 411 l 481 411 q 470 414 479 411 q 458 416 461 416 l 545 505 m 174 602 l 180 602 l 180 575 l 92 488 l 87 488 l 87 515 l 174 602 m 174 678 l 174 644 l 87 557 l 87 591 l 174 678 m 87 667 q 89 673 87 669 q 92 678 91 677 l 180 765 l 180 749 q 180 733 180 741 q 174 719 180 726 l 99 644 l 92 644 q 89 652 91 644 q 87 667 87 661 m 174 836 l 174 800 l 87 713 l 87 749 l 174 836 m 632 869 q 628 861 632 868 q 621 852 624 854 q 610 840 618 849 q 593 823 602 831 q 575 806 583 814 q 563 795 567 798 q 547 783 552 784 q 528 783 543 783 l 510 783 l 597 869 l 632 869 m 720 876 l 632 788 l 597 788 l 678 869 q 691 873 681 872 q 708 876 701 875 l 713 876 l 720 876 m 795 876 l 708 788 l 674 788 l 761 876 l 795 876 m 174 917 l 174 882 l 87 795 l 87 830 l 174 917 m 540 872 q 549 872 543 872 q 557 869 556 872 l 505 818 q 504 826 505 819 q 503 836 503 833 q 540 872 503 872 m 180 998 l 180 982 q 180 969 180 975 q 174 956 180 963 l 92 876 l 92 911 l 180 998 m 92 991 l 186 1085 l 186 1067 q 185 1049 186 1054 q 174 1034 184 1044 q 159 1018 170 1029 q 136 994 148 1006 q 114 971 125 982 q 99 956 103 960 q 96 968 98 959 q 92 981 94 978 l 92 987 l 92 991 z "},"6":{"ha":998,"x_min":47,"x_max":948,"o":"m 587 -39 l 587 -47 l 500 -134 l 465 -134 l 557 -39 l 587 -39 m 488 -35 q 513 -39 498 -35 q 506 -50 510 -42 q 500 -60 502 -57 q 480 -79 492 -68 q 457 -102 468 -91 l 430 -129 l 389 -129 l 483 -35 l 488 -35 m 669 -39 l 587 -122 q 573 -128 582 -127 q 557 -129 564 -129 l 547 -129 l 627 -47 q 640 -40 633 -41 q 652 -39 646 -39 l 669 -39 m 336 -104 l 423 -18 l 433 -18 q 443 -18 438 -18 q 453 -23 448 -19 l 361 -117 l 355 -117 q 343 -115 350 -117 q 336 -107 336 -114 l 336 -104 m 773 -12 q 719 -62 746 -41 q 656 -99 692 -84 l 726 -30 q 731 -26 727 -27 q 738 -23 735 -24 q 754 -16 743 -20 q 768 -12 765 -12 l 769 -12 l 773 -12 m 372 12 l 374 12 q 396 0 387 12 l 302 -94 l 300 -94 q 279 -81 286 -94 l 372 12 m 327 39 l 328 42 l 330 41 q 331 39 330 39 q 340 35 334 39 q 349 30 347 31 l 255 -64 l 250 -64 q 233 -52 239 -64 l 327 39 m 279 75 l 281 76 q 282 75 282 76 q 283 75 282 75 l 285 75 q 291 71 286 75 q 297 64 296 66 l 297 61 l 297 57 q 294 52 296 56 q 290 47 292 49 q 277 33 286 43 q 256 11 267 22 q 235 -9 245 0 q 221 -23 225 -19 q 212 -31 218 -26 q 203 -35 205 -35 q 194 -28 201 -35 q 186 -18 187 -22 l 279 75 m 157 528 q 172 657 164 593 q 198 783 179 722 q 221 846 208 815 q 250 906 235 876 q 316 1002 277 955 q 401 1080 355 1048 q 407 1082 403 1080 q 414 1085 411 1085 q 479 1113 449 1101 q 540 1133 510 1124 q 602 1145 570 1141 q 671 1149 633 1149 l 720 1149 q 760 1145 736 1149 q 806 1135 784 1142 q 845 1113 829 1127 q 861 1077 861 1099 q 861 1072 861 1074 q 860 1067 860 1070 l 860 1062 q 854 1048 860 1059 q 849 1034 849 1036 q 844 1021 848 1031 q 836 998 840 1010 q 828 976 831 986 q 825 963 825 966 q 815 945 821 954 q 802 929 810 936 l 781 929 q 745 932 762 929 q 708 935 727 935 q 631 920 667 935 q 565 880 595 905 q 511 823 534 856 q 471 755 487 791 q 466 745 469 753 q 459 727 463 736 q 452 709 456 718 q 448 696 449 700 q 440 677 445 690 q 435 662 435 665 q 437 650 435 659 q 438 639 438 642 q 441 639 441 639 q 515 677 479 658 q 595 696 552 696 q 682 689 646 696 q 768 669 719 682 q 772 665 768 667 q 777 662 776 663 q 818 631 802 646 q 846 602 834 617 q 868 568 857 586 q 894 528 879 551 q 901 524 895 528 q 906 517 906 519 q 918 463 916 492 q 936 411 921 433 q 943 345 939 382 q 948 273 948 307 q 947 267 948 270 q 947 262 947 264 l 947 255 l 906 138 q 901 131 906 137 q 894 122 897 125 q 764 16 833 49 q 600 -18 694 -18 q 441 9 513 -18 q 315 86 369 37 q 223 204 260 136 q 168 354 186 273 q 158 439 159 396 q 157 526 157 483 l 157 528 m 156 27 q 157 30 156 28 l 250 122 q 256 113 252 119 q 262 104 260 107 l 262 100 l 262 99 l 168 5 l 167 5 q 158 12 160 5 q 156 24 156 19 l 156 27 m 122 75 l 210 163 l 212 163 l 216 163 q 220 157 218 160 q 224 152 221 155 q 228 146 227 148 l 134 52 l 130 52 q 123 58 125 52 q 122 69 122 65 l 122 75 m 92 119 q 94 122 92 121 l 186 216 q 193 206 189 213 q 198 198 197 199 l 198 194 l 198 191 l 104 99 q 92 117 92 104 l 92 119 m 69 180 l 163 273 q 170 262 165 271 q 175 250 175 252 q 168 239 175 248 q 157 225 161 229 q 146 214 155 222 q 128 197 137 206 q 111 180 119 189 q 99 168 102 172 q 91 162 98 167 q 81 156 84 157 l 79 156 l 76 156 q 73 164 75 157 q 69 174 71 171 l 69 178 l 69 180 m 146 331 q 153 322 153 330 q 153 312 153 315 q 153 309 153 311 q 152 307 152 308 q 151 302 151 304 l 60 210 l 52 237 l 146 331 m 435 359 q 471 267 435 304 q 563 231 506 231 q 603 234 582 231 q 639 250 624 237 q 649 260 642 252 q 665 275 656 267 q 680 291 673 283 q 690 302 688 298 q 698 326 697 313 q 699 349 699 338 q 663 435 699 396 q 643 456 656 442 q 627 471 629 469 q 617 474 624 472 q 602 479 610 476 q 587 485 594 483 q 575 488 579 487 l 548 488 q 528 488 536 488 q 513 484 519 487 q 499 477 506 481 q 483 464 492 472 q 435 359 435 425 m 663 377 l 665 378 q 673 371 671 378 q 675 359 675 363 q 675 358 675 358 q 674 357 674 358 l 674 354 l 587 267 q 586 266 587 266 l 583 266 l 582 267 q 573 277 578 270 q 570 285 568 283 l 663 377 m 134 401 q 141 392 141 399 q 141 382 141 385 l 141 372 l 47 278 l 47 315 l 134 401 m 656 296 q 653 288 658 293 q 644 285 648 283 q 649 292 642 285 q 656 296 656 298 m 540 336 l 633 429 q 644 422 642 425 q 646 414 646 419 q 639 395 646 400 l 564 320 q 557 315 562 317 q 552 315 553 312 q 547 321 551 315 q 540 331 543 328 l 540 334 l 540 336 m 134 476 l 134 441 l 47 354 l 47 389 l 134 476 m 587 458 l 604 453 q 609 446 609 450 l 517 354 l 500 359 q 495 366 495 362 l 587 458 m 534 465 q 541 465 537 465 q 547 464 545 464 l 458 377 q 468 405 461 389 q 485 434 475 420 q 507 456 495 448 q 534 465 519 465 m 134 557 q 135 549 134 556 q 136 540 136 543 q 136 524 136 532 q 129 510 136 517 l 52 435 l 47 435 l 47 471 l 134 557 m 146 639 l 146 632 q 142 616 144 625 q 141 604 141 610 l 60 522 q 58 529 60 525 q 57 534 57 533 q 58 549 57 540 q 64 563 58 559 l 146 644 l 146 639 m 163 738 l 157 703 l 69 614 l 69 618 l 69 621 q 73 633 71 624 q 76 644 75 642 q 79 655 76 647 q 81 662 80 659 l 157 738 l 163 738 m 175 795 l 104 726 q 110 741 106 730 q 117 755 114 751 q 125 775 119 762 q 134 789 132 788 q 146 803 137 793 q 165 823 155 812 q 184 842 175 833 q 198 854 194 850 l 175 795 m 720 906 l 755 906 l 663 812 l 655 812 q 644 813 648 812 q 633 818 639 814 l 720 906 m 674 906 l 587 818 l 552 818 l 621 888 q 644 900 628 894 q 669 906 659 906 l 674 906 z "},"7":{"ha":975,"x_min":47,"x_max":936,"o":"m 407 -24 q 414 -25 408 -23 q 423 -30 420 -27 q 427 -33 426 -30 q 430 -35 429 -35 l 336 -129 l 335 -129 q 323 -125 330 -129 q 315 -117 317 -122 l 407 -24 m 343 -7 l 347 -5 q 360 -7 355 -5 q 372 -12 365 -9 l 366 -24 l 290 -99 q 273 -106 283 -106 q 250 -99 263 -106 l 343 -7 m 290 18 l 296 18 q 308 16 301 18 q 315 8 315 15 l 315 5 l 221 -88 l 198 -76 l 290 18 m 244 52 l 247 52 l 250 52 q 259 46 252 50 q 267 39 266 42 l 175 -54 l 170 -54 q 151 -42 159 -54 l 244 52 m 198 80 l 216 62 l 122 -30 l 117 -27 q 111 -24 111 -24 q 106 -16 110 -23 q 104 -12 104 -14 l 198 80 m 221 122 q 364 390 290 258 q 513 656 438 522 q 519 667 514 658 q 530 685 524 675 q 541 703 536 694 q 547 713 545 711 q 560 740 551 722 q 580 779 570 758 q 598 817 590 799 q 609 842 606 836 q 616 857 612 844 q 621 876 620 869 l 621 882 l 616 882 q 576 881 606 882 q 505 880 545 880 q 418 879 464 880 q 332 878 373 878 q 261 877 292 878 q 221 876 231 876 l 198 876 q 182 876 190 876 q 168 882 175 875 q 163 956 163 917 q 163 1029 163 994 l 163 1120 q 191 1123 171 1122 q 235 1126 212 1124 q 280 1130 259 1128 q 309 1133 301 1131 q 337 1133 315 1133 q 393 1133 359 1133 q 466 1134 426 1134 q 545 1135 506 1134 q 617 1136 583 1135 q 674 1137 651 1137 l 750 1137 q 831 1137 789 1137 q 911 1124 873 1137 q 920 1118 916 1124 q 924 1108 924 1111 q 926 1069 924 1097 q 930 1010 928 1042 q 934 950 932 978 q 936 911 936 922 l 936 907 q 929 880 936 897 q 918 852 922 863 q 884 785 909 833 q 833 684 860 738 q 783 582 807 629 q 750 515 760 534 q 741 496 749 513 q 732 476 734 479 q 724 457 730 469 q 711 432 718 445 q 698 408 704 419 q 690 395 692 397 q 680 374 689 391 q 659 340 670 358 q 639 304 648 321 q 627 283 629 288 q 599 229 618 269 q 557 145 579 190 q 516 61 536 100 q 488 5 496 22 q 479 -4 486 3 q 471 -12 473 -11 q 465 -14 468 -14 l 458 -14 q 454 -13 457 -14 q 448 -12 450 -12 q 428 -5 442 -11 q 398 5 414 0 q 368 16 382 11 q 349 23 354 20 q 307 44 327 33 q 267 69 286 56 q 235 86 248 80 q 221 113 221 92 l 221 122 m 228 186 q 223 174 228 183 q 212 152 218 164 q 197 127 205 140 q 186 110 190 115 q 177 99 183 106 q 164 85 171 92 q 151 71 157 77 q 141 62 144 65 l 141 69 q 145 80 141 71 q 155 100 149 90 q 165 122 160 111 q 175 138 171 133 q 184 150 176 142 q 199 165 191 157 q 216 181 208 174 q 228 191 224 189 l 228 186 m 320 359 q 318 353 320 358 q 315 347 316 349 q 276 284 293 312 q 228 231 259 256 q 233 245 229 235 q 243 267 237 255 q 254 288 248 278 q 262 300 259 297 q 273 313 264 304 q 290 331 281 321 q 308 349 300 340 q 320 359 316 357 m 414 533 q 377 467 397 499 q 327 411 357 434 q 363 477 343 449 q 414 533 382 506 m 517 713 q 507 696 514 708 q 491 669 499 684 q 475 643 483 655 q 465 627 468 631 q 457 618 463 624 q 445 605 452 612 q 432 592 438 598 q 423 585 426 586 q 462 655 442 624 q 517 713 481 686 m 488 765 l 575 852 l 589 852 q 583 833 589 844 q 570 812 578 822 q 553 792 562 802 q 540 777 545 783 q 532 769 537 774 q 524 760 528 764 q 513 749 518 754 l 505 749 l 505 765 l 488 765 m 216 848 l 134 765 q 119 759 127 760 q 104 758 111 758 q 99 760 103 758 q 94 761 95 761 l 180 848 l 216 848 m 500 852 l 534 852 l 448 765 q 437 759 442 760 q 427 758 433 758 q 419 759 423 758 q 414 765 415 760 l 500 852 m 141 887 l 151 864 l 52 765 l 52 800 l 141 887 m 302 852 l 216 765 l 175 765 l 262 852 l 302 852 m 378 852 l 290 765 l 255 765 l 343 852 l 378 852 m 453 852 l 366 765 l 331 765 l 418 852 l 453 852 m 134 956 q 139 945 137 949 q 141 935 141 941 l 141 929 l 52 842 l 47 842 l 47 869 l 134 956 m 134 1038 q 135 1030 134 1036 q 136 1021 136 1024 q 134 1003 136 1008 q 122 986 133 998 q 104 966 115 978 q 81 944 92 955 q 61 925 69 933 q 52 917 53 917 l 47 917 l 47 951 l 134 1038 m 134 1090 l 134 1080 l 47 991 l 47 1004 l 134 1090 z "},"8":{"ha":963,"x_min":46,"x_max":913,"o":"m 498 -33 q 511 -35 506 -33 q 522 -39 515 -37 l 435 -126 l 401 -126 l 495 -33 l 498 -33 m 600 -39 l 517 -122 q 505 -127 511 -127 q 491 -126 498 -126 l 476 -126 l 564 -39 l 600 -39 m 418 -27 l 429 -27 q 439 -27 430 -27 q 448 -33 448 -27 q 445 -39 448 -35 q 441 -45 442 -43 l 366 -122 l 331 -122 l 331 -114 l 418 -27 m 273 -98 l 361 -11 l 365 -11 q 389 -16 377 -11 l 297 -110 l 292 -110 q 279 -109 286 -110 q 273 -100 273 -107 l 273 -98 m 703 -16 q 691 -29 700 -20 q 672 -48 682 -38 q 652 -67 662 -58 q 639 -80 643 -76 q 624 -88 637 -81 q 604 -98 610 -95 q 590 -103 601 -99 q 575 -110 579 -107 l 656 -27 q 665 -25 658 -27 q 674 -23 671 -23 q 686 -19 677 -20 q 699 -16 696 -18 l 700 -16 l 703 -16 m 221 -69 l 315 24 q 319 22 316 23 q 327 19 324 19 q 329 16 327 18 q 331 12 331 14 l 331 11 l 331 7 l 237 -87 q 231 -83 235 -85 q 221 -75 222 -77 l 221 -71 l 221 -69 m 273 60 l 290 42 l 198 -52 l 194 -52 l 193 -52 q 184 -46 190 -50 q 175 -39 178 -42 l 273 60 m 138 1 q 140 5 138 4 q 141 7 140 7 l 228 94 l 229 94 l 233 94 l 236 91 q 237 88 237 90 q 241 81 239 87 l 244 76 q 239 68 243 75 q 233 60 236 62 q 218 45 229 56 q 195 22 208 34 q 172 -1 183 9 q 157 -16 161 -12 q 155 -17 156 -16 q 151 -18 153 -18 q 141 -12 144 -18 q 138 1 138 -5 m 163 366 q 166 387 164 372 q 172 417 168 401 q 177 446 175 433 q 180 465 179 460 q 234 547 205 511 q 302 616 263 582 q 227 726 251 662 q 203 857 203 789 q 241 975 203 925 q 327 1069 278 1025 q 431 1126 372 1112 q 551 1139 490 1139 q 595 1137 576 1139 q 629 1131 613 1135 q 663 1118 646 1126 q 703 1099 680 1109 q 733 1086 718 1092 q 761 1069 749 1081 q 836 977 804 1029 q 867 864 867 925 q 862 783 867 825 q 842 703 857 742 q 836 686 840 697 q 827 665 831 675 q 818 644 822 654 q 812 633 814 635 q 807 625 812 632 q 802 616 802 618 l 800 612 l 800 606 q 802 604 800 605 q 810 593 802 602 q 819 582 818 583 q 888 452 863 521 q 913 305 913 382 q 912 264 913 283 q 906 222 911 245 q 892 182 902 201 q 872 146 883 163 q 860 132 868 142 q 843 109 852 121 q 825 85 834 96 q 812 71 817 75 q 810 68 812 69 q 807 64 807 66 q 686 7 746 26 q 556 -11 627 -11 q 469 -9 515 -11 q 384 12 422 -7 q 278 86 323 42 q 198 187 233 130 q 169 264 175 222 q 163 346 163 305 l 163 366 m 104 47 l 198 141 q 210 122 210 133 l 210 117 l 122 30 l 119 30 l 117 30 q 110 35 114 31 q 104 42 106 39 l 104 45 l 104 47 m 76 99 l 163 187 l 167 187 q 174 180 172 187 q 175 168 175 174 l 175 163 l 81 71 q 77 83 79 77 q 75 95 75 88 l 76 99 m 52 153 l 146 244 q 153 224 153 233 q 153 221 153 222 q 152 218 152 220 q 151 216 151 217 l 64 129 l 61 129 l 60 129 q 56 137 57 130 q 52 146 54 144 l 52 149 l 52 153 m 47 228 l 141 321 l 141 302 q 140 284 141 289 q 129 267 140 279 q 113 252 125 263 q 90 230 102 241 q 66 208 77 218 q 52 193 56 197 q 47 204 46 198 q 47 217 47 210 l 47 228 m 401 361 q 408 317 401 340 q 428 273 415 293 q 459 238 441 252 q 500 222 477 224 q 517 222 502 222 q 540 221 532 221 q 644 254 606 221 q 681 355 681 286 q 640 456 681 427 q 532 484 598 484 q 511 484 528 484 q 488 483 494 483 q 425 436 449 472 q 401 361 401 400 m 563 271 q 564 274 563 273 l 651 361 l 658 361 q 658 344 658 354 q 651 327 658 334 l 570 244 q 563 266 563 254 l 563 271 m 141 361 l 52 274 l 52 279 l 52 285 q 56 303 54 292 q 60 315 57 315 l 141 396 l 141 361 m 633 418 l 635 420 q 636 420 636 420 q 637 419 636 419 q 639 418 637 418 q 642 411 640 414 q 644 401 644 403 l 644 397 l 644 396 l 552 302 l 540 327 l 633 418 m 582 448 q 586 449 585 448 q 588 450 587 449 q 590 450 589 450 q 600 450 591 450 q 609 442 609 449 q 604 430 609 435 l 534 361 q 526 355 533 359 q 517 349 519 351 l 514 349 q 495 361 500 349 l 582 448 m 552 460 l 465 373 l 430 373 l 517 460 q 532 465 519 463 q 552 467 545 467 l 552 460 m 151 453 l 87 391 q 117 428 99 406 q 151 465 134 450 l 151 453 m 233 646 l 236 646 l 237 646 q 244 640 240 644 q 250 633 248 635 l 250 631 l 250 628 l 157 534 l 155 534 l 151 534 q 143 545 148 538 q 141 552 138 552 l 233 646 m 117 612 l 203 699 l 206 699 q 214 692 213 699 q 216 681 216 685 q 213 669 216 673 q 203 658 210 665 q 189 642 199 654 q 167 618 179 631 q 144 596 155 606 q 129 582 133 586 q 117 606 117 589 l 117 612 m 99 669 l 186 755 q 193 747 193 754 q 193 736 193 741 l 193 727 l 104 639 q 99 648 99 640 q 99 659 99 656 l 99 669 m 423 806 q 424 773 423 791 q 435 745 425 755 q 465 712 452 726 q 502 699 479 699 q 589 711 549 699 q 651 768 628 723 l 651 798 q 644 843 651 819 q 625 886 637 867 q 592 918 612 906 q 547 930 572 930 q 458 894 494 930 q 423 806 423 857 m 180 825 l 180 798 l 94 711 l 85 711 q 86 728 85 718 q 94 745 87 738 l 175 825 l 180 825 m 627 807 q 627 800 627 806 q 628 793 628 795 q 605 747 628 769 q 557 726 582 726 q 552 726 556 726 q 547 727 548 727 l 627 807 m 517 773 l 609 867 q 615 856 614 861 q 616 845 616 850 l 616 837 l 529 750 l 526 750 q 518 757 519 750 q 517 768 517 764 l 517 773 m 180 892 q 180 879 180 886 q 175 867 180 872 l 94 785 l 92 789 q 98 814 92 800 q 111 837 103 829 l 180 906 l 180 892 m 564 901 l 570 901 q 587 888 581 901 l 495 798 l 494 796 q 491 795 492 795 l 488 798 q 479 802 486 798 q 471 807 472 806 l 564 901 m 522 901 l 453 831 l 453 837 q 460 857 453 846 q 476 878 467 868 q 497 894 486 887 q 517 901 509 901 l 522 901 z "},"9":{"ha":998,"x_min":35,"x_max":941,"o":"m 651 -24 l 652 -24 q 665 -28 658 -24 q 674 -37 671 -31 l 587 -123 q 583 -125 586 -125 l 576 -125 q 566 -124 574 -125 q 557 -118 559 -123 l 651 -24 m 749 -37 l 662 -123 l 627 -123 l 713 -37 l 749 -37 m 837 -30 l 749 -118 q 736 -123 743 -123 q 722 -123 730 -123 l 708 -123 l 795 -37 l 837 -30 m 876 -30 l 894 -30 l 894 -37 l 812 -118 q 802 -123 808 -122 q 789 -125 796 -125 l 789 -118 l 876 -30 m 632 39 l 632 -1 l 545 -88 l 545 -49 l 632 39 m 632 114 l 632 80 l 545 -7 l 545 27 l 632 114 m 656 464 l 655 464 l 651 464 q 640 460 648 463 q 621 456 631 458 q 602 453 610 454 q 591 452 593 452 q 581 452 590 452 q 562 451 572 452 q 538 450 551 450 q 519 450 526 450 q 505 450 515 450 q 484 451 495 450 q 461 452 472 452 q 446 452 450 452 q 325 494 380 464 q 231 568 270 524 q 172 671 193 613 q 151 798 151 728 q 155 867 151 829 q 174 935 159 905 q 182 945 175 936 q 197 966 189 954 q 213 990 205 978 q 225 1009 221 1002 q 266 1057 243 1032 q 317 1101 289 1081 q 374 1135 345 1122 q 435 1147 404 1147 q 445 1147 437 1147 q 464 1148 453 1147 q 485 1149 475 1149 q 502 1149 495 1149 q 593 1142 548 1149 q 678 1108 639 1135 q 694 1126 681 1114 q 713 1142 708 1139 l 736 1142 q 823 1135 780 1142 q 911 1124 867 1128 q 922 1116 917 1122 q 929 1103 926 1109 q 933 918 925 1009 q 941 734 941 827 q 932 572 941 652 q 924 410 924 492 q 926 390 924 399 q 929 370 929 381 q 926 355 929 362 q 924 339 924 349 q 926 308 924 323 q 929 278 929 293 q 926 229 929 252 q 922 182 922 205 q 926 136 922 159 q 929 91 929 114 q 926 81 929 84 q 924 71 924 77 q 926 47 924 60 q 929 24 929 35 q 924 6 929 19 q 911 -7 920 -7 l 678 -7 q 667 -1 673 -7 q 662 11 662 5 l 662 434 l 656 464 m 632 197 q 639 187 639 194 q 639 178 639 180 l 639 167 l 552 80 l 544 80 q 545 97 544 87 q 552 114 545 107 l 632 197 m 639 278 l 639 243 l 552 156 l 552 191 l 639 278 m 639 359 l 639 342 q 639 326 639 334 q 632 312 639 319 l 557 236 l 552 236 l 552 271 l 639 359 m 545 342 l 639 434 l 639 399 l 552 312 q 546 323 547 319 q 545 334 545 328 l 545 342 m 471 422 l 505 422 l 418 335 l 389 330 l 384 335 l 471 422 m 312 343 q 313 346 312 345 l 315 347 l 401 434 l 408 434 q 419 433 415 434 q 429 429 423 433 l 423 416 l 349 342 q 336 335 345 338 l 334 335 l 331 335 q 321 338 328 336 q 315 342 315 340 l 312 343 m 581 422 l 500 342 q 487 335 494 335 q 473 335 480 335 l 458 335 l 545 422 l 581 422 m 255 365 l 342 452 l 347 452 q 372 446 361 452 l 278 353 l 277 353 l 273 353 q 263 356 270 354 q 255 359 256 358 l 255 361 l 255 365 m 290 481 l 292 481 q 315 469 305 481 l 221 377 l 218 374 q 206 379 212 374 q 198 387 201 384 l 290 481 m 250 515 q 262 498 262 509 q 261 496 262 496 q 260 495 260 496 l 260 494 l 174 404 l 168 404 q 151 416 159 404 l 250 515 m 117 464 l 203 551 l 205 551 q 207 551 206 551 q 209 552 208 552 q 222 548 216 552 q 228 537 228 544 q 227 534 228 536 l 225 533 l 138 446 q 133 441 137 442 q 129 439 130 439 q 114 458 114 444 l 117 464 m 174 597 l 178 597 l 180 597 q 188 587 183 593 q 191 581 193 581 l 99 486 l 95 486 l 92 486 q 90 490 92 488 q 87 494 87 491 q 83 499 85 495 q 81 503 80 503 l 174 597 m 57 563 l 146 650 l 148 650 l 151 650 q 153 641 151 647 q 156 632 156 635 l 156 628 l 156 625 l 64 533 q 58 543 58 538 q 57 553 57 548 l 57 563 m 39 620 l 134 713 q 139 701 137 707 q 141 689 141 696 q 140 688 141 688 q 140 686 140 688 q 138 684 138 685 l 52 597 q 49 595 52 597 l 47 597 q 43 604 45 597 q 39 614 42 610 l 39 618 l 39 620 m 122 783 q 127 770 125 776 q 129 758 129 765 q 127 750 129 753 q 122 742 125 747 l 52 671 q 44 666 50 670 q 35 662 38 662 l 35 696 l 122 783 m 395 808 q 406 745 395 769 q 446 696 418 722 q 479 684 460 685 q 514 684 499 684 l 552 684 q 584 703 570 688 q 609 731 598 718 q 625 770 624 749 q 627 811 627 792 q 622 853 627 831 q 607 893 617 875 q 580 923 597 911 q 540 935 563 935 q 486 926 513 935 q 439 901 460 917 q 407 861 419 884 q 395 808 395 838 m 604 793 l 604 788 q 601 767 604 779 q 591 749 598 755 q 573 728 586 742 q 557 713 560 715 q 538 704 551 708 q 522 701 525 700 l 517 707 l 604 793 m 129 849 q 129 836 129 842 q 122 823 129 829 l 39 742 l 39 750 q 41 768 39 758 q 47 783 43 779 l 129 864 l 129 849 m 591 857 l 593 859 q 594 859 594 859 q 595 860 594 860 l 597 857 q 601 850 600 857 q 604 841 602 844 l 604 837 l 604 836 l 510 742 l 500 765 l 591 857 m 557 905 l 560 905 q 571 899 567 905 q 575 887 575 894 l 575 882 q 560 867 571 878 q 537 844 549 856 q 515 821 525 831 q 500 806 505 810 q 490 798 498 803 q 483 793 486 795 q 472 802 479 795 q 464 811 465 808 l 557 905 m 517 905 l 435 823 q 430 821 434 823 q 423 818 426 818 q 419 817 422 817 l 416 817 q 426 846 416 830 q 449 875 435 861 q 479 897 463 888 q 509 905 495 905 l 517 905 z "}," ":{"ha":435,"x_min":0,"x_max":0,"o":""},"e":{"ha":1103,"x_min":47,"x_max":1053,"o":"m 587 -52 l 621 -52 l 534 -141 q 517 -147 528 -146 q 500 -148 507 -148 l 500 -141 l 587 -52 m 513 -47 l 547 -47 l 453 -141 l 423 -141 l 423 -134 l 513 -47 m 703 -52 q 688 -67 699 -56 q 666 -91 678 -79 q 642 -114 654 -103 q 627 -129 631 -125 q 611 -140 616 -140 q 591 -141 606 -141 l 575 -141 l 663 -52 l 703 -52 m 789 -42 l 715 -117 q 709 -120 713 -118 q 703 -123 705 -122 q 684 -128 700 -125 q 663 -134 667 -132 l 743 -52 q 749 -50 745 -52 q 755 -47 754 -47 q 768 -45 757 -47 q 785 -42 779 -42 l 787 -42 l 789 -42 m 453 -30 l 481 -37 l 389 -129 q 385 -130 387 -130 l 380 -130 q 370 -130 376 -130 q 361 -123 363 -129 l 453 -30 m 302 -99 l 396 -7 l 418 -18 l 418 -24 q 389 -54 404 -39 q 364 -79 377 -66 q 343 -99 351 -92 q 332 -109 336 -107 q 321 -111 328 -111 q 309 -111 316 -111 q 302 -103 302 -110 l 302 -99 m 349 23 l 353 23 l 354 23 q 361 17 357 20 q 366 11 365 14 l 366 8 l 366 5 l 279 -81 l 274 -83 q 255 -71 262 -83 l 349 23 m 302 57 l 304 58 q 306 59 305 58 q 308 60 307 60 q 327 45 319 60 l 233 -47 l 231 -47 q 210 -35 216 -47 l 302 57 m 163 427 q 173 512 163 475 q 198 597 183 549 q 202 610 199 601 q 209 631 205 620 q 216 652 213 642 q 221 667 220 663 q 252 717 231 692 q 290 761 274 742 q 381 831 332 804 q 488 876 430 857 q 554 888 522 887 q 621 888 586 888 q 636 888 625 888 q 659 888 647 888 q 683 887 671 887 q 699 887 694 887 q 786 861 742 880 q 870 815 830 842 q 943 753 910 788 q 998 678 977 718 q 1053 477 1053 583 q 1051 435 1053 454 q 1043 399 1050 415 q 1022 372 1036 382 q 981 359 1008 362 q 959 358 974 359 q 928 356 944 357 q 897 355 911 355 q 876 354 882 354 q 821 353 859 354 q 737 353 784 353 q 639 353 690 353 q 541 353 587 353 q 456 353 494 353 q 401 354 419 354 q 396 347 396 351 l 396 346 l 396 342 q 444 240 410 281 q 540 186 479 199 q 551 186 543 186 q 570 185 560 186 q 587 184 579 184 q 600 184 595 184 q 690 193 647 184 q 773 225 732 201 q 787 235 776 227 q 810 252 798 243 q 835 268 823 260 q 849 278 846 275 q 859 284 856 283 q 868 285 861 285 q 879 284 876 285 q 888 278 882 283 q 900 269 891 275 q 919 256 909 263 q 939 241 929 248 q 954 231 949 235 q 987 205 968 220 q 1006 172 1006 191 q 1004 153 1006 161 q 993 138 1002 145 q 974 119 987 133 q 945 89 960 104 q 914 59 929 73 q 894 39 899 45 q 857 12 879 24 q 812 -7 836 0 q 795 -12 806 -9 q 774 -18 785 -15 q 750 -24 762 -22 l 547 -24 q 531 -22 544 -24 q 513 -18 518 -19 q 471 -7 494 -14 q 430 5 448 -1 q 397 23 412 12 q 366 45 381 34 q 275 127 313 88 q 211 208 236 165 q 174 303 186 251 q 163 427 163 355 m 262 92 l 264 92 l 267 92 q 273 87 269 91 q 279 80 278 83 l 279 79 l 279 75 l 193 -12 l 187 -12 q 168 0 176 -12 l 262 92 m 134 45 l 228 138 q 240 117 240 132 q 239 115 240 115 q 239 113 239 114 q 237 110 237 111 q 223 95 233 106 q 201 72 213 84 q 178 50 189 60 q 163 35 167 39 q 155 28 161 33 q 146 23 149 24 q 137 32 140 26 q 134 43 134 38 l 134 45 m 193 179 l 194 180 q 195 180 195 180 q 197 179 195 179 l 198 179 l 201 176 l 203 174 q 208 167 206 171 q 210 161 210 163 l 117 69 q 115 68 117 68 l 113 68 l 111 69 q 108 71 110 69 q 104 75 106 73 q 101 81 103 77 q 99 87 99 85 l 193 179 m 75 142 q 76 144 75 144 l 163 231 l 164 232 q 165 233 165 232 q 167 233 165 233 q 174 225 172 233 q 175 213 175 217 l 175 209 l 87 122 l 85 122 q 77 129 79 122 q 75 138 75 136 l 75 142 m 57 198 q 58 201 57 198 q 60 203 58 202 l 151 296 l 151 260 l 64 174 q 59 186 61 180 q 57 198 57 191 m 604 324 l 517 237 l 483 237 l 570 324 l 604 324 m 686 330 l 686 324 l 604 243 q 591 237 598 237 q 578 236 585 236 q 571 237 576 236 q 564 237 566 237 l 656 330 l 686 330 m 732 330 l 736 330 q 739 330 738 330 q 742 331 741 331 q 755 330 747 331 q 762 321 762 328 l 761 320 l 686 243 q 675 237 680 237 q 665 236 671 236 q 654 237 659 236 q 644 243 650 237 l 732 330 m 849 330 q 835 316 845 326 q 814 296 825 307 q 792 275 803 285 q 777 260 781 264 q 754 244 768 252 q 730 236 741 236 q 724 237 727 236 q 720 237 722 237 l 812 330 l 849 330 m 141 365 q 144 351 142 362 q 146 336 146 339 q 142 329 146 335 q 134 320 137 323 q 113 298 126 311 q 88 273 100 285 q 60 243 73 258 l 52 243 l 52 278 l 141 365 m 495 324 l 529 324 l 465 260 l 448 278 l 495 324 m 975 336 l 993 336 l 993 330 l 941 278 l 939 278 l 936 278 q 930 281 935 278 q 924 283 925 283 l 975 336 m 453 330 q 444 317 452 323 q 430 308 437 311 q 423 330 423 319 l 453 330 m 872 312 q 880 323 873 316 q 888 330 886 330 q 895 331 888 331 q 906 331 902 331 q 916 331 909 331 q 924 330 922 331 q 912 319 921 327 q 901 308 903 311 l 898 308 l 894 308 q 883 310 891 308 q 872 312 875 312 m 134 434 l 134 399 l 47 312 l 47 347 l 134 434 m 151 532 l 151 528 q 149 516 151 525 q 146 505 148 507 q 142 495 144 499 q 141 488 141 491 l 64 411 l 64 415 q 69 441 64 425 q 81 464 75 457 l 151 533 l 151 532 m 186 644 q 181 623 184 639 q 175 602 178 608 q 172 596 174 601 q 168 591 170 591 l 94 515 q 104 549 98 532 q 122 581 110 567 q 135 593 126 585 q 154 612 144 602 q 174 631 164 623 q 186 644 183 640 m 647 667 q 591 661 620 667 q 534 640 562 654 q 486 606 507 627 q 453 557 464 585 l 453 553 l 453 551 q 477 555 458 552 q 500 557 495 557 l 656 557 q 689 558 666 557 q 738 559 712 559 q 787 561 764 560 q 819 563 810 562 l 819 568 q 812 585 819 579 q 740 646 777 625 q 647 667 703 667 m 604 639 l 547 581 l 517 581 l 517 585 q 521 591 517 586 q 530 601 525 595 q 542 612 536 606 q 552 620 548 617 q 575 633 560 627 q 601 639 590 639 l 604 639 m 663 644 q 675 642 666 644 q 686 639 684 639 l 627 581 l 591 581 l 656 644 l 659 644 l 663 644 m 715 627 l 720 627 q 731 625 724 627 q 738 618 738 624 q 731 599 738 606 q 714 587 724 591 q 693 581 704 582 q 674 581 682 579 l 674 585 l 715 627 m 773 597 q 779 591 774 595 q 785 585 783 587 l 755 585 q 768 597 758 594 l 769 597 l 773 597 z "},"f":{"ha":777,"x_min":39,"x_max":738,"o":"m 377 -35 l 382 -35 q 407 -39 392 -35 l 399 -52 l 324 -129 q 308 -134 320 -134 q 296 -133 301 -134 q 283 -129 290 -132 l 377 -35 m 330 -39 l 243 -129 l 209 -129 l 296 -39 l 330 -39 m 488 -39 l 399 -129 l 365 -129 l 452 -39 l 488 -39 m 255 0 l 266 -23 l 174 -117 l 168 -117 l 168 -87 l 255 0 m 168 -12 l 260 81 l 260 69 q 260 54 260 62 q 255 39 259 46 l 174 -39 q 170 -28 172 -37 q 168 -18 168 -20 l 168 -14 l 168 -12 m 283 0 q 284 18 283 5 q 285 46 285 31 q 284 74 285 61 q 283 92 283 87 q 281 131 283 100 q 277 197 279 161 q 274 263 275 232 q 273 302 273 294 q 271 360 273 319 q 269 447 270 401 q 267 534 267 492 q 266 591 266 575 q 264 601 266 594 q 260 609 262 608 q 259 611 259 610 q 258 613 259 612 q 255 614 256 614 l 168 614 q 165 617 167 614 q 161 621 163 620 q 158 636 160 625 q 156 651 156 647 l 156 825 l 161 830 q 221 831 191 827 q 278 842 251 834 q 277 865 278 849 q 277 901 277 882 q 277 936 277 920 q 278 959 278 952 q 280 970 278 960 q 285 990 282 979 q 290 1012 288 1001 q 296 1028 293 1023 q 378 1135 321 1108 q 513 1161 434 1161 l 533 1161 q 543 1160 534 1161 q 561 1156 551 1158 q 581 1152 571 1154 q 597 1149 591 1150 q 629 1141 606 1147 q 677 1124 652 1134 q 720 1102 701 1114 q 738 1080 738 1090 q 737 1078 738 1078 q 736 1077 736 1078 l 736 1074 q 732 1065 735 1072 q 724 1051 728 1059 q 717 1036 720 1043 q 713 1028 713 1029 q 708 1015 712 1025 q 699 991 704 1004 q 690 966 694 978 q 684 951 685 955 q 665 935 680 935 q 631 938 648 935 q 597 941 614 941 q 549 928 564 941 q 533 882 533 914 l 533 860 q 548 859 537 860 q 571 857 559 859 q 594 855 583 856 q 609 854 605 854 q 628 850 614 852 q 644 848 642 849 q 650 842 650 848 l 650 627 l 647 624 l 644 621 q 637 617 642 620 q 632 614 633 614 q 618 612 628 614 q 597 608 608 610 q 576 605 586 606 q 563 604 567 604 l 553 597 l 553 12 q 544 -1 553 8 q 533 -12 534 -11 q 517 -13 529 -12 q 492 -15 506 -14 q 467 -17 479 -16 q 452 -18 456 -18 l 435 -18 l 416 -18 q 380 -17 401 -18 q 339 -15 359 -16 q 290 -12 315 -14 l 283 0 m 255 156 l 255 138 q 255 124 255 132 q 248 110 255 117 l 174 35 l 168 35 l 168 69 l 255 156 m 248 225 l 248 191 l 161 104 l 161 138 l 248 225 m 248 302 l 248 273 l 161 186 l 155 186 q 155 203 155 193 q 161 221 156 214 l 243 302 l 248 302 m 243 377 l 243 342 l 156 255 l 156 290 l 243 377 m 243 458 q 243 450 243 457 q 244 441 244 444 q 243 422 244 427 q 231 407 241 418 q 216 392 227 403 q 194 369 206 381 q 171 346 182 357 q 156 331 160 335 l 156 372 l 243 458 m 243 534 l 243 500 l 156 411 l 156 446 l 243 534 m 221 591 l 243 591 l 243 581 l 151 488 l 134 505 l 221 591 m 179 591 l 87 500 l 52 500 l 144 591 l 179 591 m 126 656 q 134 646 133 651 q 134 635 134 642 q 134 625 134 629 q 126 614 133 620 l 39 528 l 39 570 l 126 656 m 126 731 l 126 696 l 39 609 l 39 644 l 126 731 m 126 795 l 126 777 l 39 690 l 39 708 l 126 795 m 248 935 l 255 935 l 255 906 l 203 854 l 174 854 l 174 860 l 248 935 m 652 911 q 651 909 651 910 q 650 906 651 907 q 628 884 637 891 q 601 876 618 876 l 585 876 l 620 911 l 652 911 m 557 894 q 556 895 556 894 l 556 898 q 565 910 556 905 q 581 917 574 916 l 557 894 m 266 1028 q 267 1023 266 1025 q 267 1019 267 1021 q 264 998 267 1009 q 255 981 262 987 l 179 906 l 179 907 l 179 911 q 191 941 183 922 q 209 968 199 959 q 220 981 212 972 q 237 999 228 990 q 254 1016 245 1008 q 266 1028 262 1024 z "},"g":{"ha":1145,"x_min":47,"x_max":1086,"o":"m 609 -324 l 522 -414 q 511 -418 517 -419 q 496 -418 505 -418 l 483 -418 l 575 -324 l 609 -324 m 686 -324 l 600 -414 q 587 -415 597 -414 q 570 -418 576 -416 l 564 -418 l 557 -418 l 644 -331 q 658 -324 651 -324 q 671 -324 665 -324 l 686 -324 m 500 -320 l 534 -320 l 534 -324 q 526 -334 534 -326 q 506 -355 518 -343 q 481 -380 494 -368 q 458 -401 468 -393 q 450 -407 457 -403 q 441 -414 444 -411 l 439 -414 l 435 -414 q 425 -410 433 -411 q 414 -407 416 -408 l 500 -320 m 777 -315 l 703 -389 q 680 -401 696 -396 q 652 -407 663 -407 l 651 -407 l 738 -320 q 751 -317 745 -319 q 773 -315 765 -315 l 776 -315 l 777 -315 m 441 -302 l 446 -302 q 471 -308 458 -302 l 378 -401 l 373 -401 q 361 -400 366 -401 q 349 -396 355 -399 l 441 -302 m 290 -372 l 378 -285 l 385 -285 q 396 -286 392 -285 q 407 -290 400 -286 l 315 -384 l 312 -384 l 309 -384 q 298 -380 305 -382 q 290 -378 292 -378 l 290 -374 l 290 -372 m 237 -349 l 331 -255 q 340 -259 334 -255 q 349 -267 346 -263 l 349 -271 l 349 -273 l 262 -361 l 256 -361 q 244 -359 251 -361 q 237 -353 237 -358 l 237 -349 m 279 -228 q 282 -227 281 -228 q 283 -226 283 -227 q 285 -225 283 -225 q 302 -237 298 -225 q 300 -244 302 -240 q 297 -250 298 -248 l 221 -324 q 216 -328 221 -327 q 210 -331 212 -330 l 206 -331 q 186 -320 194 -331 l 279 -228 m 191 -14 q 192 -6 191 -12 q 198 0 193 0 l 414 0 q 439 -12 429 0 q 460 -41 450 -24 q 479 -73 469 -57 q 500 -99 488 -90 q 554 -118 521 -114 q 609 -122 587 -122 q 642 -119 625 -122 q 674 -111 659 -115 q 781 -50 749 -90 q 812 68 812 -9 l 810 68 q 807 69 808 68 q 686 36 746 49 q 560 23 625 23 q 463 37 509 23 q 372 75 418 50 q 304 117 332 96 q 255 162 277 137 q 217 218 233 187 q 186 290 201 248 q 165 394 168 338 q 163 500 163 450 q 175 568 163 534 q 198 632 187 601 q 273 763 225 709 q 401 848 321 817 q 479 863 438 863 q 557 864 519 864 q 632 861 594 864 q 707 851 670 859 q 777 829 743 844 q 841 789 811 814 l 841 864 l 849 869 q 869 871 850 869 q 898 872 887 872 q 984 870 940 872 q 1069 852 1028 868 q 1069 806 1069 840 q 1071 736 1070 773 q 1073 667 1072 700 q 1074 621 1074 635 q 1076 594 1074 616 q 1080 548 1078 572 q 1084 503 1082 524 q 1086 476 1086 481 l 1086 401 q 1082 251 1086 330 q 1063 95 1078 172 q 1019 -53 1048 18 q 941 -180 990 -123 l 906 -216 q 893 -224 903 -217 q 869 -240 883 -231 q 841 -258 854 -250 q 819 -273 827 -267 q 745 -296 789 -292 q 669 -302 701 -301 l 652 -302 q 536 -294 595 -302 q 422 -267 477 -286 q 317 -216 366 -248 q 233 -134 269 -183 q 218 -110 225 -125 q 204 -77 210 -95 q 195 -43 198 -60 q 191 -14 191 -26 m 151 -279 l 244 -186 l 262 -203 l 168 -297 l 167 -297 l 163 -297 q 157 -291 161 -296 q 151 -285 153 -286 l 151 -281 l 151 -279 m 203 -146 l 206 -144 l 210 -146 q 216 -151 212 -146 q 221 -156 221 -155 l 222 -160 q 221 -163 222 -161 l 129 -255 q 127 -256 129 -256 l 125 -256 l 122 -255 q 119 -254 121 -255 q 117 -250 117 -251 q 112 -243 114 -247 q 111 -237 110 -240 l 203 -146 m 92 -183 q 94 -180 92 -182 l 180 -94 l 182 -94 q 184 -92 182 -94 l 186 -94 q 189 -100 187 -94 q 193 -111 191 -107 l 193 -114 l 193 -117 l 99 -210 q 92 -187 92 -202 l 92 -183 m 75 -126 q 76 -122 75 -125 l 163 -35 l 167 -35 l 168 -35 q 173 -44 171 -38 q 175 -52 175 -50 q 170 -60 174 -54 q 163 -69 165 -66 q 149 -85 159 -73 q 126 -109 138 -96 q 102 -132 114 -121 q 87 -146 91 -142 l 85 -146 q 76 -140 77 -146 q 75 -130 75 -134 l 75 -126 m 587 0 l 621 0 l 540 -81 q 536 -83 537 -83 l 532 -83 q 521 -82 528 -83 q 513 -76 514 -81 l 587 0 m 708 11 l 627 -69 q 612 -75 623 -73 q 595 -76 602 -76 l 587 -76 l 669 5 q 683 10 673 9 q 700 11 693 11 l 708 11 m 773 30 l 785 30 q 783 14 785 24 q 777 0 781 3 l 703 -76 l 703 -42 l 773 30 m 483 -24 q 494 -10 486 -19 q 505 0 503 -1 q 513 1 507 0 q 522 1 519 1 q 532 1 525 1 q 540 0 538 0 q 533 -15 538 -7 q 520 -30 528 -23 q 505 -42 513 -37 q 491 -47 496 -47 q 484 -41 484 -47 q 483 -30 483 -34 l 483 -24 m 457 11 l 458 11 q 465 9 460 11 q 471 5 469 7 l 465 0 l 453 11 l 457 11 m 250 134 q 262 114 262 127 l 262 110 l 168 18 l 151 35 l 250 134 m 389 35 q 398 33 392 35 q 407 30 404 30 q 395 26 404 27 q 384 23 387 24 l 377 23 q 379 31 377 26 q 387 35 381 35 l 389 35 m 286 94 q 299 90 293 94 q 309 81 305 85 q 280 43 297 58 q 237 27 263 27 q 230 28 236 27 q 221 30 224 30 l 285 92 l 286 94 m 343 64 q 352 58 346 62 q 361 52 358 54 q 350 40 359 49 q 336 30 340 31 q 330 27 336 27 q 320 27 323 27 q 311 27 317 27 q 302 30 304 27 l 336 64 l 340 64 l 343 64 m 117 81 l 210 174 l 228 156 l 129 57 q 117 79 117 66 l 117 81 m 92 132 q 94 134 92 133 l 180 221 l 184 221 q 191 214 190 221 q 193 203 193 208 l 193 198 l 104 110 l 103 110 q 94 117 96 110 q 92 129 92 123 l 92 132 m 69 191 l 157 278 l 160 279 q 168 273 167 279 q 170 260 170 266 q 163 243 170 250 l 87 168 l 76 161 q 70 172 71 167 q 69 184 69 178 l 69 191 m 146 342 q 153 321 153 331 q 153 317 153 319 q 152 315 152 316 q 151 312 151 313 l 64 225 l 60 225 l 60 255 l 146 342 m 423 416 q 467 308 423 350 q 575 260 510 266 l 616 260 q 695 266 663 260 q 749 287 727 271 q 785 330 770 302 q 812 401 799 357 q 813 425 812 407 q 814 450 814 444 q 808 517 814 483 q 789 583 803 552 q 751 636 776 613 q 690 667 727 659 q 683 667 689 667 q 670 668 677 667 q 656 669 663 669 q 647 669 650 669 q 604 667 624 669 q 564 656 585 665 q 505 616 532 643 q 460 557 479 590 q 433 487 442 524 q 423 416 423 450 m 141 418 l 141 384 l 52 296 l 52 330 l 141 418 m 761 330 q 754 319 761 326 q 743 312 747 312 q 743 315 741 312 q 750 323 746 319 q 758 329 754 327 q 761 330 761 331 m 789 441 l 795 441 l 789 407 l 703 320 l 703 354 l 789 441 m 47 389 q 50 400 47 392 q 52 407 52 404 l 141 494 l 141 458 l 52 372 q 47 382 47 373 l 47 389 m 785 510 q 789 500 788 505 q 789 490 789 495 l 789 481 l 699 391 l 690 418 l 785 510 m 674 481 l 761 570 l 764 570 q 773 563 769 570 q 777 552 777 556 q 776 546 777 551 q 773 540 774 541 l 686 453 q 674 476 674 461 l 674 481 m 157 589 l 157 587 q 155 578 157 585 q 149 565 152 572 q 144 550 146 557 q 141 540 142 543 q 137 532 138 537 q 134 528 136 528 q 118 511 127 521 q 100 492 109 502 q 84 477 91 483 q 76 471 77 471 l 69 471 l 69 476 q 75 493 71 480 q 81 510 80 506 q 85 517 83 513 q 87 522 87 521 l 157 591 l 157 589 m 732 614 l 734 616 q 735 615 735 616 q 736 614 735 614 l 738 614 q 744 610 739 614 q 750 604 749 606 l 750 601 l 750 597 l 656 505 l 639 522 l 732 614 m 681 644 l 682 644 l 686 644 q 695 641 689 643 q 703 639 701 639 l 703 635 l 703 632 l 609 540 l 587 552 l 681 644 m 639 644 l 552 557 l 517 557 l 604 644 l 639 644 m 186 674 q 182 661 186 670 q 175 650 178 652 q 163 637 172 646 q 146 621 155 629 q 128 604 137 612 q 117 591 119 595 q 127 611 119 601 q 141 627 136 621 q 149 636 142 629 q 163 650 156 643 q 176 665 170 658 q 186 674 183 671 z "},"h":{"ha":1010,"x_min":50,"x_max":963,"o":"m 221 -45 l 134 -134 q 119 -136 132 -134 q 99 -138 107 -137 l 95 -138 l 92 -138 l 186 -45 l 221 -45 m 738 -39 l 739 -39 l 743 -39 q 750 -41 746 -41 q 757 -43 754 -42 q 765 -45 761 -45 l 765 -52 q 757 -62 765 -53 q 736 -82 749 -71 q 711 -106 724 -94 q 690 -126 699 -118 q 682 -134 688 -129 q 674 -138 675 -138 q 659 -137 670 -138 q 644 -134 647 -136 l 738 -39 m 812 -45 l 848 -45 l 761 -134 q 755 -136 758 -134 q 749 -138 751 -137 l 746 -138 l 743 -138 q 734 -136 741 -138 q 726 -134 727 -134 l 812 -45 m 296 -45 l 209 -134 l 174 -134 l 260 -45 l 296 -45 m 372 -45 l 290 -126 q 279 -134 285 -133 q 267 -134 274 -134 l 255 -134 l 342 -45 l 372 -45 m 917 -45 q 903 -60 913 -49 q 880 -84 892 -72 q 857 -107 868 -96 q 842 -122 846 -118 q 828 -133 833 -132 q 812 -134 823 -134 l 800 -134 l 888 -45 l 917 -45 m 50 -103 q 52 -99 50 -102 l 138 -11 q 151 -35 151 -22 l 151 -39 l 64 -126 l 62 -127 q 61 -129 62 -129 q 52 -121 53 -129 q 50 -107 50 -113 l 50 -103 m 696 -39 l 609 -126 l 575 -126 l 674 -27 l 696 -39 m 662 7 l 575 -81 l 575 -66 q 574 -53 575 -60 q 581 -39 574 -46 l 662 42 l 662 7 m 138 64 l 138 30 l 52 -57 l 52 -23 l 138 64 m 168 68 q 171 193 168 130 q 174 317 174 255 l 174 349 q 169 357 170 354 q 168 366 168 361 l 168 372 q 171 378 168 373 q 174 384 174 382 q 171 399 174 387 q 168 414 168 411 l 168 420 l 168 430 q 170 512 168 457 q 172 636 171 567 q 176 782 174 705 q 180 928 178 859 q 183 1052 182 997 q 186 1133 184 1107 q 197 1141 189 1139 q 209 1145 205 1142 q 225 1147 214 1146 q 237 1149 236 1149 l 407 1149 q 420 1141 414 1149 q 429 1127 427 1134 q 432 1112 430 1124 q 435 1092 434 1099 q 439 1066 438 1084 q 441 1046 441 1048 q 443 998 441 1032 q 447 926 445 964 q 451 854 449 888 q 453 807 453 821 l 458 789 q 502 813 481 800 q 545 837 522 826 q 608 852 576 850 q 674 854 639 854 q 758 845 722 854 q 837 812 793 836 q 846 808 840 811 q 854 802 852 804 q 869 787 860 796 q 886 769 878 779 q 903 752 895 760 q 911 743 910 745 q 916 735 911 743 q 924 717 920 727 q 934 696 929 707 q 941 681 939 686 q 947 661 943 674 q 951 646 951 647 q 953 630 952 642 q 955 606 954 618 q 957 581 956 593 q 959 564 958 570 q 958 531 959 557 q 958 474 958 505 q 958 417 958 444 q 959 384 958 391 q 960 358 959 378 q 961 315 960 338 q 962 271 962 292 q 963 244 963 250 l 963 167 l 963 94 q 962 69 963 83 q 960 41 962 56 q 959 7 959 24 l 935 -18 l 864 -18 q 778 -18 825 -18 q 690 -11 731 -18 q 686 -5 686 -11 l 686 -4 q 694 194 686 96 q 703 389 703 292 l 703 477 q 700 495 701 481 q 696 513 699 509 q 691 529 694 518 q 684 551 688 540 q 677 570 681 562 q 674 582 674 579 q 661 593 671 583 q 644 609 650 604 q 635 616 642 612 q 627 621 628 621 l 557 621 q 547 616 556 621 q 534 609 537 612 q 497 571 511 591 q 473 528 483 551 q 458 481 464 506 q 446 430 452 456 q 444 417 446 427 q 437 395 441 407 q 431 374 434 384 q 429 361 429 363 q 426 345 429 355 q 423 331 423 334 q 420 307 422 323 q 417 276 419 292 q 414 248 415 260 q 411 233 412 236 q 410 186 411 220 q 409 117 410 153 q 408 47 408 80 q 407 0 407 14 q 400 -12 404 -5 q 389 -18 396 -18 l 180 -18 l 168 -5 l 168 68 m 669 123 l 669 107 q 669 94 669 100 q 662 81 669 87 l 581 0 l 581 35 l 669 123 m 138 111 l 52 24 l 52 38 q 52 52 52 45 q 57 64 52 58 l 138 146 l 138 111 m 674 203 q 671 186 674 199 q 669 168 669 172 q 665 162 667 167 q 662 157 663 157 l 587 81 l 581 81 l 581 87 q 583 109 582 95 q 587 123 585 123 l 669 203 l 674 203 m 146 228 l 146 212 q 146 199 146 205 q 138 186 145 193 l 57 104 l 57 141 l 146 228 m 674 250 l 591 168 l 585 168 q 587 188 585 175 q 591 203 589 201 l 678 290 l 674 250 m 151 315 l 151 297 q 150 277 151 282 q 138 262 149 273 q 124 247 134 258 q 102 224 114 236 q 79 201 90 212 q 64 186 68 190 l 64 228 l 151 315 m 678 372 l 678 336 l 591 250 l 591 285 l 678 372 m 146 384 l 146 349 l 57 262 l 57 297 l 146 384 m 678 448 l 678 414 l 591 327 l 591 361 l 678 448 m 146 465 l 146 430 l 57 343 l 57 378 l 146 465 m 575 423 l 669 517 q 674 506 674 511 q 674 494 674 500 l 674 483 l 587 396 q 578 407 581 399 q 575 422 575 415 l 575 423 m 146 540 l 146 505 l 57 418 l 57 453 l 146 540 m 644 570 l 647 570 q 655 563 654 570 q 656 552 656 556 l 656 547 l 570 458 l 566 458 l 563 458 q 555 469 560 463 q 552 477 551 476 l 644 570 m 146 621 l 146 604 q 146 589 146 597 q 138 575 145 582 l 64 500 l 57 500 l 57 534 l 146 621 m 591 600 l 602 600 q 612 599 605 600 q 621 591 620 598 l 528 500 l 526 500 l 522 500 q 513 506 519 502 q 505 513 507 510 l 591 600 m 146 699 l 146 663 l 57 575 l 57 609 l 146 699 m 146 777 l 146 743 l 57 656 l 57 690 l 146 777 m 151 860 l 151 849 q 150 833 151 842 q 146 819 149 825 l 64 738 l 64 773 l 151 860 m 151 941 l 151 901 l 64 812 l 64 854 l 151 941 m 156 1023 q 157 1017 156 1021 q 157 1010 157 1012 q 157 996 157 1005 q 151 981 156 986 l 69 901 l 69 936 l 156 1023 m 156 1104 l 156 1069 l 69 981 l 69 1017 l 156 1104 z "},"i":{"ha":522,"x_min":47,"x_max":465,"o":"m 210 -18 l 244 -18 l 244 -24 q 235 -33 244 -24 q 214 -54 227 -42 q 189 -79 202 -66 q 168 -99 176 -91 q 148 -112 157 -110 q 122 -114 138 -114 l 122 -106 l 210 -18 m 327 -18 l 237 -106 q 226 -111 232 -111 q 212 -111 220 -111 l 198 -111 l 290 -18 l 327 -18 m 401 -18 l 309 -111 l 273 -111 l 361 -24 q 373 -18 366 -18 q 387 -18 380 -18 l 401 -18 m 75 -79 q 76 -76 75 -77 l 163 11 l 164 11 q 165 12 165 11 q 167 12 165 12 l 168 11 q 176 1 172 8 q 180 -7 180 -5 l 87 -99 l 85 -100 q 77 -95 79 -100 q 75 -83 75 -90 l 75 -79 m 157 87 l 163 87 l 163 57 l 76 -30 l 69 -30 l 69 0 l 157 87 m 186 87 q 185 117 186 88 q 184 192 184 146 q 182 294 183 237 q 179 409 180 351 q 176 519 178 467 q 175 609 175 571 l 175 656 l 175 701 q 176 734 175 715 q 178 773 176 754 q 180 818 179 795 l 193 823 l 414 823 q 419 819 415 823 q 423 812 423 815 q 427 793 426 808 q 430 770 429 777 l 465 45 l 465 39 q 461 20 465 28 q 448 5 457 11 l 410 5 l 372 5 q 325 7 353 5 q 270 9 297 8 q 223 10 243 9 q 203 11 203 11 l 193 23 l 186 87 m 157 161 l 157 126 l 69 39 l 69 75 l 157 161 m 157 243 l 157 225 q 157 211 157 218 q 151 197 157 203 l 76 122 l 69 122 l 69 156 l 157 243 m 157 317 l 157 283 l 69 197 l 64 197 l 64 225 l 157 317 m 151 395 l 151 359 l 64 273 l 64 308 l 151 395 m 151 469 l 151 434 l 64 347 l 64 382 l 151 469 m 151 551 l 151 510 l 64 423 l 64 464 l 151 551 m 151 627 l 151 591 l 60 498 l 60 533 l 151 627 m 146 667 l 60 581 l 60 583 l 60 585 q 60 594 60 589 q 62 606 61 600 q 64 620 64 612 l 146 701 l 146 667 m 151 783 l 151 749 l 64 662 l 64 696 l 151 783 m 104 818 l 193 905 l 195 905 q 197 905 197 905 q 198 906 197 906 q 210 904 205 906 q 221 899 214 902 l 216 887 l 141 812 q 122 806 134 806 q 111 807 118 806 q 104 814 104 808 l 104 818 m 64 852 l 157 947 l 175 929 l 81 836 q 80 834 81 834 q 76 833 79 833 q 66 838 69 833 q 64 850 64 844 l 64 852 m 260 882 q 271 882 263 882 q 279 876 278 883 q 269 864 278 873 q 255 852 259 854 q 248 850 252 850 l 237 850 q 230 851 236 850 q 221 852 224 852 q 235 869 224 859 q 250 882 245 879 l 260 882 m 349 882 q 336 866 346 878 q 320 852 326 854 l 309 852 l 297 852 q 349 882 315 886 m 134 1004 q 140 994 140 998 q 141 982 141 989 l 141 974 l 47 882 l 47 917 l 134 1004 m 244 1177 q 263 1178 248 1177 q 281 1179 278 1179 q 291 1178 285 1179 q 304 1177 297 1177 l 320 1177 q 342 1170 327 1177 q 361 1160 357 1162 q 388 1140 377 1150 q 414 1115 399 1130 q 432 1076 429 1096 q 435 1034 435 1057 l 435 998 q 425 970 435 986 q 399 941 414 955 q 367 916 384 926 q 336 905 350 906 l 305 905 q 231 920 269 905 q 175 968 194 935 q 168 983 172 972 q 163 998 163 993 l 163 1090 q 170 1106 163 1093 q 180 1124 176 1119 q 210 1156 191 1139 q 244 1177 228 1172 m 134 1046 l 47 956 l 47 966 q 64 1009 47 989 q 77 1023 68 1013 q 98 1045 87 1034 q 119 1066 109 1057 q 134 1080 130 1076 l 134 1046 z "},"j":{"ha":517,"x_min":-111,"x_max":464,"o":"m 75 -320 l 104 -324 l 18 -414 q 12 -415 16 -414 q 5 -418 8 -416 l 1 -418 l 0 -418 q -9 -416 -3 -418 q -18 -414 -16 -414 l 75 -320 m 179 -324 l 174 -336 l 98 -414 q 84 -418 92 -419 q 69 -418 76 -418 l 52 -418 l 138 -331 q 152 -324 145 -324 q 165 -324 159 -324 l 179 -324 m 11 -302 l 16 -302 q 28 -303 22 -302 q 35 -311 35 -304 l 35 -315 l -54 -401 l -61 -401 q -72 -401 -68 -401 q -81 -396 -76 -400 l 11 -302 m 278 -308 q 265 -321 274 -312 q 246 -340 256 -330 q 227 -359 236 -350 q 213 -372 217 -369 q 201 -381 209 -376 q 184 -391 193 -387 q 166 -398 175 -395 q 153 -401 157 -401 l 151 -401 l 231 -320 q 248 -315 233 -320 q 273 -308 263 -311 l 274 -308 l 278 -308 m -111 -349 l -18 -255 q -12 -279 -12 -267 l -12 -285 l -106 -378 q -111 -354 -111 -368 l -111 -349 m 5 -193 q 6 -183 5 -191 q 7 -166 7 -175 q 9 -148 8 -157 q 11 -134 9 -138 q 14 -106 14 -119 q 23 -81 15 -94 l 26 -79 q 27 -76 27 -77 l 132 -76 q 147 -68 140 -76 q 160 -50 155 -60 q 169 -28 165 -39 q 174 -12 172 -18 q 193 147 191 68 q 209 308 195 227 l 209 678 q 206 698 208 684 q 203 728 205 712 q 199 758 201 743 q 197 777 197 772 l 197 799 q 243 848 197 842 q 309 852 271 850 q 378 854 347 854 q 385 854 381 854 q 391 853 388 853 q 399 852 395 852 l 411 842 q 414 834 412 842 q 417 816 415 826 q 421 795 419 806 q 423 777 423 784 q 451 511 438 648 q 464 243 464 374 q 460 77 464 159 q 446 -87 457 -4 q 437 -127 438 -106 q 423 -163 435 -148 q 315 -263 378 -224 q 170 -302 251 -302 q 133 -302 156 -302 q 86 -297 110 -301 q 41 -285 62 -293 q 11 -262 20 -277 q 5 -241 5 -251 q 5 -218 5 -231 l 5 -193 m -18 -193 q -18 -207 -18 -199 q -24 -221 -18 -214 l -99 -297 l -107 -297 q -107 -277 -107 -290 q -99 -255 -107 -263 l -18 -175 l -18 -193 m -12 -129 l -99 -216 l -99 -212 l -99 -210 q -97 -203 -99 -208 q -94 -198 -95 -199 l -12 -117 l -12 -129 m 144 -18 q 136 -43 144 -33 q 113 -54 127 -54 q 109 -53 110 -54 q 104 -52 107 -53 l 144 -12 l 144 -18 m 161 81 l 161 75 l 161 69 q 159 52 161 62 q 156 39 156 42 l 75 -42 l 75 -7 l 161 81 m 168 134 l 80 47 l 80 61 q 80 75 80 68 q 87 87 80 81 l 168 168 l 168 134 m 174 216 l 87 126 l 87 136 q 87 154 87 144 q 92 168 88 164 l 174 250 l 174 216 m 186 342 l 186 324 q 185 307 186 312 q 174 290 184 301 q 159 275 170 286 q 136 252 148 264 q 113 230 123 240 q 98 216 102 220 l 98 255 l 186 342 m 186 418 l 186 384 l 98 296 l 98 330 l 186 418 m 186 498 l 186 464 l 98 377 l 98 411 l 186 498 m 186 575 l 186 540 l 98 453 l 98 488 l 186 575 m 186 656 l 186 614 l 98 528 l 98 570 l 186 656 m 85 628 q 87 632 85 629 l 174 720 q 180 711 180 719 q 180 700 180 704 q 180 698 180 699 q 179 694 179 697 l 179 690 l 92 604 q 85 613 85 606 q 85 624 85 620 l 85 628 m 168 795 q 174 770 174 784 l 174 765 l 80 674 l 80 688 q 80 701 80 694 q 87 713 80 708 l 168 795 m 203 906 l 205 906 q 216 903 210 906 q 225 894 222 899 l 132 800 q 125 803 129 802 q 114 807 117 806 l 111 810 q 110 812 110 811 l 203 906 m 69 852 l 161 947 q 171 938 164 944 q 179 929 178 932 q 174 917 182 920 q 159 902 170 913 q 136 879 148 891 q 113 857 123 867 q 98 842 102 846 q 89 836 95 840 q 80 830 83 831 q 72 839 76 833 q 68 850 68 845 l 69 852 m 45 906 l 138 998 q 144 974 144 987 l 144 968 l 52 876 q 47 888 49 883 q 45 901 45 894 l 45 906 m 266 888 q 278 886 269 888 q 290 882 288 884 q 277 875 288 875 q 266 875 267 875 q 258 876 264 875 q 248 876 251 876 q 257 884 251 879 q 266 888 263 888 m 359 894 q 349 880 354 884 q 336 875 345 875 q 333 876 335 875 q 330 876 331 876 q 359 894 339 891 m 161 1047 q 200 1149 161 1119 q 308 1179 239 1179 l 336 1179 q 345 1176 339 1179 q 354 1172 351 1173 q 424 1124 401 1152 q 446 1046 446 1097 l 446 1010 q 444 1001 446 1008 q 441 993 442 994 q 380 931 418 951 q 296 911 343 911 q 196 947 231 911 q 161 1047 161 982 m 132 1038 l 45 951 l 45 960 q 62 1004 45 986 q 77 1018 66 1008 q 98 1040 87 1028 q 118 1061 109 1051 q 132 1074 127 1070 l 132 1038 z "},"k":{"ha":1062,"x_min":57,"x_max":1028,"o":"m 266 -42 l 179 -129 l 144 -129 l 231 -42 l 266 -42 m 637 -106 l 731 -12 q 740 -20 734 -14 q 749 -30 746 -27 q 747 -35 749 -31 q 743 -42 745 -39 l 655 -129 l 652 -129 q 642 -121 646 -129 q 637 -107 637 -113 l 637 -106 m 174 -24 l 175 -23 q 188 -27 182 -23 q 197 -35 194 -31 l 110 -123 l 99 -123 q 89 -123 96 -123 q 80 -117 81 -123 l 174 -24 m 342 -30 q 354 -35 351 -30 l 266 -123 l 231 -123 l 320 -35 q 326 -33 321 -34 q 336 -30 331 -30 l 342 -30 m 429 -35 l 429 -42 l 354 -117 q 340 -123 347 -123 q 324 -123 332 -123 l 308 -123 l 395 -35 l 429 -35 m 823 -35 l 749 -111 q 729 -121 742 -118 q 708 -123 716 -123 l 701 -123 l 783 -42 q 794 -38 783 -39 q 812 -35 806 -37 l 818 -35 l 823 -35 m 836 -99 q 823 -106 830 -106 q 808 -106 815 -106 l 795 -106 l 876 -24 q 883 -21 876 -23 q 894 -18 890 -19 q 908 -15 897 -18 q 922 -12 920 -12 l 836 -99 m 986 -5 q 989 -7 986 -5 l 991 -7 l 911 -88 q 903 -93 907 -92 q 894 -94 898 -94 l 887 -94 l 968 -12 q 986 -5 975 -5 m 602 -64 l 696 27 q 708 11 708 23 l 708 5 l 620 -81 l 618 -83 l 616 -83 q 614 -81 614 -83 q 608 -77 613 -81 q 602 -71 604 -73 l 602 -68 l 602 -64 m 170 45 q 170 26 170 39 q 161 5 170 12 l 87 -71 l 75 -76 l 75 -62 q 75 -48 75 -54 q 80 -35 75 -42 l 161 45 l 170 45 m 655 69 l 658 69 l 662 69 l 674 57 l 674 54 l 674 52 l 581 -42 l 563 -24 l 655 69 m 452 339 q 461 178 452 258 q 471 18 471 99 q 470 3 471 9 q 458 -7 469 -3 q 424 -7 449 -7 q 371 -9 399 -8 q 318 -12 343 -11 q 283 -12 293 -12 l 252 -12 q 223 -12 235 -12 q 205 -7 212 -11 q 195 7 198 -3 q 191 35 191 16 q 191 100 191 53 q 189 212 190 146 q 186 355 187 277 q 182 513 184 433 q 179 672 180 594 q 176 815 178 750 q 174 927 175 880 q 174 991 174 974 l 174 1055 l 174 1120 q 186 1137 176 1133 q 221 1139 195 1138 q 275 1140 247 1139 q 330 1141 304 1141 q 365 1142 355 1142 l 385 1142 q 420 1141 403 1142 q 446 1120 437 1139 q 448 976 445 1047 q 452 831 452 905 q 449 791 452 811 q 446 750 446 770 q 447 675 446 713 q 458 602 448 637 l 749 910 l 998 852 l 998 845 q 987 814 998 830 q 968 788 977 798 l 655 476 q 660 467 654 475 q 674 448 666 458 q 692 425 682 437 q 708 407 701 414 q 727 387 712 403 q 760 353 742 372 q 793 319 777 335 q 812 300 808 304 q 833 276 817 296 q 867 234 849 256 q 902 192 886 212 q 922 168 918 172 q 941 149 928 163 q 968 118 954 134 q 996 88 983 102 q 1016 69 1009 75 q 1025 54 1021 60 q 1028 39 1028 47 q 1022 28 1028 33 q 1009 23 1016 24 q 931 11 971 14 q 852 0 891 8 q 839 -3 849 0 q 817 -9 829 -5 q 795 -15 806 -12 q 783 -18 785 -18 l 780 -18 q 761 -7 769 -18 q 732 25 750 5 q 698 64 715 45 q 669 98 681 84 q 655 114 656 113 q 640 134 651 118 q 614 170 628 151 q 589 205 601 189 q 575 225 578 221 q 557 247 571 232 q 540 266 544 262 l 452 354 l 452 339 m 620 110 l 624 110 l 627 110 l 629 107 q 632 104 632 104 q 636 97 633 102 q 637 92 639 92 l 545 0 l 544 -1 l 541 -1 l 540 0 q 531 9 536 3 q 528 18 526 16 l 620 110 m 161 122 q 168 115 167 119 q 168 106 168 110 q 168 96 168 100 q 161 87 167 91 l 80 5 l 75 5 l 75 35 l 161 122 m 498 69 l 585 156 l 589 156 l 591 156 q 598 151 594 155 q 602 144 602 146 l 604 142 q 603 141 604 141 q 602 140 602 141 l 602 138 q 597 130 601 136 q 591 122 594 123 q 578 107 587 118 q 557 85 568 96 q 536 65 547 75 q 522 52 526 56 q 517 47 521 49 q 510 45 513 45 q 498 64 498 50 l 498 69 m 161 203 l 161 168 l 75 80 l 75 114 l 161 203 m 486 134 l 557 203 q 570 184 570 195 l 568 179 l 494 104 q 486 113 487 106 q 486 123 486 119 l 486 134 m 161 278 l 161 243 l 75 156 l 75 191 l 161 278 m 479 198 q 480 205 479 202 q 481 209 480 208 l 522 248 q 529 240 525 247 q 533 231 533 233 l 534 229 q 534 228 534 228 q 533 227 533 228 l 533 225 l 486 179 q 479 188 480 180 q 479 198 479 195 m 69 260 q 71 267 69 262 q 75 273 73 271 l 161 359 q 163 351 163 358 q 163 342 163 345 q 163 331 163 338 q 161 324 163 324 q 155 315 161 323 q 144 300 148 307 l 87 243 q 81 239 85 241 q 75 237 76 237 q 71 249 73 240 q 69 260 69 258 m 481 283 q 484 285 481 283 l 486 283 q 493 279 488 283 q 498 273 498 274 l 500 269 l 498 266 q 490 258 496 264 q 481 248 484 251 l 481 283 m 156 429 q 163 404 163 415 q 162 403 163 403 q 161 401 161 403 l 161 399 l 69 308 l 69 342 l 156 429 m 156 510 l 156 476 l 69 389 l 69 423 l 156 510 m 156 585 l 156 551 l 69 464 l 69 498 l 156 585 m 156 667 l 156 650 q 155 631 156 636 q 144 614 155 625 q 133 603 141 612 q 115 585 125 594 q 98 568 106 576 q 87 557 90 560 q 77 551 84 555 q 69 545 71 547 l 69 581 l 156 667 m 156 743 l 156 708 l 69 620 l 69 656 l 156 743 m 151 818 q 156 809 156 817 q 156 799 156 802 l 156 788 l 62 696 l 62 731 l 151 818 m 151 894 l 151 860 l 62 770 l 62 806 l 151 894 m 57 876 q 59 882 57 879 q 62 887 61 886 l 151 974 l 151 956 q 151 942 151 949 q 144 929 151 935 l 69 852 l 62 852 q 59 861 61 852 q 57 876 57 871 m 144 1046 q 151 1028 151 1035 q 144 1010 151 1017 l 57 922 l 57 956 l 144 1046 m 144 1116 l 144 1090 l 57 1004 l 62 1035 l 144 1116 z "},"l":{"ha":500,"x_min":52,"x_max":446,"o":"m 180 -18 l 182 -16 q 183 -17 183 -16 q 184 -18 183 -18 l 186 -18 q 195 -22 189 -18 q 203 -27 201 -26 l 117 -117 q 110 -120 114 -118 q 104 -122 106 -122 q 95 -117 100 -122 q 87 -110 90 -113 l 180 -18 m 278 -27 l 191 -117 l 156 -117 l 243 -27 l 278 -27 m 366 -23 l 285 -104 q 271 -111 279 -110 q 255 -111 262 -111 q 249 -111 254 -111 q 243 -110 244 -110 l 331 -23 l 366 -23 m 168 52 l 168 35 q 168 20 168 28 q 163 7 168 12 l 87 -69 l 81 -69 l 81 -35 l 168 52 m 191 76 q 192 127 191 92 q 193 204 193 161 q 193 294 193 247 q 193 385 193 342 q 192 462 193 427 q 191 513 191 496 q 190 571 191 526 q 186 675 189 616 q 180 802 183 735 q 175 929 178 869 q 170 1033 172 989 q 168 1092 168 1077 l 168 1108 l 168 1122 q 171 1133 168 1124 q 174 1139 172 1137 l 209 1145 l 395 1145 q 406 1135 400 1145 q 411 1122 411 1124 q 413 1103 412 1116 q 415 1075 414 1090 q 417 1046 416 1059 q 418 1028 418 1034 q 418 1010 418 1024 q 418 981 418 997 q 418 952 418 966 q 418 936 418 939 q 419 885 418 921 q 422 809 420 849 q 427 734 425 769 q 429 686 429 700 q 429 679 429 685 q 431 666 430 673 q 434 652 433 659 q 435 644 435 646 q 444 512 442 579 q 446 378 446 445 l 446 366 q 446 300 446 347 q 444 201 445 254 q 442 101 444 148 q 441 35 441 54 q 431 18 438 23 q 416 10 425 12 q 397 7 407 8 q 377 7 387 7 q 364 5 374 7 q 342 3 354 4 q 321 1 331 1 q 308 0 311 0 l 248 0 l 209 0 l 198 12 l 191 76 m 168 129 l 168 113 q 168 100 168 106 q 163 87 168 94 l 81 7 l 75 7 l 75 35 l 168 129 m 168 203 l 168 175 l 75 81 l 75 95 q 75 109 75 103 q 81 122 75 115 l 163 203 l 168 203 m 168 285 l 168 250 l 81 163 l 81 198 l 168 285 m 168 366 l 168 349 q 168 334 168 342 q 163 320 168 327 l 87 244 l 81 244 l 81 279 l 168 366 m 168 441 l 168 407 l 81 320 l 81 354 l 168 441 m 163 517 l 168 517 l 168 488 l 81 401 l 75 401 l 75 430 l 163 517 m 163 591 l 163 557 l 75 471 l 75 505 l 163 591 m 156 669 l 167 669 q 159 635 167 651 q 138 606 151 620 q 112 579 126 591 q 87 557 98 567 q 79 551 85 556 q 69 547 72 547 l 69 582 l 156 669 m 156 743 l 156 708 l 69 621 l 69 656 l 156 743 m 151 819 l 156 819 l 156 789 l 64 699 l 64 732 l 151 819 m 151 894 l 151 860 l 64 773 l 64 807 l 151 894 m 146 971 l 153 971 q 153 950 153 964 q 146 929 153 936 l 57 842 l 57 884 l 146 971 m 146 1046 l 146 1010 l 57 924 l 57 959 l 146 1046 m 146 1104 l 146 1092 l 52 998 l 52 1002 l 52 1005 q 56 1016 53 1008 q 57 1023 57 1020 l 138 1104 l 146 1104 z "},"m":{"ha":1533,"x_min":52,"x_max":1474,"o":"m 69 -92 l 156 -5 q 168 -23 168 -12 l 168 -27 l 75 -122 q 70 -111 71 -115 q 69 -100 69 -106 l 69 -92 m 237 -35 l 151 -122 l 117 -122 l 203 -35 l 237 -35 m 324 -27 l 237 -117 q 224 -121 235 -121 q 206 -122 213 -122 l 198 -122 l 285 -35 q 296 -28 290 -28 q 311 -27 302 -27 l 324 -27 m 384 -27 l 302 -110 q 285 -117 293 -117 l 278 -117 l 366 -27 l 384 -27 m 1242 -18 l 1265 -27 l 1179 -117 l 1149 -117 l 1149 -110 l 1242 -18 m 1340 -27 q 1339 -34 1340 -30 q 1335 -39 1337 -38 q 1324 -52 1332 -43 q 1307 -68 1316 -60 q 1289 -86 1298 -77 q 1278 -99 1280 -95 q 1264 -108 1274 -102 q 1253 -117 1255 -114 l 1236 -117 l 1219 -117 l 1306 -27 l 1340 -27 m 1428 -23 l 1347 -104 q 1339 -107 1345 -104 q 1329 -110 1332 -110 q 1316 -113 1326 -111 q 1301 -117 1305 -114 l 1394 -23 l 1428 -23 m 807 -18 l 720 -104 q 707 -111 713 -110 q 694 -111 701 -111 q 686 -111 692 -111 q 678 -110 681 -110 l 773 -18 l 807 -18 m 620 -88 l 621 -87 l 713 7 q 722 3 715 7 q 731 -5 728 -1 l 732 -7 q 732 -8 732 -8 q 731 -9 731 -8 l 731 -11 q 729 -18 731 -14 q 726 -23 727 -23 l 650 -99 q 644 -102 647 -100 q 639 -104 640 -104 q 627 -99 635 -104 q 620 -91 620 -94 l 620 -88 m 888 -11 l 800 -99 l 787 -102 q 774 -104 780 -103 q 765 -104 769 -104 l 764 -104 l 761 -104 l 848 -18 l 888 -11 m 1226 47 l 1226 12 l 1137 -75 l 1137 -39 l 1226 47 m 57 -27 q 61 -22 60 -26 q 64 -18 62 -18 l 151 69 l 151 52 q 150 34 151 39 q 138 18 149 28 q 125 3 134 14 q 104 -18 115 -7 q 83 -38 94 -28 q 69 -52 73 -47 l 68 -53 q 66 -54 68 -54 l 64 -52 q 61 -44 62 -50 q 57 -35 60 -38 l 57 -31 l 57 -27 m 708 76 l 708 68 q 707 49 708 60 q 703 35 707 38 l 621 -47 l 621 -11 l 708 76 m 174 125 q 177 289 174 208 q 180 453 180 370 q 174 617 180 536 q 168 780 168 699 l 168 807 l 174 812 q 189 815 174 812 q 226 821 205 818 q 270 826 247 823 q 308 830 293 829 q 368 837 342 836 q 427 838 393 838 l 427 768 q 439 777 430 770 q 457 790 448 783 q 475 804 467 798 q 488 812 484 810 q 559 847 522 840 q 639 854 597 854 l 690 854 q 701 852 693 854 q 713 849 709 850 q 765 827 741 841 q 812 802 789 814 q 860 768 840 787 q 899 726 880 750 l 906 726 q 925 741 911 730 q 954 765 939 753 q 983 787 970 777 q 1004 802 997 798 q 1013 806 1005 803 q 1029 814 1020 810 q 1048 823 1039 819 q 1062 830 1057 827 q 1109 842 1085 841 q 1158 844 1133 844 q 1169 844 1161 844 q 1186 843 1177 844 q 1202 842 1195 842 q 1214 842 1210 842 q 1262 825 1236 836 q 1306 802 1289 815 q 1315 793 1308 800 q 1332 777 1322 785 q 1350 758 1341 768 q 1364 743 1359 749 q 1402 680 1389 716 q 1421 609 1415 644 q 1459 323 1450 465 q 1474 35 1469 182 l 1474 31 q 1467 16 1474 22 q 1449 6 1459 9 q 1428 1 1439 3 q 1412 0 1417 0 l 1265 0 l 1253 12 q 1252 78 1253 31 q 1249 178 1251 125 q 1245 277 1246 231 q 1242 343 1244 324 q 1240 374 1242 357 q 1236 410 1238 392 q 1230 446 1233 429 q 1226 476 1227 463 q 1204 538 1221 509 q 1161 587 1188 567 q 1143 597 1156 590 q 1127 604 1130 604 l 1096 604 q 1055 603 1078 604 q 1016 591 1031 602 q 977 545 993 576 q 949 477 960 514 q 934 405 939 441 q 929 343 929 369 q 932 202 929 273 q 935 61 935 132 q 935 37 935 49 q 924 18 935 24 q 870 12 897 12 q 817 12 844 12 l 755 12 q 742 20 747 15 q 731 30 736 24 q 732 241 734 133 q 720 453 731 350 q 703 505 716 480 q 652 583 680 555 q 563 612 624 612 q 530 608 547 612 q 500 591 513 604 q 488 581 496 589 q 472 566 480 574 q 456 550 464 557 q 446 540 449 543 q 421 484 427 517 q 411 423 415 452 q 410 410 411 419 q 409 391 410 400 q 408 375 408 382 q 407 366 407 368 l 407 260 l 407 163 q 408 137 407 157 q 412 94 410 117 q 416 50 414 71 q 418 24 418 30 l 418 20 q 395 0 418 3 q 319 -5 353 -4 q 247 -5 286 -5 l 191 -5 q 174 58 174 23 q 174 125 174 94 m 1226 122 l 1226 87 l 1137 0 l 1137 35 l 1226 122 m 151 146 l 146 104 l 57 18 l 57 52 l 151 146 m 708 157 l 708 122 l 621 35 l 621 69 l 708 157 m 1226 203 l 1226 186 q 1226 172 1226 179 q 1219 157 1226 164 l 1133 69 l 1133 111 l 1226 203 m 151 228 l 151 193 l 64 104 l 64 141 l 151 228 m 708 233 l 708 198 l 621 111 l 621 146 l 708 233 m 1219 273 l 1219 237 l 1133 151 l 1133 186 l 1219 273 m 151 302 l 151 267 l 64 180 l 64 216 l 151 302 m 703 308 q 707 294 705 305 q 708 279 708 282 q 703 271 708 278 q 696 262 699 264 q 675 241 688 254 q 651 216 663 228 l 621 186 l 614 186 l 614 221 l 703 308 m 1214 349 l 1219 349 l 1219 320 l 1133 233 l 1127 233 l 1127 262 l 1214 349 m 156 389 q 157 380 157 387 q 157 372 157 374 q 157 362 157 369 q 156 354 157 355 q 149 344 156 353 q 138 331 142 335 q 125 317 134 327 q 104 296 115 308 q 83 275 94 285 q 69 262 73 266 l 69 302 l 156 389 m 703 384 l 703 349 l 614 262 l 609 262 l 609 290 l 703 384 m 1208 418 q 1213 406 1211 411 q 1214 395 1214 401 l 1214 389 l 1127 302 l 1120 302 l 1120 331 l 1208 418 m 602 362 q 604 366 602 365 l 690 453 q 698 444 697 452 q 699 434 699 437 q 698 431 699 431 q 697 427 697 430 q 696 423 696 425 l 609 336 q 602 346 602 339 q 602 355 602 353 l 602 362 m 156 465 l 156 430 l 69 343 l 69 378 l 156 465 m 1196 488 q 1202 477 1202 483 q 1203 464 1203 471 q 1202 460 1203 461 q 1202 457 1202 460 l 1202 453 l 1115 366 l 1109 366 l 1109 401 l 1196 488 m 581 418 l 674 513 q 679 500 677 506 q 681 488 681 495 q 680 486 681 487 q 680 484 680 486 l 678 483 l 591 396 q 589 395 591 396 q 582 402 583 395 q 581 414 581 410 l 581 418 m 62 439 q 63 450 62 445 q 69 458 64 454 l 151 540 l 156 540 l 156 513 l 69 423 q 63 431 64 426 q 62 439 62 435 m 1080 448 l 1172 540 q 1179 532 1175 538 q 1184 522 1184 525 l 1185 521 q 1185 519 1185 519 q 1184 518 1184 519 l 1184 517 l 1092 423 q 1080 442 1080 431 l 1080 448 m 639 557 l 640 559 q 651 551 646 559 q 656 540 656 544 q 654 535 656 538 q 650 529 651 532 l 575 453 q 569 450 572 452 q 563 448 566 448 q 562 446 563 446 l 559 446 l 557 448 q 550 457 555 450 q 545 465 545 464 l 639 557 m 1127 575 l 1128 576 q 1140 572 1134 576 q 1149 564 1146 568 l 1058 471 l 1054 471 q 1034 483 1040 471 l 1127 575 m 500 495 l 587 582 l 594 582 q 605 581 601 582 q 614 575 609 581 l 522 483 q 521 481 522 481 l 517 481 q 506 483 514 481 q 498 491 498 484 l 500 495 m 151 616 l 151 582 l 64 495 l 64 529 l 151 616 m 1092 582 l 1004 495 l 986 495 q 987 507 986 500 q 993 517 989 514 q 1005 530 997 521 q 1023 549 1013 540 q 1040 565 1032 557 q 1050 575 1047 572 q 1069 585 1058 582 q 1092 589 1081 589 l 1092 582 m 458 500 l 453 500 q 490 555 465 528 q 545 587 514 583 l 458 500 m 146 690 l 146 674 q 146 659 146 667 q 138 644 145 651 l 57 564 l 57 604 l 146 690 m 138 761 q 144 749 141 758 q 146 738 146 741 q 144 732 146 736 q 138 726 141 727 l 52 639 l 52 674 l 138 761 z "},"n":{"ha":981,"x_min":52,"x_max":924,"o":"m 738 -35 l 644 -129 l 609 -129 l 696 -42 q 709 -35 703 -35 q 722 -35 715 -35 l 738 -35 m 168 -24 l 191 -35 l 104 -123 l 75 -123 l 75 -117 l 168 -24 m 267 -35 l 267 -42 l 191 -117 q 178 -123 186 -123 q 163 -123 170 -123 l 146 -123 l 233 -35 l 267 -35 m 342 -35 l 260 -117 q 250 -123 255 -122 q 237 -123 244 -123 l 225 -123 l 315 -35 l 342 -35 m 557 -106 l 650 -12 q 657 -20 652 -14 q 662 -30 662 -27 q 663 -33 662 -30 l 662 -35 l 575 -123 l 570 -123 q 557 -111 557 -123 l 557 -106 m 818 -35 l 731 -123 l 696 -123 l 783 -35 l 818 -35 m 882 -30 l 795 -117 l 777 -117 l 860 -35 q 876 -30 864 -30 l 882 -30 m 146 27 l 146 0 l 52 -94 l 52 -80 q 52 -66 52 -72 q 57 -54 52 -60 l 138 27 l 146 27 m 644 62 l 644 45 q 644 31 644 38 q 639 18 644 23 l 557 -64 l 557 -24 l 644 62 m 146 110 l 146 75 l 57 -12 l 52 -12 l 52 18 l 146 110 m 545 644 q 488 635 513 644 q 441 597 463 625 q 420 557 429 581 q 405 510 411 534 q 395 461 399 486 q 389 416 392 437 q 372 212 374 312 q 372 5 370 111 l 359 -7 l 191 -7 q 175 4 180 -7 q 168 23 170 15 l 168 256 q 172 552 168 404 q 174 848 176 700 l 180 852 q 187 854 180 853 q 203 856 194 854 q 222 858 213 857 q 237 860 232 859 l 279 860 l 320 860 q 340 857 323 860 q 366 852 358 854 q 396 839 389 849 q 407 806 403 829 l 410 806 l 411 806 q 418 810 412 807 q 429 818 423 814 q 439 826 434 822 q 446 830 445 830 q 492 852 471 844 q 535 865 514 860 q 579 871 556 869 q 631 872 602 872 q 643 871 633 872 q 663 871 652 871 q 684 870 674 871 q 696 869 693 869 q 758 848 732 863 q 812 806 784 833 q 880 720 857 766 q 912 624 902 674 q 923 519 922 574 q 924 410 924 465 l 924 336 q 922 325 924 334 q 920 307 921 316 q 918 288 920 297 q 917 278 917 279 q 916 224 917 263 q 914 142 916 186 q 912 60 913 99 q 911 5 911 22 q 909 3 911 5 l 906 0 q 886 -3 902 -1 q 864 -7 871 -5 q 790 -11 829 -9 q 713 -12 751 -12 l 690 -12 q 686 -9 689 -11 q 682 -8 684 -8 q 678 -7 680 -8 q 674 -3 678 -7 q 670 0 673 -1 l 670 452 q 669 462 670 453 q 665 482 667 471 q 661 505 663 494 q 656 522 658 515 q 654 532 656 525 q 648 548 651 540 q 643 564 646 556 q 639 575 640 571 q 616 615 631 591 q 581 644 601 639 l 545 644 m 644 138 l 644 104 l 557 18 l 557 52 l 644 138 m 138 186 q 140 176 138 183 q 141 168 141 170 q 141 153 141 160 q 134 138 141 145 l 57 62 l 52 62 l 52 98 l 138 186 m 644 221 l 644 186 l 557 98 l 557 134 l 644 221 m 138 260 l 138 225 l 52 138 l 52 174 l 138 260 m 644 296 l 644 260 l 557 174 l 557 209 l 644 296 m 138 342 l 138 308 l 52 221 l 52 255 l 138 342 m 650 382 q 648 362 650 378 q 644 342 646 346 q 642 336 644 340 q 639 330 639 331 l 557 248 l 557 290 l 650 382 m 138 382 l 52 296 l 52 308 q 52 323 52 315 q 57 336 53 331 l 138 416 l 138 382 m 551 357 q 552 359 551 358 l 644 452 l 644 416 l 557 330 q 551 353 551 338 l 551 357 m 146 505 l 146 502 l 146 498 q 142 479 144 492 q 138 464 141 465 q 136 457 138 461 q 134 452 134 453 l 57 377 l 52 377 l 57 416 l 146 505 m 540 429 l 627 515 l 632 515 l 632 488 l 545 399 q 541 410 541 406 q 540 422 540 415 l 540 429 m 146 581 l 146 545 l 57 458 l 57 494 l 146 581 m 517 481 l 609 575 q 614 568 614 570 q 619 559 617 566 q 621 551 621 552 l 528 458 q 519 467 524 461 q 515 479 515 472 l 517 481 m 481 528 l 575 620 q 580 618 575 621 q 587 614 585 616 q 589 612 587 613 l 591 609 l 591 606 l 591 602 q 586 593 590 600 q 581 585 582 587 q 566 570 576 581 q 543 548 555 560 q 519 525 530 536 q 505 510 509 514 l 500 510 q 488 514 494 510 q 481 525 481 518 l 481 528 m 526 621 q 530 620 529 620 l 534 620 l 446 533 l 441 533 q 448 564 441 548 q 468 592 456 579 q 496 613 480 605 q 526 621 511 621 m 146 662 l 146 627 l 57 540 l 57 575 l 146 662 m 151 743 l 151 708 l 64 620 l 64 656 l 151 743 m 146 800 q 146 781 146 787 q 134 765 145 776 q 122 753 130 762 q 105 736 114 745 q 87 719 96 727 q 75 708 79 711 q 66 702 73 705 q 57 696 60 699 l 57 711 q 57 724 57 718 q 64 736 57 731 l 146 818 l 146 800 z "},"o":{"ha":1092,"x_min":47,"x_max":1040,"o":"m 627 -27 l 534 -122 l 500 -122 l 591 -27 l 627 -27 m 699 -35 l 699 -39 l 621 -117 q 607 -122 614 -122 q 591 -122 600 -122 l 575 -122 l 663 -35 l 699 -35 m 517 -23 l 547 -23 l 547 -27 l 458 -117 l 430 -117 l 430 -110 l 517 -23 m 795 -18 l 726 -87 q 716 -92 726 -88 q 703 -99 707 -96 q 686 -105 700 -100 q 669 -110 673 -110 l 750 -27 q 757 -26 753 -27 q 762 -24 760 -24 q 768 -23 765 -24 q 779 -19 770 -20 q 789 -18 787 -18 l 793 -18 l 795 -18 m 453 -11 l 483 -11 l 483 -18 l 396 -104 q 392 -106 395 -106 l 385 -106 q 375 -105 382 -106 q 366 -99 368 -104 l 453 -11 m 308 -76 l 309 -75 l 396 12 l 401 12 q 412 12 406 12 q 418 4 418 11 l 418 0 q 415 -5 418 0 q 414 -11 414 -8 l 336 -87 q 332 -90 335 -88 q 327 -92 328 -92 q 315 -88 323 -92 q 308 -79 308 -84 l 308 -76 m 255 -52 l 349 42 l 354 39 q 361 35 359 37 l 366 30 l 366 26 l 366 24 l 279 -64 l 274 -64 q 262 -62 269 -64 q 255 -56 255 -61 l 255 -52 m 302 76 l 305 76 l 309 76 q 315 71 311 75 q 320 64 320 66 q 321 61 320 64 l 320 60 l 228 -35 l 210 -18 l 302 76 m 163 540 q 229 703 183 635 q 339 815 274 772 q 485 880 404 859 q 658 901 566 901 l 699 901 q 849 850 785 891 q 956 746 913 808 q 1019 606 998 684 q 1040 448 1040 529 q 1038 363 1040 406 q 1028 279 1035 321 q 991 180 1017 222 q 929 94 966 138 q 890 59 914 76 q 836 28 865 42 q 778 4 807 14 q 726 -5 749 -5 l 663 -5 q 561 1 608 -5 q 458 18 514 7 q 450 21 457 19 q 441 24 444 23 q 427 30 437 26 q 406 40 418 34 q 385 52 395 46 q 372 60 376 57 q 362 64 369 61 q 354 69 355 68 q 336 87 349 75 q 309 116 323 100 q 281 144 294 132 q 262 163 267 157 q 214 230 233 193 q 183 307 194 267 q 168 389 172 347 q 163 471 163 430 l 163 540 m 175 24 l 267 117 l 285 99 l 193 7 l 190 5 l 186 7 q 180 12 184 7 q 175 18 175 16 l 174 20 l 175 24 m 228 157 l 229 157 l 233 157 l 244 146 l 244 142 l 244 141 q 239 130 243 137 q 233 122 235 123 l 163 52 q 157 50 161 52 q 151 47 153 47 l 148 47 l 146 47 q 138 57 144 49 q 134 64 136 61 l 228 157 m 104 111 l 198 203 q 210 186 210 197 l 210 180 l 117 87 q 110 96 114 90 q 104 104 106 103 l 104 107 l 104 111 m 81 168 l 168 255 l 172 256 q 180 249 179 256 q 180 237 180 241 l 180 233 l 87 141 q 81 165 81 152 l 81 168 m 151 315 q 157 305 157 312 q 157 296 157 298 l 157 285 l 66 193 l 60 221 l 151 315 m 423 486 q 423 451 423 464 q 430 418 423 438 q 435 402 431 414 q 443 377 438 391 q 452 350 448 363 q 458 331 456 336 q 462 326 460 330 q 465 320 464 321 q 475 308 468 316 q 491 292 483 300 q 507 276 499 283 q 517 267 514 269 q 530 260 519 267 q 547 250 540 254 q 578 237 563 240 q 612 233 593 233 q 729 264 684 233 q 802 361 774 294 q 813 419 812 388 q 814 479 814 450 q 813 488 814 481 q 812 495 812 494 q 764 595 802 556 q 669 656 726 633 q 638 663 654 663 q 608 663 623 663 q 473 618 522 663 q 423 486 423 572 m 47 285 q 49 291 47 286 q 52 297 50 296 l 141 384 q 145 370 142 381 q 146 354 148 358 q 139 344 146 353 q 129 331 132 335 q 109 311 121 323 q 85 289 96 300 q 60 262 72 275 l 52 262 q 49 271 50 262 q 47 285 47 279 m 785 392 q 776 359 785 377 q 753 326 766 342 q 724 297 739 309 q 699 279 709 285 q 697 286 699 281 q 696 293 696 292 q 696 307 696 300 q 703 320 697 313 l 785 401 l 785 392 m 134 453 l 134 418 l 47 331 l 47 366 l 134 453 m 699 389 l 789 483 l 789 467 q 790 454 789 460 q 785 441 791 448 l 703 361 q 700 372 701 363 q 699 384 699 381 l 699 387 l 699 389 m 134 500 l 47 414 l 47 418 q 50 439 47 427 q 60 458 52 452 l 134 534 l 134 500 m 678 448 q 680 450 678 449 q 681 453 680 452 l 768 540 l 769 541 q 772 540 769 541 l 773 540 q 774 533 773 537 q 777 522 777 525 l 777 519 l 777 517 l 686 423 q 678 446 678 433 l 678 448 m 738 587 l 755 570 l 663 476 l 659 476 l 656 476 q 647 481 654 477 q 639 488 640 486 l 738 587 m 686 616 l 688 616 q 700 613 694 616 q 708 604 705 610 q 704 595 708 601 q 699 587 700 589 q 683 572 694 583 q 659 549 671 562 q 636 527 647 537 q 621 513 625 517 l 616 510 q 591 522 605 510 l 686 616 m 168 644 q 160 622 167 639 q 151 600 153 605 q 148 591 151 597 q 146 587 146 589 l 76 517 q 81 529 77 521 q 90 546 85 537 q 99 563 95 555 q 104 575 103 571 q 135 614 115 595 q 168 644 155 632 m 633 639 l 635 639 l 639 639 q 644 637 640 637 q 650 636 647 637 q 656 633 654 635 l 658 631 l 656 627 l 570 540 l 563 540 q 551 541 556 540 q 540 547 545 541 l 633 639 m 587 639 l 500 552 l 465 552 l 540 627 q 560 637 548 635 q 582 639 572 639 l 587 639 z "},"p":{"ha":1103,"x_min":47,"x_max":1053,"o":"m 157 -312 l 180 -324 l 94 -411 l 64 -411 l 64 -407 l 157 -312 m 255 -324 l 168 -411 l 134 -411 l 221 -324 l 255 -324 m 336 -324 l 250 -411 l 216 -411 l 302 -324 l 336 -324 m 134 -255 l 134 -296 l 47 -382 l 47 -342 l 134 -255 m 134 -179 l 134 -213 l 47 -300 l 47 -266 l 134 -179 m 163 -199 l 163 -114 q 165 0 164 -77 q 170 174 167 77 q 174 378 172 271 q 179 583 176 486 q 183 758 182 681 q 186 872 184 836 q 216 888 195 886 q 236 890 221 890 q 267 892 251 891 q 298 895 283 894 q 320 895 313 895 l 366 895 l 414 895 q 420 886 418 894 q 424 867 422 878 q 427 847 426 857 q 430 831 429 837 q 534 880 481 865 q 647 895 586 895 l 699 895 q 709 893 700 895 q 731 890 719 891 q 755 886 743 888 q 773 884 766 884 q 918 815 854 868 q 1017 686 982 762 q 1035 634 1028 661 q 1053 582 1042 608 l 1053 483 l 1053 384 q 1040 304 1050 343 q 1017 228 1031 264 q 1011 212 1016 224 q 1005 198 1006 201 q 994 177 1001 190 q 981 151 987 164 q 970 127 975 137 q 963 117 964 118 q 957 110 963 115 q 944 97 951 104 q 930 82 937 90 q 918 71 922 75 q 806 11 871 27 q 681 -5 742 -5 q 545 12 612 -5 q 415 60 477 30 l 415 -260 q 412 -271 415 -262 q 407 -283 410 -279 q 405 -288 407 -285 q 401 -290 403 -290 q 380 -294 396 -292 q 361 -296 365 -296 l 271 -296 l 180 -296 q 170 -291 175 -293 q 163 -283 165 -289 l 163 -199 m 141 -92 l 141 -126 l 52 -213 l 52 -179 l 141 -92 m 141 -18 l 141 -52 l 52 -138 l 52 -104 l 141 -18 m 600 -27 l 627 -27 l 627 -35 l 540 -122 l 532 -122 q 521 -121 528 -122 q 513 -114 514 -121 l 600 -27 m 708 -27 l 703 -39 l 627 -114 q 614 -121 621 -121 q 600 -122 606 -122 l 582 -122 l 669 -35 q 681 -28 674 -28 q 694 -27 688 -27 l 708 -27 m 534 -11 l 537 -11 l 540 -11 q 552 -14 543 -12 q 564 -18 562 -16 l 471 -110 l 465 -110 q 453 -109 458 -110 q 441 -104 448 -107 l 534 -11 m 802 -18 l 726 -92 q 707 -102 719 -99 q 686 -104 696 -104 l 681 -104 l 755 -27 q 775 -19 762 -20 q 795 -18 788 -18 l 802 -18 m 476 7 q 484 5 477 7 q 495 0 491 3 l 498 -3 l 500 -5 l 441 -62 l 441 -27 l 476 7 m 146 64 q 144 40 146 53 q 134 18 141 27 l 64 -52 l 52 -57 l 52 -45 q 52 -31 52 -39 q 60 -18 53 -22 l 146 71 l 146 64 m 441 18 l 435 12 l 435 18 l 441 18 m 146 146 l 146 111 l 60 24 l 60 60 l 146 146 m 153 228 q 153 226 153 227 q 152 224 152 225 l 151 222 q 148 203 151 217 q 146 193 146 198 l 60 106 q 58 113 60 107 q 57 119 57 118 q 58 133 57 126 q 64 146 58 140 l 146 228 l 153 228 m 151 309 q 152 301 151 307 q 153 293 153 296 q 153 280 153 286 q 146 267 152 274 l 64 186 l 60 186 l 60 216 l 151 309 m 621 244 q 630 241 627 241 q 639 240 633 240 q 715 268 686 240 q 768 331 745 296 q 795 385 783 357 q 807 445 807 414 l 807 448 q 804 460 807 450 q 802 471 802 469 q 778 536 792 503 q 743 597 764 570 q 694 641 723 624 q 628 658 666 658 q 616 657 625 658 q 604 656 606 656 q 581 652 598 656 q 557 646 563 647 q 486 602 515 629 q 436 540 456 575 q 408 463 416 505 q 399 378 399 422 q 400 352 399 372 q 401 327 401 332 q 404 320 401 324 q 407 315 407 316 q 425 296 412 309 q 441 279 438 282 q 452 273 442 278 q 465 267 461 269 q 494 258 475 264 q 517 250 514 252 q 538 248 522 250 q 570 246 553 247 q 601 245 586 245 q 621 244 616 244 m 146 384 l 146 366 q 146 347 146 353 q 134 331 145 342 q 115 311 126 323 q 92 289 103 300 q 73 270 81 278 q 64 262 65 262 l 60 262 l 60 297 l 146 384 m 755 363 l 755 361 q 744 340 751 354 q 726 312 736 326 q 706 288 716 298 q 686 278 696 278 l 686 285 q 689 296 686 288 q 690 302 690 300 l 755 366 l 755 363 m 151 465 l 151 457 q 150 439 151 450 q 146 426 149 429 l 60 336 l 60 373 l 151 465 m 686 373 l 777 465 q 781 457 780 464 q 785 448 783 450 l 785 445 l 785 442 q 781 435 783 439 q 777 430 780 430 l 699 349 l 694 349 q 687 355 688 349 q 686 366 686 362 l 686 373 m 667 431 q 669 435 667 433 l 755 522 q 761 517 761 522 q 765 507 764 511 q 768 500 766 503 l 674 408 q 668 416 669 410 q 667 427 667 423 l 667 431 m 151 547 l 151 540 l 151 534 q 149 517 151 528 q 146 505 146 507 l 64 426 l 64 460 l 151 547 m 726 570 l 730 571 l 732 570 q 740 560 735 567 q 743 552 745 553 l 651 460 l 650 458 l 647 458 l 644 460 l 639 465 q 635 472 637 468 q 633 477 632 476 l 726 570 m 157 621 l 157 616 q 155 599 156 609 q 151 587 153 589 l 69 505 l 62 505 q 64 524 62 511 q 69 540 66 537 l 157 628 l 157 621 m 600 522 l 686 612 l 690 612 q 708 600 705 612 q 708 593 711 597 q 703 587 705 590 l 627 513 q 623 509 627 510 q 616 505 618 507 l 613 505 l 609 505 q 604 511 608 507 q 600 517 600 515 q 598 518 598 517 q 597 521 597 519 l 600 522 m 495 540 l 465 534 l 465 538 l 465 540 q 483 567 469 555 q 505 587 496 579 q 541 612 522 602 q 582 628 560 621 l 495 540 m 545 544 q 547 547 545 545 l 633 633 l 640 633 q 652 633 647 633 q 663 628 658 632 l 570 534 l 568 534 l 564 534 q 553 538 562 536 q 547 540 549 540 l 545 544 m 157 708 l 157 690 q 157 676 157 684 q 151 663 157 669 l 76 587 l 69 587 l 69 621 l 157 708 m 157 785 l 157 750 l 69 663 l 69 699 l 157 785 m 157 842 l 157 831 l 69 745 l 69 755 l 157 842 z "},"q":{"ha":1166,"x_min":45,"x_max":1109,"o":"m 807 -320 l 837 -324 l 743 -418 l 715 -414 l 807 -320 m 911 -324 l 825 -414 q 810 -417 819 -416 q 795 -418 802 -418 l 785 -418 l 872 -331 q 886 -326 875 -328 q 903 -324 897 -324 l 911 -324 m 998 -320 l 918 -401 q 903 -406 914 -406 q 886 -407 892 -407 l 876 -407 l 963 -320 l 998 -320 m 1062 -315 l 975 -401 l 959 -401 l 1046 -315 l 1062 -315 m 690 -354 l 777 -267 q 785 -275 784 -269 q 785 -285 785 -281 q 785 -296 785 -292 q 777 -308 784 -301 l 703 -384 l 700 -384 q 691 -377 692 -384 q 690 -365 690 -370 l 690 -354 m 777 -193 l 777 -228 l 690 -315 l 690 -279 l 777 -193 m 819 -297 q 811 -279 814 -289 q 807 -262 808 -270 l 807 -198 q 808 -120 807 -156 q 812 -42 808 -84 q 816 -20 812 -38 q 822 17 819 -3 q 828 54 825 37 q 831 75 831 71 l 831 79 l 831 81 q 820 71 829 79 q 802 56 811 64 q 785 40 793 47 q 773 30 776 33 q 679 -15 731 -5 q 575 -24 627 -24 q 422 9 490 -24 q 290 99 354 42 q 196 224 229 155 q 163 378 163 294 q 171 471 163 420 q 194 571 179 521 q 232 666 209 621 q 285 743 255 711 q 330 788 305 764 q 384 833 355 812 q 443 867 412 853 q 505 882 473 880 l 572 882 l 639 882 q 713 847 678 872 q 777 795 749 822 q 781 806 780 798 q 785 818 783 815 q 787 847 785 825 q 789 876 789 869 l 795 882 q 808 882 796 882 q 835 884 819 883 q 867 887 850 886 q 894 888 883 888 l 924 888 l 954 888 q 974 888 959 888 q 1005 886 989 887 q 1036 884 1021 884 q 1058 882 1051 883 q 1088 869 1074 878 q 1104 842 1101 861 q 1105 828 1104 838 q 1107 806 1105 818 q 1109 782 1108 793 q 1109 765 1109 770 l 1109 734 l 1109 701 q 1108 656 1109 690 q 1105 577 1107 623 q 1101 481 1103 532 q 1097 385 1099 430 q 1093 305 1095 339 q 1092 260 1092 271 q 1091 200 1092 241 q 1090 107 1090 159 q 1090 -1 1090 56 q 1090 -110 1090 -58 q 1091 -202 1090 -161 q 1092 -262 1092 -243 l 1086 -285 q 1035 -285 1061 -282 q 983 -292 1009 -288 q 932 -299 958 -296 q 880 -302 906 -302 q 850 -302 861 -302 q 819 -297 838 -301 m 785 -104 l 785 -138 l 699 -228 l 699 -193 l 785 -104 m 522 -52 l 557 -52 l 465 -146 l 457 -146 q 446 -146 452 -146 q 435 -138 441 -145 l 522 -52 m 789 -35 q 789 -50 789 -42 q 785 -64 788 -58 l 703 -146 l 703 -134 q 703 -119 703 -127 q 708 -104 704 -110 l 789 -24 l 789 -35 m 644 -47 l 564 -129 q 558 -132 563 -129 q 552 -134 553 -134 q 539 -136 551 -134 q 522 -138 528 -138 l 521 -138 l 517 -138 l 604 -52 q 617 -50 610 -52 q 629 -49 623 -49 q 639 -47 635 -49 l 643 -47 l 644 -47 m 465 -35 l 494 -42 l 401 -134 q 397 -136 400 -136 l 391 -136 q 380 -135 388 -136 q 372 -129 373 -134 l 465 -35 m 407 -12 l 430 -24 q 425 -33 429 -26 q 418 -42 420 -39 l 343 -117 l 336 -117 q 315 -104 323 -117 l 407 -12 m 750 -18 l 750 -24 l 720 -52 l 719 -53 q 718 -54 719 -54 l 715 -52 q 712 -50 713 -52 q 708 -47 711 -49 q 699 -56 705 -50 q 686 -67 693 -61 q 673 -79 680 -73 q 663 -87 666 -85 q 646 -99 659 -90 q 627 -111 632 -109 l 625 -111 l 621 -111 l 699 -35 l 750 -18 m 354 11 l 355 11 q 358 12 355 11 q 369 8 363 12 q 378 0 374 4 l 285 -94 l 283 -94 q 262 -81 269 -94 l 354 11 m 309 47 l 311 47 l 315 47 q 320 41 316 45 q 327 35 324 37 l 327 31 l 327 30 l 233 -64 l 216 -47 l 309 47 m 174 -14 l 175 -12 l 267 81 l 271 81 l 273 81 q 279 75 275 80 q 285 69 283 71 l 285 66 l 285 64 l 193 -30 q 184 -26 191 -31 q 175 -18 178 -22 l 174 -16 l 174 -14 m 134 30 l 228 122 l 229 122 l 233 122 q 239 116 235 119 q 244 110 243 113 l 244 107 l 244 104 q 241 98 243 103 q 237 92 240 94 l 163 18 q 158 14 163 16 q 151 11 153 12 l 149 11 l 146 11 q 140 16 144 12 q 134 23 136 20 l 134 26 l 134 30 m 193 161 l 194 163 q 195 162 195 163 q 197 161 195 161 l 198 161 q 204 157 199 161 q 210 151 209 153 l 210 148 l 210 144 l 117 52 l 113 52 l 111 52 q 103 62 107 56 q 99 69 99 68 l 193 161 m 75 125 q 76 126 75 126 l 163 216 l 167 216 l 168 216 q 172 212 170 213 q 175 209 174 210 q 179 202 176 208 q 180 198 180 199 l 87 104 l 85 104 q 77 111 79 104 q 75 122 75 118 l 75 125 m 57 178 q 58 183 57 182 q 60 186 58 184 l 151 278 l 157 250 l 64 156 q 57 178 57 167 m 430 395 q 431 365 430 380 q 441 336 433 350 q 447 328 442 335 q 453 320 452 321 q 456 311 453 317 q 458 302 458 304 q 529 242 483 263 q 620 221 575 221 q 653 220 637 221 q 686 225 669 220 q 740 262 718 236 q 776 323 762 289 q 795 393 789 357 q 802 458 802 429 q 793 511 802 483 q 768 557 784 538 q 701 618 736 591 q 616 644 665 644 q 574 640 594 644 q 534 621 553 636 l 483 570 q 477 562 481 568 q 471 552 472 555 q 450 513 463 537 q 435 471 438 488 q 435 460 435 469 q 433 441 434 452 q 431 418 431 430 q 430 401 430 407 l 430 395 m 45 244 q 46 251 45 248 q 47 255 46 254 l 134 342 l 142 342 q 142 322 142 335 q 134 302 141 309 l 60 225 l 56 225 q 46 232 47 225 q 45 244 45 239 m 750 330 l 750 328 l 750 324 q 723 280 742 301 q 681 250 704 259 l 681 260 l 750 330 m 141 423 l 141 411 q 140 397 141 406 q 134 384 140 388 l 52 302 l 52 336 l 141 423 m 777 433 l 777 429 q 775 414 777 425 q 773 401 773 403 q 770 395 773 399 q 768 389 768 391 l 686 308 l 686 311 l 686 312 q 687 321 686 316 q 689 334 688 327 q 690 347 690 339 l 777 435 l 777 433 m 674 411 l 768 505 q 772 493 770 498 q 773 481 773 488 l 773 476 l 681 384 q 674 407 674 393 l 674 411 m 151 507 q 150 490 151 500 q 146 476 149 480 l 64 395 l 64 401 q 66 421 64 408 q 76 441 69 434 l 151 515 l 151 507 m 644 458 l 738 552 q 750 533 750 544 l 750 528 l 663 441 l 659 441 l 656 441 q 650 446 655 442 q 644 453 646 450 l 644 454 l 644 458 m 604 498 l 690 587 l 696 587 q 708 585 701 587 q 715 575 715 582 q 710 566 715 572 q 703 557 705 560 q 688 543 699 553 q 666 519 678 532 q 642 496 654 507 q 627 481 631 486 l 621 481 q 609 486 614 481 q 604 496 604 490 l 604 498 m 168 575 l 99 505 l 99 510 q 102 519 99 511 q 111 537 106 528 q 120 556 115 547 q 129 570 125 566 q 140 581 132 572 q 157 599 148 590 q 174 616 165 608 q 186 627 183 624 l 168 575 m 644 614 l 650 616 q 669 604 662 616 l 575 510 l 552 522 l 644 614 m 517 533 l 488 533 q 609 627 529 604 l 517 533 z "},"r":{"ha":906,"x_min":50,"x_max":872,"o":"m 203 -35 q 214 -37 206 -35 q 225 -42 222 -39 l 138 -129 l 104 -129 l 191 -42 q 197 -37 193 -39 q 203 -35 201 -35 m 308 -42 l 221 -129 l 186 -129 l 273 -42 l 308 -42 m 354 -35 l 389 -35 l 389 -42 l 315 -117 q 291 -127 305 -123 q 267 -130 277 -130 l 267 -123 l 354 -35 m 168 11 q 174 4 174 8 q 175 -4 175 0 q 174 -14 175 -9 q 168 -24 174 -19 l 81 -111 l 75 -81 l 168 11 m 168 92 l 168 80 q 151 35 168 53 q 139 22 148 31 q 121 4 130 14 q 104 -14 113 -5 q 92 -24 95 -22 q 87 -27 91 -24 q 81 -30 83 -30 l 81 5 l 168 92 m 163 800 q 165 818 163 804 q 168 836 167 831 q 171 839 168 837 q 174 842 174 841 q 228 853 201 852 q 281 854 255 854 q 296 854 286 854 q 314 853 305 853 q 330 852 323 853 q 336 852 336 852 q 359 850 340 852 q 384 848 377 849 q 406 830 407 844 q 404 795 404 817 l 411 795 q 434 805 418 798 q 469 821 450 812 q 505 838 488 830 q 528 848 521 845 q 581 861 555 859 q 633 864 606 864 q 696 857 663 864 q 761 837 730 850 q 818 803 792 823 q 860 754 844 783 q 869 739 867 743 q 872 726 872 735 q 859 698 872 711 q 837 678 845 685 q 823 667 834 675 q 797 647 811 658 q 769 625 783 636 q 749 609 755 614 q 720 591 734 598 q 688 585 707 585 q 652 590 669 585 q 620 603 636 595 q 587 616 604 610 q 551 621 570 621 q 536 621 543 621 q 522 614 529 621 q 464 549 484 582 q 434 481 444 517 q 423 405 425 445 q 422 316 422 365 q 422 296 422 308 q 422 271 422 283 q 423 248 423 258 q 423 237 423 239 q 428 196 425 229 q 435 124 431 163 q 443 52 439 85 q 446 11 446 19 l 446 1 q 446 -7 446 -1 q 441 -12 446 -12 l 203 -12 q 198 -7 198 -12 q 194 14 197 -1 q 191 35 191 28 l 191 161 q 191 202 191 171 q 189 274 190 233 q 186 361 187 315 q 183 450 184 408 q 181 522 182 491 q 180 563 180 552 l 180 585 q 178 604 180 589 q 174 635 176 618 q 170 667 172 652 q 168 684 168 681 l 168 765 q 168 772 168 766 q 165 783 167 777 q 163 794 164 789 q 163 800 163 799 m 75 75 l 168 168 l 168 134 l 81 45 q 75 54 75 47 q 75 64 75 61 l 75 75 m 163 243 l 163 209 l 75 122 l 75 156 l 163 243 m 163 320 l 163 283 l 75 197 l 75 231 l 163 320 m 156 395 q 162 384 161 388 q 163 373 163 380 q 161 360 163 363 q 151 347 159 357 q 130 326 142 339 q 104 301 117 313 q 83 281 92 289 q 75 273 75 273 l 69 273 l 69 308 l 156 395 m 156 469 l 156 434 l 69 347 l 69 382 l 156 469 m 64 452 q 66 458 64 454 q 69 464 68 461 l 151 545 l 156 545 l 156 515 l 69 429 q 66 437 68 430 q 64 446 64 444 l 64 450 l 64 452 m 639 563 l 646 563 q 660 562 654 563 q 674 557 666 562 l 587 469 l 552 469 l 552 476 l 639 563 m 500 498 l 587 585 q 590 586 589 585 q 592 587 591 586 q 594 587 593 587 q 614 581 604 587 l 522 488 q 521 487 522 487 q 517 486 519 486 q 506 488 514 486 q 498 496 498 490 l 500 498 m 57 528 l 151 620 l 151 585 l 64 498 q 61 510 62 500 q 57 522 60 519 l 57 526 l 57 528 m 552 597 l 476 522 q 488 540 479 526 q 500 557 498 553 q 519 581 507 566 q 545 597 530 597 l 552 597 m 138 690 q 144 679 142 684 q 146 667 146 674 q 144 656 146 659 q 134 644 141 652 q 115 625 126 636 q 92 602 103 613 q 73 583 81 591 q 64 575 65 575 l 52 568 l 52 575 l 52 581 q 56 597 54 587 q 57 609 57 608 l 138 690 m 50 674 q 52 678 50 675 l 146 770 l 146 736 l 57 650 q 51 659 52 651 q 50 669 50 666 l 50 674 z "},"s":{"ha":848,"x_min":45,"x_max":798,"o":"m 513 -45 l 513 -52 l 430 -134 q 417 -139 423 -140 q 404 -138 411 -138 l 389 -138 l 483 -45 l 513 -45 m 414 -35 l 415 -35 l 418 -35 q 429 -37 420 -35 q 441 -39 438 -38 l 349 -134 l 342 -134 q 330 -134 335 -134 q 320 -126 326 -133 l 414 -35 m 604 -39 q 593 -52 601 -43 q 576 -69 585 -60 q 559 -87 567 -79 q 547 -99 551 -96 q 512 -121 530 -114 q 471 -134 494 -127 l 557 -45 q 570 -43 559 -45 q 587 -39 581 -42 l 595 -39 l 604 -39 m 354 -18 q 362 -18 355 -16 q 372 -23 369 -20 q 375 -25 373 -23 q 378 -27 377 -27 l 290 -117 l 281 -117 q 271 -117 278 -117 q 262 -110 264 -117 l 354 -18 m 290 0 q 300 -1 292 1 q 315 -5 309 -4 l 317 -8 l 320 -11 l 233 -99 l 222 -99 q 210 -98 216 -99 q 198 -92 203 -98 l 290 0 m 237 24 l 243 24 q 255 23 248 24 q 262 16 262 22 l 262 12 l 168 -81 l 146 -69 l 237 24 m 193 60 l 194 60 l 198 60 q 204 53 199 57 q 210 47 209 49 l 210 43 l 210 42 l 117 -52 l 99 -35 l 193 60 m 163 149 q 163 163 163 157 q 168 175 163 168 q 176 184 170 176 q 191 199 183 191 q 205 216 198 208 q 216 228 212 224 l 255 267 q 267 273 258 269 q 279 279 275 278 l 285 279 l 290 279 q 384 211 330 241 q 495 180 438 180 q 509 184 500 180 q 526 193 518 187 q 541 206 534 199 q 547 221 547 213 q 542 250 547 232 q 529 279 537 269 l 465 343 q 444 357 461 346 q 407 381 426 369 q 370 404 388 393 q 349 418 353 415 q 326 435 343 422 q 302 453 308 449 q 293 461 300 454 q 285 471 286 468 q 273 486 282 473 q 254 513 264 498 q 232 542 243 528 q 216 564 221 556 q 191 620 197 591 q 186 681 186 648 q 207 785 186 742 q 264 855 228 829 q 351 894 301 882 q 457 906 400 906 q 621 875 552 906 q 755 773 690 844 q 768 756 760 766 q 777 743 777 746 q 780 739 780 743 q 780 732 780 734 q 780 726 780 731 q 777 720 780 722 q 768 710 774 718 q 755 694 762 703 q 741 679 747 686 q 732 669 735 671 q 713 649 726 662 q 686 623 700 636 q 658 601 671 610 q 635 591 644 591 l 627 591 q 608 604 621 595 q 581 623 595 613 q 553 640 566 632 q 534 651 540 648 q 504 667 519 659 q 471 674 488 674 q 448 665 456 674 q 441 644 441 655 q 441 629 441 635 q 448 616 441 623 q 456 606 449 613 q 470 593 463 600 q 484 579 477 586 q 495 570 491 572 q 550 538 515 551 q 609 513 585 525 q 685 458 652 490 q 750 389 718 426 q 798 266 798 336 q 790 195 798 227 q 768 135 783 163 q 731 81 753 107 q 681 30 709 56 q 600 -12 646 -1 q 507 -23 553 -23 q 424 -12 465 -23 q 343 12 382 0 q 168 123 239 43 q 163 136 163 130 q 163 149 163 141 m 151 94 l 155 94 l 157 94 q 164 87 160 92 q 168 81 168 83 q 170 79 168 81 l 168 76 l 76 -18 l 60 0 l 151 94 m 134 146 q 135 140 134 144 q 136 134 136 136 q 135 122 136 127 q 129 111 134 117 l 52 35 l 45 35 q 52 60 45 46 q 92 103 69 80 q 134 146 114 126 m 435 221 l 495 279 l 513 262 l 458 210 l 457 210 l 453 210 q 444 213 450 210 q 435 216 438 216 l 435 218 l 435 221 m 522 228 q 514 218 521 225 q 505 210 507 212 l 503 209 q 500 210 502 209 q 508 218 502 212 q 517 228 514 225 l 521 228 l 522 228 m 384 250 l 453 320 q 458 319 453 321 q 465 315 463 316 q 468 311 465 313 q 471 309 469 309 l 471 305 l 471 302 l 401 233 q 396 235 399 233 q 392 236 393 236 q 389 237 391 236 q 387 241 389 240 q 384 244 384 243 l 384 247 l 384 250 m 336 279 l 407 349 l 410 349 l 414 349 q 421 343 415 347 q 430 336 427 339 l 354 262 l 353 260 l 350 260 q 349 262 349 260 q 343 267 347 262 q 336 273 339 271 l 336 277 l 336 279 m 221 320 l 315 414 l 331 396 l 237 302 l 236 302 l 233 302 q 227 308 231 304 q 221 315 222 312 l 221 317 l 221 320 m 354 378 l 358 378 q 378 366 369 378 q 372 357 377 363 q 366 349 368 351 q 354 336 362 343 q 339 321 346 328 q 326 308 332 313 q 320 302 320 302 l 285 302 l 285 309 l 354 378 m 175 354 l 267 448 l 285 430 l 193 336 l 190 336 l 186 336 q 180 343 184 339 q 175 349 175 347 q 174 350 174 349 l 174 353 l 175 354 m 233 488 q 236 490 233 488 l 237 488 q 241 486 240 488 q 244 483 243 484 q 250 471 250 475 l 157 378 l 155 377 l 151 378 q 143 388 148 381 q 141 396 138 395 l 233 488 m 198 534 l 201 534 q 216 517 216 534 l 216 513 l 129 423 l 125 423 l 122 423 q 113 433 119 426 q 104 441 107 439 l 198 534 m 81 495 l 168 582 l 172 582 q 180 575 179 582 q 180 563 180 568 l 180 557 l 94 471 l 91 471 q 83 477 84 471 q 81 486 81 483 l 81 495 m 157 651 q 163 627 163 640 l 163 621 l 69 529 l 69 564 l 157 651 m 604 547 q 614 559 610 555 q 627 564 618 564 l 633 564 l 609 540 l 604 547 m 547 570 q 557 581 548 572 q 570 591 567 590 q 571 593 571 591 q 572 594 571 593 q 585 589 576 594 q 594 578 594 585 q 593 576 594 576 q 591 575 591 576 q 580 565 585 567 q 568 563 575 563 q 557 564 562 563 q 547 570 552 564 m 522 621 l 526 621 q 547 609 537 621 q 535 598 544 606 q 522 587 526 590 l 517 587 q 507 589 510 587 q 500 600 503 591 l 522 621 m 157 690 l 76 609 q 75 611 76 610 q 75 614 75 612 l 75 618 q 77 639 75 628 q 87 656 80 650 l 163 732 l 157 690 m 496 646 q 496 644 496 644 q 495 642 495 643 l 495 639 q 486 630 492 636 q 476 621 479 624 q 461 646 461 629 l 496 646 z "},"t":{"ha":713,"x_min":39,"x_max":674,"o":"m 302 -27 l 330 -27 l 330 -35 l 243 -122 l 213 -122 l 213 -117 l 302 -27 m 407 -35 l 320 -122 l 283 -122 l 372 -35 l 407 -35 m 488 -35 l 399 -122 l 365 -122 l 452 -35 l 488 -35 m 266 18 q 270 3 267 15 q 273 -11 273 -8 q 270 -16 273 -12 q 266 -23 267 -20 l 191 -99 l 179 -104 l 179 -91 q 179 -76 179 -83 q 186 -64 179 -69 l 266 18 m 273 99 l 273 64 l 186 -23 l 186 12 l 273 99 m 296 7 q 296 308 298 157 q 283 609 294 458 q 267 611 279 610 q 241 613 255 612 q 214 615 227 614 q 197 616 202 616 q 182 618 194 616 q 168 627 171 620 q 158 713 160 670 q 156 800 156 757 q 159 824 156 815 q 174 842 161 833 q 234 848 202 845 q 296 854 266 850 l 296 884 q 292 968 296 925 q 288 1054 288 1010 q 288 1088 288 1069 q 296 1122 289 1107 q 375 1127 338 1127 q 454 1127 412 1127 l 510 1127 l 522 1122 q 525 1103 522 1120 q 528 1074 528 1085 q 530 1030 528 1062 q 534 962 532 998 q 538 893 536 925 q 540 849 540 861 l 674 849 l 674 627 l 671 624 q 669 623 670 623 q 667 621 667 623 q 612 608 643 610 q 557 604 581 606 l 557 117 q 556 83 557 103 q 554 45 555 64 q 552 14 553 27 q 551 0 551 0 l 540 -5 l 336 -5 q 319 -3 332 -5 q 302 0 307 -1 q 296 7 296 3 m 273 180 l 273 146 l 186 60 l 186 94 l 273 180 m 273 255 l 273 221 l 186 134 l 186 168 l 273 255 m 266 331 q 273 324 273 330 q 273 315 273 319 q 272 302 273 308 q 266 290 271 296 l 191 216 l 179 216 l 179 244 l 266 331 m 266 407 l 266 372 l 179 285 l 179 320 l 266 407 m 260 483 q 267 474 267 481 q 267 464 267 467 q 267 460 267 461 q 266 457 266 460 l 266 453 l 174 361 l 174 396 l 260 483 m 260 557 l 260 522 l 174 435 l 174 471 l 260 557 m 57 513 l 151 604 l 174 591 l 80 500 l 79 500 l 75 500 q 66 503 72 502 q 57 505 60 505 l 57 509 l 57 513 m 248 587 q 234 572 244 583 q 212 549 224 562 q 189 527 199 537 q 174 513 178 517 q 157 500 163 502 q 138 498 152 498 q 130 499 136 498 q 122 500 123 500 l 209 587 l 248 587 m 45 582 l 134 669 l 138 669 l 138 639 l 52 552 q 45 561 45 553 q 45 571 45 568 l 45 582 m 134 743 l 134 708 l 45 621 l 45 656 l 134 743 m 127 793 q 128 791 127 792 q 129 789 129 791 q 125 779 129 783 q 114 768 121 774 q 103 755 111 764 q 86 737 95 746 q 69 720 77 728 q 57 708 61 712 q 49 703 56 707 q 39 699 42 699 l 39 700 l 39 703 q 43 709 42 705 q 45 715 45 713 l 126 795 l 127 793 m 266 959 q 270 945 267 956 q 273 929 273 933 q 270 924 273 928 q 266 918 267 920 q 257 909 263 916 q 244 895 251 902 q 231 881 237 887 q 221 872 224 875 q 212 868 218 869 q 203 867 205 867 l 199 867 l 197 867 q 188 868 194 867 q 179 872 182 869 l 266 959 m 273 872 l 260 872 l 273 884 l 273 872 m 266 1035 q 267 1027 266 1032 q 267 1019 267 1021 q 267 1005 267 1012 q 260 993 266 998 l 174 906 l 174 941 l 266 1035 m 266 1092 l 266 1080 l 179 993 l 179 1005 l 266 1092 z "},"u":{"ha":1046,"x_min":52,"x_max":986,"o":"m 446 -27 l 481 -27 l 389 -122 l 382 -122 q 370 -121 376 -122 q 359 -117 365 -121 l 446 -27 m 557 -35 l 471 -122 l 435 -122 l 522 -35 l 557 -35 m 632 -35 l 632 -39 l 557 -117 q 543 -122 551 -122 q 528 -122 536 -122 l 510 -122 l 597 -35 l 632 -35 m 308 -92 l 401 0 q 406 -1 401 1 q 411 -5 410 -4 q 415 -8 414 -5 q 418 -11 416 -11 l 418 -14 l 418 -18 l 331 -104 l 327 -104 q 315 -103 321 -104 q 308 -95 308 -102 l 308 -92 m 738 -11 l 669 -81 q 658 -86 667 -81 q 644 -92 648 -91 q 627 -99 640 -95 q 609 -104 613 -103 l 686 -27 q 690 -26 688 -27 q 696 -23 696 -23 q 715 -16 701 -20 q 731 -11 728 -12 l 734 -11 l 738 -11 m 255 -64 l 349 30 l 354 27 q 359 24 359 24 q 366 19 365 20 q 366 12 366 18 l 366 7 q 351 -9 362 3 q 328 -33 340 -20 q 305 -55 316 -45 q 290 -69 294 -65 q 281 -77 288 -72 q 273 -81 274 -81 q 264 -77 271 -81 q 255 -69 258 -72 l 255 -66 l 255 -64 m 302 60 l 304 60 l 308 60 q 317 53 311 57 q 324 47 323 49 l 233 -47 l 228 -47 q 209 -35 214 -47 l 302 60 m 168 7 l 260 99 l 278 81 l 186 -11 l 184 -12 l 182 -12 l 180 -11 q 174 -6 178 -11 q 168 0 170 -1 l 168 4 l 168 7 m 168 830 q 186 873 168 867 q 233 879 203 879 q 249 878 239 879 q 260 876 259 876 q 303 873 277 875 q 355 868 330 871 q 399 863 381 865 q 418 860 418 860 l 423 854 l 423 656 q 424 618 423 644 q 426 565 425 593 q 428 513 427 537 q 429 483 429 490 q 431 467 429 479 q 435 439 433 454 q 438 408 437 423 q 441 384 439 392 q 466 306 448 338 q 528 255 484 274 q 545 250 532 254 q 563 244 559 247 l 566 244 q 662 283 631 244 q 703 384 693 323 l 703 496 q 702 611 703 560 q 696 726 701 662 q 694 743 696 730 q 691 772 693 757 q 688 802 689 788 q 686 819 686 815 q 688 844 686 823 q 690 872 689 864 q 693 878 690 873 q 696 884 696 882 q 734 889 719 890 q 773 888 750 888 l 812 888 q 844 888 822 888 q 892 886 867 887 q 939 885 917 886 q 968 884 960 884 q 981 869 977 879 q 985 847 985 859 q 986 824 986 836 q 986 804 986 812 q 977 597 986 699 q 951 389 968 495 q 947 370 951 387 q 940 330 944 353 q 931 286 936 308 q 924 250 926 263 q 890 161 911 201 q 837 81 869 121 q 767 30 804 45 q 686 0 730 15 q 671 -3 680 -1 q 662 -5 663 -5 l 494 -5 q 471 -1 487 -5 q 446 7 454 3 q 340 68 389 34 q 250 151 292 103 q 231 184 239 164 q 221 221 224 205 q 210 265 217 237 q 197 321 203 293 q 186 370 191 349 q 180 396 180 392 q 179 409 180 399 q 177 431 178 419 q 175 452 176 442 q 174 465 174 463 q 172 488 174 471 q 168 513 170 506 l 168 830 m 132 42 q 133 45 132 42 q 134 47 133 46 l 221 134 l 224 134 l 225 134 q 232 128 228 132 q 237 122 236 125 l 237 119 l 237 117 l 146 24 q 132 42 132 28 m 110 104 l 198 193 l 199 193 q 208 186 206 193 q 210 175 210 179 q 203 157 210 164 l 126 81 l 117 76 q 111 86 111 81 q 110 98 110 91 l 110 104 m 92 163 l 186 255 q 189 244 187 252 q 191 233 191 236 l 191 229 l 191 228 l 99 134 q 92 157 92 144 l 92 163 m 168 320 q 175 310 175 317 q 175 300 175 302 q 174 297 175 298 q 174 294 174 296 l 174 290 l 87 203 l 81 203 l 81 233 l 168 320 m 64 290 l 156 384 q 159 372 157 381 q 163 361 161 363 l 163 358 l 163 354 l 69 262 q 64 274 66 269 q 62 286 62 279 l 64 290 m 669 346 l 669 343 q 642 297 658 321 q 597 273 625 273 l 591 273 l 669 349 l 669 346 m 678 435 l 678 401 l 591 315 l 591 349 l 678 435 m 57 361 q 61 368 60 363 q 64 372 62 372 l 151 458 l 151 441 q 150 422 151 427 q 138 407 149 418 q 124 392 134 403 q 102 369 114 381 q 79 346 90 357 q 64 331 68 335 q 61 342 62 334 q 57 354 60 351 l 57 358 l 57 361 m 678 517 l 678 483 l 591 396 l 591 430 l 678 517 m 138 522 q 142 511 141 519 q 146 500 144 503 l 146 496 l 146 495 l 52 401 l 52 435 l 138 522 m 678 591 l 678 557 l 591 471 l 587 500 l 678 591 m 138 604 l 138 570 l 52 483 l 52 517 l 138 604 m 674 669 l 684 669 q 675 635 684 651 q 654 606 666 620 q 628 579 642 591 q 604 557 614 567 q 595 551 601 556 q 587 547 589 547 l 587 582 l 674 669 m 138 681 l 138 644 l 52 557 l 52 591 l 138 681 m 669 738 q 673 728 673 732 q 674 718 674 723 l 674 708 l 587 621 l 581 621 l 581 651 l 669 738 m 138 761 l 138 720 l 52 633 l 52 674 l 138 761 m 570 703 q 571 715 570 707 q 575 726 572 724 l 656 807 l 662 807 l 662 777 l 575 690 q 571 697 572 693 q 570 703 570 701 m 146 830 l 138 802 l 57 720 l 57 732 q 58 745 57 739 q 64 755 58 750 l 138 830 l 146 830 z "},"v":{"ha":1156,"x_min":39,"x_max":1109,"o":"m 429 -122 l 522 -30 l 525 -27 l 526 -28 q 528 -30 526 -30 q 534 -34 529 -30 q 540 -39 538 -38 l 540 -43 l 540 -47 l 452 -134 l 445 -134 q 434 -133 439 -134 q 429 -125 429 -132 l 429 -122 m 674 -35 l 675 -35 l 678 -35 q 690 -37 681 -35 q 701 -39 699 -39 q 697 -50 701 -42 q 690 -60 693 -57 q 679 -71 688 -62 q 661 -87 670 -79 q 644 -104 652 -96 q 632 -117 635 -113 q 620 -127 628 -121 q 609 -134 612 -134 q 594 -133 605 -136 q 581 -129 583 -130 l 674 -35 m 632 -35 l 545 -122 q 533 -129 540 -129 q 519 -129 526 -129 l 505 -129 l 597 -35 l 632 -35 m 404 -79 q 406 -73 404 -76 q 407 -69 406 -72 l 494 18 l 496 18 q 503 11 502 18 q 505 0 505 4 l 505 -5 l 416 -94 l 415 -94 q 406 -87 408 -94 q 404 -79 404 -81 m 377 -18 l 469 75 q 483 52 483 65 q 482 50 483 50 q 481 49 481 50 l 481 47 l 395 -39 q 393 -41 395 -41 q 391 -42 392 -42 q 381 -33 385 -42 q 377 -19 377 -24 l 377 -18 m 156 818 q 155 824 156 819 q 155 830 155 829 q 175 851 155 848 q 209 854 195 854 l 411 854 q 428 842 418 854 q 448 814 438 830 q 465 782 457 798 q 476 761 472 766 q 488 734 480 753 q 505 694 496 715 q 522 656 514 674 q 533 632 530 639 q 576 536 556 585 q 632 446 597 488 q 673 531 655 488 q 713 614 690 574 q 723 633 715 618 q 740 663 731 647 q 756 692 749 678 q 765 708 764 705 q 775 728 768 713 q 791 759 783 742 q 806 791 799 776 q 818 812 814 806 q 831 847 825 827 q 857 867 838 867 q 861 866 859 867 q 865 865 863 865 q 869 864 868 864 q 890 862 873 864 q 911 860 907 860 q 947 858 921 859 q 1004 857 974 857 q 1060 855 1034 856 q 1097 854 1086 854 q 1109 843 1108 852 q 1109 826 1109 834 q 1095 748 1109 787 q 1067 674 1081 709 q 1059 652 1065 667 q 1048 621 1054 637 q 1036 590 1042 605 q 1028 570 1029 575 q 992 498 1017 549 q 939 389 967 446 q 886 280 911 331 q 852 209 861 229 q 845 191 850 205 q 833 162 840 178 q 820 133 826 146 q 812 117 814 119 q 806 104 811 114 q 795 84 800 95 q 784 64 789 73 q 777 52 779 54 q 772 42 776 50 q 763 24 768 34 q 754 5 758 14 q 749 -5 750 -4 q 743 -12 746 -7 q 736 -18 739 -16 l 734 -18 q 680 -14 707 -18 q 625 -11 652 -11 q 602 -12 617 -11 q 585 -12 587 -12 q 574 -15 583 -12 q 563 -18 564 -18 l 556 -18 q 535 0 544 -18 q 522 30 526 18 q 490 90 507 61 q 458 151 473 119 q 372 330 416 241 q 290 510 328 419 q 278 542 288 517 q 258 595 269 567 q 237 648 247 624 q 225 678 228 673 q 213 707 222 686 q 192 749 203 727 q 170 791 180 772 q 156 818 160 811 m 347 30 l 441 122 q 449 113 445 119 q 453 100 453 106 l 452 99 l 359 5 q 347 26 347 15 l 347 30 m 324 87 l 416 180 l 429 156 l 336 64 l 334 62 q 326 70 327 62 q 324 81 324 77 l 324 87 m 302 138 l 395 233 l 407 209 l 312 117 l 311 114 q 309 115 309 114 l 308 117 q 305 123 307 119 q 302 134 302 132 l 302 137 l 302 138 m 365 285 q 376 276 374 281 q 378 264 378 271 q 378 260 378 262 q 377 258 377 259 l 377 255 l 285 165 l 273 191 l 365 285 m 248 243 l 336 331 l 339 331 q 347 325 346 331 q 349 312 349 319 q 348 311 349 311 q 347 309 347 311 l 347 308 l 260 221 l 256 221 q 249 226 250 221 q 248 236 248 231 l 248 243 m 221 296 l 312 389 q 321 380 319 387 q 324 368 324 373 l 324 366 l 231 273 q 222 281 227 275 q 218 293 218 288 l 221 296 m 197 349 l 290 441 q 298 432 294 438 q 302 420 302 426 l 302 418 l 209 324 q 197 346 197 332 l 197 349 m 174 407 l 266 500 q 273 489 269 498 q 278 476 278 480 q 276 469 278 473 q 273 464 274 465 l 186 377 q 174 401 174 385 l 174 407 m 243 552 q 246 549 244 551 q 248 545 248 547 q 253 536 251 543 q 255 528 255 529 l 161 435 l 159 438 q 156 441 156 441 q 152 452 155 445 q 151 458 149 458 l 243 552 m 132 517 q 133 519 132 518 q 134 522 133 521 l 221 609 l 222 609 q 231 602 229 609 q 233 591 233 595 q 233 590 233 590 q 232 589 232 590 l 231 587 l 138 494 q 132 515 132 505 l 132 517 m 110 575 l 203 669 q 208 658 208 663 q 209 646 209 652 l 209 639 l 122 552 l 118 551 l 114 552 q 113 559 114 555 q 110 570 110 567 l 110 572 l 110 575 m 85 629 q 87 632 85 631 l 174 720 l 178 720 q 185 712 184 720 q 186 700 186 704 l 186 690 l 110 614 q 101 608 107 613 q 92 604 95 604 q 85 625 85 613 l 85 629 m 57 678 l 151 773 q 159 763 155 769 q 163 751 163 757 q 161 749 163 750 l 69 656 q 60 665 64 659 q 57 677 57 671 l 57 678 m 126 812 q 130 810 129 812 q 134 807 132 807 l 134 804 l 134 800 l 39 708 l 39 726 l 126 812 z "},"w":{"ha":1474,"x_min":45,"x_max":1424,"o":"m 320 -117 l 414 -23 l 430 -39 l 343 -129 q 338 -132 342 -130 q 331 -134 334 -134 q 320 -122 320 -134 l 320 -117 m 505 -39 l 418 -129 l 384 -129 l 471 -39 l 505 -39 m 587 -39 l 505 -122 q 493 -129 499 -129 q 479 -129 487 -129 l 465 -129 l 552 -39 l 587 -39 m 894 -12 l 918 -23 l 825 -117 l 818 -117 q 806 -116 811 -117 q 795 -111 800 -115 l 894 -12 m 993 -23 l 993 -30 l 966 -57 l 924 -99 q 907 -111 913 -110 q 888 -111 902 -111 l 872 -111 l 959 -23 l 993 -23 m 1080 -18 l 998 -99 q 986 -105 993 -104 q 972 -106 979 -106 q 966 -105 971 -106 q 959 -104 960 -104 l 1046 -18 l 1080 -18 m 296 -61 q 297 -60 296 -60 l 389 35 q 396 11 396 23 q 393 0 396 4 q 384 -12 391 -4 l 309 -87 q 307 -88 308 -88 l 305 -88 q 297 -79 298 -88 q 296 -64 296 -69 l 296 -61 m 777 -47 l 867 39 q 872 31 872 38 q 872 20 872 24 l 872 12 l 785 -76 q 778 -67 779 -75 q 777 -57 777 -60 l 777 -47 m 372 92 q 378 84 378 91 q 378 73 378 77 l 378 64 l 290 -23 l 288 -20 q 285 -18 285 -18 q 281 -7 283 -14 q 279 0 278 0 l 372 92 m 755 5 l 849 99 q 854 88 853 94 q 854 76 854 83 l 854 69 l 768 -18 l 764 -18 l 761 -18 q 759 -9 761 -16 q 755 0 757 -3 l 755 4 l 755 5 m 163 799 q 175 818 163 811 q 262 834 213 826 q 353 842 311 842 q 374 838 363 842 q 389 825 384 834 q 399 800 392 818 q 415 760 407 781 q 431 721 423 739 q 441 696 438 703 q 444 691 442 694 q 448 686 446 688 q 460 656 456 670 q 471 627 464 642 q 479 608 472 623 q 493 577 486 594 q 507 545 500 560 q 517 522 514 529 q 524 508 519 519 q 534 494 528 496 q 541 503 537 496 q 547 510 545 509 q 559 537 551 519 q 578 573 568 555 q 595 607 587 591 q 604 627 602 623 q 613 650 605 631 q 630 690 621 669 q 646 731 639 712 q 656 755 654 750 q 665 772 658 758 q 674 789 671 787 q 677 799 675 792 q 681 807 678 806 q 701 819 685 815 q 737 824 718 823 q 777 825 757 825 q 806 825 796 825 q 833 825 819 825 q 860 818 848 825 q 876 795 873 811 q 888 766 879 789 q 907 717 897 743 q 925 667 917 690 q 936 639 933 644 q 940 626 936 636 q 949 604 944 616 q 959 583 955 593 q 963 570 963 572 q 987 503 977 538 q 1017 435 998 467 q 1019 432 1017 434 q 1023 429 1021 430 q 1026 435 1024 430 q 1028 441 1028 439 q 1042 472 1034 453 q 1059 509 1051 491 q 1074 542 1067 528 q 1080 557 1080 556 q 1087 578 1081 562 q 1101 615 1093 595 q 1114 652 1108 635 q 1122 674 1119 670 q 1125 684 1122 677 q 1132 701 1128 692 q 1139 719 1135 711 q 1145 731 1142 727 q 1164 781 1153 754 q 1191 830 1176 808 q 1192 831 1192 830 q 1194 834 1192 833 l 1196 837 l 1313 837 q 1343 831 1325 833 q 1380 827 1362 830 q 1411 814 1398 823 q 1424 788 1424 806 q 1417 739 1424 764 q 1400 690 1411 713 l 1166 129 l 1122 30 q 1111 18 1119 24 q 1097 12 1103 12 q 1076 9 1093 11 q 1053 5 1058 7 q 1036 5 1051 5 q 1002 3 1021 4 q 962 1 982 3 q 929 0 941 0 l 925 0 q 909 10 914 0 q 901 30 903 20 q 888 68 897 41 q 869 127 879 96 q 849 186 859 159 q 837 225 840 214 q 813 309 823 269 q 785 389 803 349 q 779 378 783 387 q 773 366 774 369 q 766 348 772 362 q 755 318 761 334 q 745 289 750 302 q 738 273 739 275 q 728 252 735 269 q 714 218 722 236 q 699 183 707 199 q 690 163 692 167 q 684 142 689 159 q 671 106 678 125 q 659 72 665 88 q 651 52 652 56 q 640 28 648 46 q 627 5 631 11 q 618 -5 625 3 q 604 -12 610 -12 l 435 -12 q 432 -4 435 -12 q 425 14 429 4 q 417 34 420 24 q 414 47 414 43 q 374 166 396 109 q 331 285 353 224 q 329 296 331 286 q 327 308 327 305 q 309 363 321 324 q 281 444 296 401 q 254 524 267 487 q 237 575 241 562 q 199 685 218 632 q 163 795 179 738 l 163 799 m 260 61 q 262 64 260 62 l 349 151 l 353 151 l 354 151 q 357 143 355 149 q 361 134 359 137 l 361 130 l 361 129 l 267 35 q 260 56 260 43 l 260 61 m 738 69 l 831 163 q 837 138 837 151 q 831 122 837 126 l 755 47 l 743 39 q 738 64 738 52 l 738 69 m 331 209 q 336 203 336 209 q 339 198 338 201 q 342 193 340 195 q 343 186 343 189 l 250 92 q 246 96 248 94 q 244 99 244 98 q 239 108 241 102 q 237 117 237 114 l 331 209 m 720 129 l 807 216 l 811 216 q 818 209 817 216 q 819 197 819 202 l 819 191 l 726 99 q 721 109 722 104 q 720 119 720 113 l 720 129 m 216 174 l 309 267 q 320 247 320 256 l 320 243 q 314 234 317 240 q 309 225 311 228 q 294 211 305 221 q 271 189 283 201 q 248 165 259 176 q 233 151 237 155 l 229 151 q 220 159 224 151 q 216 172 216 167 l 216 174 m 795 285 q 802 260 802 274 l 802 255 l 726 180 q 753 237 738 212 q 795 285 768 262 m 290 324 q 302 304 302 319 l 302 302 l 210 209 q 207 212 209 210 q 203 216 205 213 q 199 224 201 218 q 198 233 198 231 l 290 324 m 180 296 l 267 384 l 271 384 q 278 377 277 384 q 279 365 279 370 l 279 359 l 186 267 q 182 279 183 274 q 180 292 180 283 l 180 296 m 250 441 q 256 432 256 439 q 256 422 256 425 q 256 418 256 419 q 255 415 255 418 l 255 411 l 168 324 q 165 328 168 327 q 163 331 163 330 q 159 340 161 334 q 157 349 156 347 l 250 441 m 141 411 l 233 505 q 239 495 239 499 q 240 484 240 491 q 239 474 240 479 q 233 464 239 469 l 157 389 q 155 388 156 389 q 151 387 153 387 q 142 395 144 387 q 141 410 141 403 l 141 411 m 122 471 l 216 563 q 220 551 218 556 q 222 538 222 545 l 221 534 l 134 446 l 130 446 l 129 446 q 125 454 126 448 q 122 464 123 461 l 122 467 l 122 471 m 193 621 q 197 611 197 616 q 198 600 198 606 l 198 591 l 111 505 l 104 505 l 104 534 l 193 621 m 81 587 l 175 678 q 180 669 179 673 q 180 658 180 665 l 180 651 l 94 563 l 91 563 q 83 570 84 563 q 81 582 81 576 l 81 587 m 64 651 l 151 738 q 158 727 159 736 q 157 715 157 718 l 157 703 l 69 614 q 64 627 64 620 q 64 640 64 633 l 64 651 m 141 765 l 52 678 l 45 678 q 46 682 45 681 q 47 686 47 684 l 50 692 q 52 696 52 694 l 141 783 l 141 765 z "},"x":{"ha":1103,"x_min":47,"x_max":1047,"o":"m 825 -52 l 738 -141 q 727 -142 732 -141 q 716 -144 722 -144 q 708 -146 711 -145 l 703 -146 l 699 -146 l 789 -52 l 825 -52 m 651 -111 l 743 -18 l 761 -35 l 663 -134 q 654 -125 658 -132 q 650 -113 650 -119 l 651 -111 m 906 -47 q 903 -53 906 -49 q 901 -60 901 -57 q 890 -71 898 -62 q 872 -87 882 -79 q 854 -104 863 -96 q 842 -117 846 -113 q 829 -127 838 -121 q 819 -134 821 -134 q 811 -136 818 -136 q 802 -136 804 -136 q 793 -136 799 -136 q 785 -134 787 -136 l 867 -52 q 878 -47 872 -46 q 892 -47 884 -47 l 906 -47 m 998 -35 l 911 -123 l 872 -129 l 959 -42 q 972 -37 962 -38 q 990 -35 983 -35 l 998 -35 m 198 -18 l 203 -18 q 221 -30 216 -18 l 129 -123 l 125 -123 l 122 -123 q 113 -117 119 -122 q 104 -111 107 -113 l 198 -18 m 372 -30 l 372 -35 l 285 -123 l 250 -123 l 343 -30 l 372 -30 m 302 -30 l 216 -117 l 175 -117 l 262 -30 l 302 -30 m 414 -35 q 398 -53 410 -41 q 374 -78 387 -65 q 349 -102 361 -91 q 331 -117 336 -113 q 339 -106 326 -121 q 370 -74 353 -91 q 402 -43 388 -57 q 414 -35 416 -30 m 52 -81 l 146 11 q 153 7 146 12 q 163 0 160 3 l 163 -4 l 163 -7 l 76 -94 l 68 -94 q 58 -93 64 -94 q 52 -85 52 -92 l 52 -81 m 621 -64 l 715 27 q 723 19 719 24 q 727 7 727 14 l 726 5 l 633 -88 q 627 -79 631 -85 q 621 -71 624 -73 l 621 -68 l 621 -64 m 681 75 l 682 75 l 686 75 q 692 66 689 72 q 699 57 696 60 q 696 52 699 56 q 690 45 693 47 l 616 -30 q 610 -33 614 -30 q 604 -35 606 -35 l 601 -35 l 600 -35 q 595 -33 597 -35 q 591 -30 594 -31 q 589 -23 590 -27 q 587 -18 587 -19 l 681 75 m 604 225 q 576 198 586 209 q 552 168 566 187 q 544 156 549 164 q 533 140 538 148 q 523 125 528 132 q 517 117 518 118 q 510 102 515 113 q 498 80 505 92 q 484 58 491 68 q 476 45 477 47 q 465 28 473 41 q 453 11 456 15 q 444 1 450 8 q 430 -7 437 -7 l 237 -7 q 217 2 229 -3 q 193 13 205 7 q 172 26 180 19 q 163 45 163 34 q 174 77 163 60 q 193 104 184 94 q 200 113 194 106 q 213 127 206 119 q 226 142 220 136 q 233 151 232 149 q 256 182 236 155 q 302 244 277 209 q 355 315 328 279 q 396 372 381 351 q 406 386 399 376 q 414 403 414 396 l 414 407 q 393 438 407 416 q 361 488 378 460 q 323 545 343 515 q 286 603 304 575 q 254 652 269 631 q 233 684 240 673 q 215 709 227 693 q 192 741 203 724 q 172 774 180 758 q 163 800 163 789 q 168 812 163 808 q 179 817 172 815 q 193 818 186 818 q 203 818 199 818 q 296 838 251 829 q 389 848 342 848 q 427 840 418 848 q 448 806 437 833 q 454 791 449 802 q 465 770 460 781 q 475 750 471 760 q 483 736 480 741 q 490 725 484 734 q 503 705 496 716 q 514 683 509 693 q 522 667 519 673 q 541 640 532 654 q 564 614 551 625 q 570 620 566 616 q 575 627 575 624 q 587 643 578 629 q 607 673 595 656 q 629 707 618 690 q 644 731 639 723 q 679 781 663 758 q 715 830 694 803 q 738 842 724 842 l 954 842 q 979 836 963 837 q 1009 833 994 834 q 1036 830 1024 833 q 1047 819 1047 827 q 1044 806 1047 810 q 1035 795 1040 803 q 1025 782 1031 791 q 1012 765 1019 773 q 1000 751 1005 757 q 993 743 994 745 q 964 709 983 732 q 918 657 944 686 q 865 597 892 628 q 812 536 838 566 q 767 485 787 507 q 738 452 747 463 q 798 361 766 407 q 860 273 829 316 q 871 258 863 269 q 884 243 880 247 q 901 220 895 229 q 918 197 907 212 q 943 161 925 186 q 982 109 962 137 q 1020 57 1002 81 q 1046 23 1038 33 q 1047 16 1047 20 q 1047 11 1047 12 q 1047 4 1047 8 q 1046 0 1047 0 q 1041 -5 1046 -3 q 1035 -7 1036 -7 q 930 -20 983 -15 q 825 -24 878 -24 l 789 -24 q 762 1 770 -18 q 743 35 754 20 q 684 121 715 79 q 627 209 654 163 q 620 223 621 218 q 609 228 618 228 l 604 225 m 557 27 l 651 122 q 660 113 656 119 q 663 100 663 106 l 663 98 l 570 5 q 557 23 557 12 l 557 27 m 528 77 q 529 80 528 79 l 616 168 l 618 168 q 627 161 625 168 q 628 149 628 155 q 627 148 628 148 q 627 146 627 148 l 627 144 l 534 52 q 528 73 528 61 l 528 77 m 290 312 l 378 399 l 384 399 q 347 346 369 374 q 309 296 326 317 q 306 293 308 296 q 302 290 304 290 q 290 308 290 297 l 290 312 m 349 446 l 353 446 l 354 446 q 366 434 363 444 l 366 433 l 366 429 l 273 336 l 255 354 l 349 446 m 320 498 q 334 481 334 494 q 333 479 334 480 q 332 477 332 479 l 331 476 l 237 382 l 228 407 l 320 498 m 198 452 l 290 545 q 300 538 297 541 q 304 528 304 534 q 303 526 304 526 q 302 525 302 526 l 302 522 l 216 434 l 212 434 l 210 434 q 203 440 208 435 q 198 446 199 445 l 198 450 l 198 452 m 255 591 l 259 591 q 270 584 266 591 q 274 571 274 576 q 273 568 274 570 l 186 481 l 180 481 l 175 481 q 166 490 171 484 q 163 498 161 496 l 255 591 m 228 639 l 229 639 l 233 639 q 237 632 237 635 q 244 620 244 625 l 151 528 l 149 528 l 146 528 q 139 538 144 532 q 134 545 134 544 l 228 639 m 193 684 l 194 686 q 195 686 195 686 q 197 685 195 685 q 198 684 197 684 q 204 680 199 684 q 210 674 209 675 l 210 670 l 210 667 l 117 575 l 99 591 l 193 684 m 163 731 l 167 731 l 168 731 q 176 720 171 728 q 180 713 179 716 l 87 620 l 85 620 l 81 620 q 78 623 80 621 q 76 627 76 625 q 71 633 73 628 q 69 639 69 637 l 163 731 m 47 690 l 134 777 l 137 777 q 144 773 142 777 q 146 765 146 769 q 146 756 146 760 q 141 749 145 753 l 64 674 l 52 667 q 48 676 49 673 q 47 686 47 680 l 47 690 z "},"y":{"ha":1109,"x_min":39,"x_max":1065,"o":"m 522 -330 l 551 -330 l 551 -336 l 464 -423 q 460 -425 463 -425 q 453 -426 457 -426 q 443 -425 450 -426 q 434 -418 435 -425 l 522 -330 m 627 -336 l 545 -418 q 533 -424 540 -425 q 519 -423 526 -423 l 505 -423 l 591 -336 l 627 -336 m 481 -324 l 395 -411 l 359 -411 l 446 -324 l 481 -324 m 300 -397 q 301 -396 300 -397 l 302 -395 l 395 -302 q 402 -304 396 -300 q 411 -312 408 -309 l 411 -316 l 411 -320 l 324 -407 l 317 -407 q 306 -406 312 -407 q 300 -397 300 -404 m 395 -224 q 391 -252 395 -239 q 377 -278 388 -266 q 359 -296 370 -285 q 338 -317 349 -307 q 321 -334 328 -327 q 312 -342 313 -342 l 308 -342 q 315 -311 311 -328 q 330 -285 320 -294 l 395 -221 l 395 -224 m 411 -260 q 414 -249 411 -258 q 416 -237 416 -240 q 429 -209 419 -232 q 450 -159 438 -186 q 470 -111 461 -133 q 481 -81 479 -88 q 484 -73 481 -80 q 490 -57 487 -65 q 494 -41 492 -49 q 498 -30 496 -34 q 505 -9 500 -26 q 510 12 509 8 q 525 42 515 27 q 534 76 534 57 l 533 81 q 501 162 521 126 q 458 237 481 198 q 445 262 454 244 q 425 299 435 279 q 406 336 415 319 q 395 361 397 354 l 156 750 q 155 754 155 751 l 155 761 l 155 768 q 156 773 155 770 q 170 783 159 776 q 186 789 182 789 q 212 796 193 791 q 252 807 231 802 q 292 817 273 812 q 320 825 312 822 q 339 827 321 825 q 365 830 357 830 l 372 830 l 377 830 q 382 825 378 830 q 389 819 387 821 q 414 781 396 808 q 450 722 431 753 q 486 665 469 692 q 510 627 503 637 q 517 614 511 624 q 530 592 524 604 q 543 570 537 581 q 551 557 549 560 q 559 545 552 555 q 575 523 567 534 q 589 501 583 511 q 597 488 595 491 q 604 475 598 484 q 614 456 609 467 q 625 437 620 446 q 632 423 629 427 l 637 430 q 640 442 637 434 q 644 459 642 450 q 647 476 646 468 q 650 488 648 484 q 652 499 651 492 q 656 513 654 506 q 659 527 658 521 q 662 534 661 533 l 765 825 q 787 854 773 845 q 825 864 800 864 l 1055 864 l 1062 860 q 1063 851 1062 857 q 1065 842 1065 845 q 1063 829 1065 838 q 1062 819 1062 821 q 1059 806 1062 817 q 1053 783 1057 796 q 1044 758 1048 770 q 1038 738 1040 745 q 944 471 996 602 q 836 210 892 340 q 819 163 826 187 q 806 117 812 140 q 804 103 806 114 q 800 87 802 92 q 789 63 798 73 q 777 42 781 53 q 775 35 777 41 q 771 24 773 30 q 768 12 769 18 q 765 5 766 7 q 762 -3 765 4 q 757 -18 760 -9 q 751 -32 754 -26 q 749 -39 749 -38 q 745 -57 746 -42 q 743 -75 743 -72 q 737 -90 742 -77 q 731 -104 732 -102 q 720 -136 728 -111 q 702 -189 712 -160 q 684 -241 692 -217 q 674 -273 675 -266 q 663 -295 669 -286 q 644 -308 658 -304 l 601 -308 l 557 -308 q 540 -305 555 -308 q 522 -302 525 -302 q 510 -300 519 -301 q 490 -298 500 -300 q 469 -296 479 -297 q 458 -296 460 -296 q 427 -290 444 -294 q 411 -267 411 -286 l 411 -260 m 452 -87 q 446 -102 450 -91 q 441 -117 442 -113 q 430 -136 437 -123 q 423 -151 423 -149 q 412 -163 420 -155 q 395 -180 404 -171 q 377 -198 385 -190 q 365 -209 369 -206 l 365 -206 l 365 -203 q 370 -186 366 -199 q 377 -168 374 -172 q 380 -161 377 -167 l 382 -156 l 452 -87 m 494 35 q 488 8 490 24 q 476 -18 486 -8 l 399 -92 q 403 -87 401 -91 q 407 -81 404 -83 q 414 -58 408 -76 q 423 -35 420 -41 l 494 35 m 404 14 q 406 20 404 18 q 407 24 406 23 l 494 111 q 498 104 498 107 q 503 95 500 102 q 505 87 505 88 l 411 -5 q 404 3 404 -4 q 404 14 404 9 m 377 76 l 469 168 q 483 146 483 156 q 482 142 483 144 q 481 138 481 141 q 467 124 477 134 q 444 102 456 114 q 421 79 431 90 q 407 64 411 68 q 397 58 404 62 q 389 52 391 54 q 377 73 377 61 l 377 76 m 347 122 l 441 216 q 447 207 442 213 q 452 198 452 201 l 452 197 q 452 195 452 195 q 453 194 453 195 l 452 193 l 359 99 q 347 119 347 106 l 347 122 m 320 174 l 411 267 l 423 244 l 330 151 q 321 160 326 153 q 317 172 317 167 l 320 174 m 296 228 l 389 320 q 394 309 393 313 q 395 298 395 304 l 395 290 l 308 203 l 304 203 q 296 210 297 203 q 296 222 296 217 l 296 228 m 266 279 l 354 366 l 355 366 l 359 366 l 362 363 l 365 361 q 366 358 365 359 q 369 354 368 357 l 372 349 q 366 340 370 347 q 359 331 362 334 l 283 255 l 278 255 q 268 261 270 255 q 266 274 266 267 l 266 279 m 324 414 l 328 414 l 330 414 q 333 410 331 411 q 336 407 335 408 q 340 400 338 406 q 342 396 342 397 l 248 302 l 247 302 l 243 302 q 235 312 240 307 q 231 320 231 317 l 324 414 m 203 372 l 296 465 q 309 446 309 456 l 308 441 l 213 349 q 208 357 212 351 q 203 366 203 363 q 202 368 202 366 q 201 370 201 368 l 203 372 m 174 418 l 266 510 q 279 494 279 506 q 279 492 279 492 q 278 490 278 491 l 278 488 l 186 396 q 179 404 183 397 q 174 414 175 411 l 174 415 l 174 418 m 144 471 l 237 564 q 245 555 241 560 q 248 544 248 549 l 248 540 q 246 534 248 538 q 243 528 244 529 l 168 453 q 162 450 167 452 q 156 448 157 448 q 148 456 153 448 q 144 465 145 460 l 144 469 l 144 471 m 209 609 q 221 591 221 605 l 221 587 l 126 494 l 114 517 l 209 609 m 602 534 l 650 582 q 641 555 647 575 q 632 528 635 534 q 624 519 631 525 q 614 510 617 513 q 602 533 602 519 l 602 534 m 87 570 l 179 662 q 191 640 191 655 l 191 639 l 98 547 q 90 555 94 549 q 85 568 85 562 l 87 570 m 696 708 q 667 640 686 665 q 614 587 647 616 q 608 583 613 585 q 602 582 604 582 q 608 600 604 586 q 614 616 613 613 q 621 629 616 620 q 627 639 625 637 l 696 708 m 57 616 l 151 708 q 159 699 155 705 q 163 688 163 693 l 161 686 l 69 591 q 57 613 57 601 l 57 616 m 126 743 l 134 738 q 129 731 132 735 q 122 720 123 723 q 101 699 114 712 q 76 674 88 686 q 55 653 64 662 q 45 644 46 644 l 39 644 l 39 656 l 126 743 m 731 802 q 723 783 730 796 q 713 768 716 770 q 701 754 711 764 q 682 734 692 745 q 663 715 671 724 q 650 703 654 707 l 650 707 l 650 708 q 656 722 652 713 q 662 732 659 731 l 731 802 z "},"z":{"ha":899,"x_min":35,"x_max":842,"o":"m 401 -39 l 435 -39 l 342 -134 l 315 -134 l 315 -129 l 401 -39 m 557 -39 l 591 -39 q 587 -50 590 -42 q 581 -60 583 -57 q 558 -84 570 -71 q 533 -110 547 -98 q 504 -130 519 -122 q 471 -138 488 -138 l 471 -129 l 557 -39 m 646 -39 q 658 -40 652 -39 q 669 -47 663 -41 l 581 -134 l 545 -134 l 639 -39 l 646 -39 m 708 -47 q 720 -40 713 -41 q 734 -39 727 -39 l 749 -39 l 662 -129 q 650 -130 655 -129 q 632 -134 636 -133 l 627 -134 l 627 -129 l 708 -47 m 250 -35 l 285 -35 l 285 -39 q 276 -50 285 -41 q 255 -71 267 -58 q 230 -96 243 -83 q 209 -117 217 -109 q 189 -130 198 -127 q 163 -132 179 -132 l 163 -122 l 250 -35 m 359 -39 l 273 -129 l 237 -129 l 324 -39 l 359 -39 m 517 -39 l 429 -129 l 395 -129 l 483 -39 l 517 -39 m 819 -35 l 731 -122 q 724 -125 731 -123 q 713 -129 718 -126 l 712 -129 l 708 -129 l 795 -39 q 812 -35 800 -35 l 819 -35 m 186 -23 l 213 -30 l 122 -122 q 119 -123 121 -123 l 114 -123 q 92 -117 100 -123 l 186 -23 m 35 -94 l 122 -5 l 125 -5 l 129 -5 q 134 -12 130 -7 q 138 -18 138 -16 q 140 -19 138 -19 l 141 -20 l 138 -23 l 52 -111 l 47 -111 q 35 -99 35 -111 l 35 -94 m 156 104 q 125 36 149 66 q 69 -18 100 5 l 69 -14 l 69 -12 q 72 -3 69 -9 q 75 5 75 4 q 85 25 79 12 q 92 39 92 38 q 104 53 95 43 q 124 73 114 62 q 143 92 134 83 q 156 104 152 100 m 151 30 q 183 102 168 65 q 216 174 198 138 q 256 253 235 214 q 297 331 278 292 q 302 346 297 334 q 308 359 308 358 q 332 409 315 373 q 369 485 350 445 q 405 560 388 525 q 429 609 422 595 q 435 627 437 624 q 434 644 434 629 l 174 644 l 163 651 q 161 655 161 652 l 161 662 l 161 671 q 163 678 161 674 q 178 764 167 720 q 203 848 190 808 q 221 860 206 854 q 418 865 320 857 q 614 872 517 872 l 632 872 q 669 870 646 871 q 715 868 692 869 q 755 866 738 867 q 777 864 773 865 q 817 859 796 863 q 837 831 837 854 l 837 812 q 829 787 836 807 q 819 761 822 768 q 806 734 817 755 q 783 687 796 713 q 757 635 769 661 q 738 597 745 610 q 694 524 719 559 q 644 453 669 488 q 637 444 643 450 q 627 429 632 437 q 616 415 621 422 q 609 407 610 408 q 567 334 585 372 q 528 260 549 297 q 517 243 526 258 q 505 225 507 228 q 506 220 503 224 q 509 216 509 217 q 566 218 537 216 q 625 221 594 221 l 632 221 q 641 220 633 221 q 656 218 648 220 q 671 216 665 217 q 678 216 677 216 q 706 214 686 214 q 748 213 726 213 q 791 214 770 213 q 819 216 811 214 l 830 209 q 833 191 831 209 q 837 163 836 172 q 837 148 837 160 q 837 121 837 136 q 837 96 837 107 q 837 81 837 84 q 838 71 837 79 q 840 56 838 64 q 842 39 841 47 q 842 30 842 31 l 842 12 l 842 -5 q 828 -9 840 -7 q 812 -12 817 -11 q 794 -14 807 -12 q 768 -16 781 -15 q 742 -17 754 -16 q 726 -18 730 -18 l 576 -18 q 501 -18 537 -18 q 431 -18 465 -18 q 360 -16 396 -18 q 285 -12 324 -15 q 262 -10 278 -12 q 229 -6 247 -8 q 196 -2 212 -4 q 174 0 180 0 q 157 5 163 1 q 151 20 151 9 l 151 30 m 225 252 l 225 250 q 214 225 222 243 q 203 203 206 208 q 192 185 199 197 q 176 163 184 174 q 158 144 168 152 q 138 134 148 136 l 138 137 l 138 138 q 142 145 141 141 q 146 151 144 149 q 155 165 149 156 q 165 184 160 175 q 176 201 171 194 q 180 209 180 208 q 189 218 182 212 q 202 233 195 225 q 216 246 209 240 q 225 255 222 252 l 225 252 m 297 397 l 297 395 q 294 389 297 393 q 289 377 292 384 q 283 364 286 370 q 278 354 279 358 q 275 347 278 351 q 273 342 273 343 l 209 278 q 214 291 210 282 q 222 310 217 300 q 231 330 227 320 q 237 342 235 339 q 248 355 240 346 q 266 373 256 363 q 284 391 275 382 q 297 401 293 399 l 297 397 m 377 563 q 371 549 376 559 q 361 528 366 538 q 350 507 355 517 q 342 494 345 498 q 332 482 339 490 q 317 467 326 475 q 302 451 309 458 q 290 441 294 444 q 296 455 292 445 q 305 476 300 465 q 316 497 311 487 q 324 510 321 507 q 334 522 327 514 q 350 538 342 530 q 366 553 358 547 q 377 563 373 560 m 198 614 l 233 614 l 146 528 q 140 524 144 526 q 134 522 136 522 q 122 524 132 522 q 110 528 113 526 l 198 614 m 45 540 q 47 545 45 545 l 138 639 l 156 621 l 64 528 l 61 528 q 45 540 45 528 m 315 614 l 285 585 q 259 559 273 572 q 237 540 245 547 q 222 528 227 529 q 203 528 217 528 l 186 528 l 273 614 q 284 618 273 616 q 302 621 296 620 l 315 621 l 315 614 m 395 621 l 308 534 l 273 534 l 359 621 l 395 621 m 146 713 l 146 708 q 140 688 144 701 q 134 674 136 675 l 57 597 l 57 604 l 57 609 q 61 627 60 616 q 64 639 62 637 l 146 720 l 146 713 m 168 812 q 162 795 167 808 q 156 777 157 781 q 153 771 156 774 q 151 765 151 768 l 87 703 l 80 703 l 81 708 q 84 722 81 711 q 87 731 85 727 l 168 812 z "},"A":{"ha":1301,"x_min":-5,"x_max":1260,"o":"m 302 -45 l 210 -138 l 175 -138 l 262 -52 q 274 -45 267 -45 q 288 -45 281 -45 l 302 -45 m 203 -35 l 206 -35 l 210 -35 q 219 -37 213 -35 q 228 -39 225 -39 l 228 -43 l 228 -45 l 141 -134 l 132 -134 q 121 -134 126 -134 q 111 -126 117 -133 l 203 -35 m 1023 -35 l 929 -126 l 894 -126 l 987 -35 l 1023 -35 m -5 -100 q -5 -90 -5 -95 q 0 -81 -4 -85 l 81 0 q 94 -20 94 -7 l 94 -23 l 0 -117 q -5 -109 -5 -114 q -5 -100 -5 -104 m 168 -27 l 81 -117 l 42 -117 l 129 -27 l 168 -27 m 1062 -35 q 1086 -28 1073 -33 q 1109 -23 1099 -23 l 1109 -27 q 1101 -37 1109 -28 q 1082 -56 1093 -45 q 1060 -79 1072 -68 q 1040 -99 1048 -91 q 1027 -108 1036 -102 q 1017 -117 1019 -114 l 1000 -117 l 982 -117 l 1062 -35 m 1185 -27 l 1097 -117 l 1062 -117 l 1156 -23 l 1185 -27 m 854 -87 l 947 7 l 959 -18 l 867 -110 q 854 -88 854 -103 l 854 -87 m 924 60 q 936 38 936 50 l 936 35 l 842 -57 q 840 -56 841 -57 q 837 -52 837 -53 q 833 -42 836 -49 q 831 -35 830 -35 l 924 60 m 117 0 q 111 7 111 1 q 111 16 111 12 q 121 40 111 27 q 134 64 130 53 q 140 79 136 68 q 149 105 144 91 q 157 131 153 119 q 163 146 161 142 q 168 159 164 151 q 175 176 171 167 q 182 193 179 186 q 186 203 186 201 q 191 212 187 205 q 199 227 195 218 q 207 241 203 235 q 210 250 210 247 q 221 279 212 255 q 241 332 231 304 q 262 383 252 359 q 274 414 271 407 q 286 436 277 419 q 297 458 294 453 l 517 1062 q 522 1072 518 1065 q 528 1088 525 1080 q 535 1103 532 1096 q 540 1115 538 1111 l 547 1122 l 566 1122 l 587 1122 q 614 1120 593 1122 q 662 1118 636 1119 q 709 1116 688 1118 q 738 1115 731 1115 q 755 1116 747 1115 q 773 1109 764 1116 q 792 1090 784 1101 q 807 1069 800 1080 q 818 1051 811 1062 q 831 1029 825 1040 q 842 1010 837 1019 q 849 1000 848 1001 q 863 970 853 990 q 882 929 872 951 q 901 890 892 907 q 911 867 909 872 q 917 850 913 863 q 926 822 921 837 q 936 794 932 807 q 941 777 940 781 q 1004 638 967 705 q 1069 500 1040 571 q 1081 467 1072 492 q 1103 408 1090 442 q 1130 336 1116 374 q 1156 265 1143 298 q 1179 208 1169 232 q 1191 175 1188 183 q 1202 150 1192 170 q 1214 123 1211 130 q 1223 104 1217 117 q 1237 76 1230 91 q 1251 48 1244 61 q 1260 30 1257 35 l 1260 24 q 1255 13 1260 18 q 1242 5 1249 8 q 1226 1 1234 3 q 1214 0 1218 0 q 1194 0 1210 0 q 1159 0 1177 0 q 1124 0 1141 0 q 1104 0 1108 0 q 1065 -6 1085 0 q 1024 -12 1046 -12 q 1006 -12 1013 -12 q 987 -5 1000 -11 q 985 -3 987 -5 l 982 0 q 964 37 970 23 q 947 76 958 52 q 937 94 944 79 q 929 111 930 109 q 920 156 921 137 q 901 198 918 175 q 895 201 899 199 q 888 203 891 203 q 852 205 878 203 q 799 207 827 206 q 745 209 770 208 q 708 210 719 210 q 696 211 705 210 q 677 213 688 212 q 656 215 666 214 q 646 216 647 216 l 620 216 q 545 213 582 216 q 471 203 507 210 q 437 182 448 199 q 418 146 427 165 q 412 132 416 142 q 404 109 408 121 q 395 88 399 98 q 389 76 391 79 q 385 63 388 73 q 377 41 381 53 q 370 20 373 30 q 366 7 366 9 q 342 -22 355 -20 q 302 -23 328 -23 q 212 -12 255 -23 q 117 0 168 0 m 901 117 q 905 106 905 111 q 906 95 906 102 q 905 85 906 90 q 901 76 905 81 q 887 62 897 72 q 867 41 878 52 q 846 20 856 30 q 831 7 836 11 q 823 0 829 4 q 814 -5 817 -4 l 814 30 l 901 117 m 129 125 l 129 123 q 123 106 126 119 q 117 87 119 92 q 114 81 117 87 l 111 76 l 42 7 l 42 8 l 42 12 q 43 21 42 15 q 47 30 45 27 q 56 50 50 37 q 64 64 62 62 q 77 77 68 68 q 96 97 85 87 q 115 116 106 107 q 129 129 125 125 l 129 125 m 789 81 l 884 175 l 894 151 l 802 60 q 789 80 789 65 l 789 81 m 656 186 l 690 186 l 690 180 q 683 172 690 180 q 664 153 675 164 q 641 130 652 141 q 621 111 629 118 q 610 100 618 107 q 600 94 601 94 q 595 92 598 92 l 590 92 q 579 93 583 92 q 570 99 575 94 l 656 186 m 768 180 l 681 94 l 646 94 l 732 180 l 768 180 m 831 186 q 837 184 833 186 q 842 180 841 182 l 755 94 l 720 94 l 807 180 q 815 183 808 180 q 825 186 822 186 l 829 186 l 831 186 m 521 187 q 528 186 522 187 q 534 186 533 186 l 448 99 l 423 99 q 430 111 426 102 q 435 123 434 121 q 446 134 438 126 q 463 151 454 141 q 481 168 472 160 q 495 180 491 176 q 507 186 500 186 q 521 187 513 187 m 621 193 l 534 104 q 522 99 529 99 q 509 99 515 99 l 495 99 l 587 193 l 621 193 m 186 262 q 180 248 184 258 q 170 226 175 237 q 159 205 164 214 q 151 193 153 195 q 142 180 149 189 q 127 164 136 172 q 111 149 119 156 q 99 141 103 142 l 99 142 l 99 146 q 110 174 103 157 q 117 193 117 191 l 186 262 m 237 392 q 226 354 237 377 q 203 320 214 331 q 191 305 198 313 q 176 290 183 297 q 157 273 168 282 l 151 273 q 161 307 151 288 q 180 336 172 327 q 193 349 184 340 q 210 367 201 358 q 227 384 218 376 q 237 396 235 392 l 237 392 m 292 521 q 286 494 292 511 q 274 471 281 477 l 203 401 l 203 404 l 203 407 q 209 423 205 410 q 216 441 213 437 q 218 449 216 444 q 221 453 220 452 l 292 522 l 292 521 m 669 750 q 665 744 667 749 q 663 738 663 739 q 661 728 663 735 q 654 714 658 722 q 648 699 651 707 q 646 690 646 692 q 641 682 644 689 q 633 665 637 674 q 626 648 629 656 q 621 639 623 640 q 605 595 614 623 q 586 542 595 568 q 570 496 576 515 q 564 477 564 477 l 564 465 l 785 465 q 791 470 787 465 q 798 477 795 475 l 798 483 q 791 509 798 494 q 780 534 784 525 q 750 593 768 557 q 715 661 732 628 q 686 719 699 694 q 674 743 674 743 l 669 750 m 732 575 q 739 564 734 572 q 743 552 743 555 q 741 547 743 551 q 738 540 739 543 q 729 530 735 537 q 715 517 723 524 q 701 503 708 510 q 690 495 694 496 q 677 488 684 488 q 663 488 671 488 l 646 488 l 732 575 m 755 517 q 768 496 768 511 q 758 488 768 487 q 743 488 749 488 l 726 488 l 755 517 m 609 526 q 610 528 609 526 l 612 529 l 703 621 q 709 613 705 620 q 715 604 713 606 l 715 601 l 715 600 l 621 505 q 613 515 617 509 q 609 526 609 521 m 320 600 l 250 529 l 250 532 l 250 534 q 256 552 252 538 q 262 570 260 566 q 266 576 264 572 q 267 582 267 581 l 336 651 l 320 600 m 690 656 l 633 600 q 651 643 640 623 q 681 681 662 663 l 690 656 m 378 764 l 378 761 q 372 745 377 758 q 366 726 368 731 q 363 720 366 726 l 361 715 l 292 646 l 292 647 l 292 651 q 296 665 292 654 q 302 681 300 677 q 310 693 305 685 q 315 703 315 701 q 326 716 317 707 q 345 736 335 726 q 365 755 355 746 q 378 768 374 764 l 378 764 m 430 901 q 401 833 420 857 q 349 777 381 808 q 343 775 347 777 q 336 773 339 773 q 345 803 340 785 q 361 831 350 821 l 430 901 m 471 1017 l 471 1015 l 471 1010 q 466 996 471 1008 q 460 981 461 985 q 452 968 457 977 q 448 959 448 960 q 436 945 445 955 q 417 926 427 936 q 397 907 407 916 q 384 894 388 898 l 401 947 l 471 1017 z "},"B":{"ha":941,"x_min":52,"x_max":894,"o":"m 64 -117 l 156 -23 q 165 -32 161 -26 q 168 -43 168 -38 l 168 -45 l 75 -138 q 66 -130 71 -136 q 62 -118 62 -123 l 64 -117 m 203 -52 q 220 -42 210 -45 q 241 -39 231 -39 l 250 -39 q 244 -49 248 -42 q 237 -57 240 -56 q 227 -69 235 -61 q 210 -87 218 -77 q 193 -104 201 -96 q 180 -117 184 -113 q 168 -125 176 -119 q 156 -134 159 -132 l 149 -134 q 138 -134 142 -134 q 126 -126 133 -133 l 203 -52 m 331 -39 l 243 -126 q 231 -134 237 -133 q 217 -134 225 -134 l 203 -134 l 296 -39 l 331 -39 m 407 -39 l 320 -126 l 285 -126 l 372 -39 l 407 -39 m 494 -35 l 407 -122 q 393 -128 400 -127 q 380 -129 387 -129 q 373 -127 378 -129 q 366 -126 368 -126 l 453 -39 q 464 -38 458 -39 q 481 -35 475 -35 l 488 -35 l 494 -35 m 570 -35 l 570 -39 l 494 -117 q 479 -122 487 -122 q 464 -122 471 -122 l 446 -122 l 534 -35 l 570 -35 m 662 -23 l 581 -104 q 568 -107 574 -106 q 552 -110 555 -110 l 545 -110 l 540 -110 l 621 -27 q 635 -24 625 -24 q 650 -23 644 -23 l 662 -23 m 146 12 l 52 -81 q 54 -63 52 -77 q 57 -45 57 -49 q 61 -39 60 -43 q 64 -35 62 -35 l 138 42 l 146 12 m 168 35 q 169 83 168 45 q 171 163 170 121 q 173 243 172 206 q 174 290 174 281 q 174 383 174 320 q 175 526 175 446 q 175 693 175 605 q 175 861 175 781 q 174 1003 175 940 q 174 1097 174 1066 q 189 1108 178 1104 q 203 1115 201 1112 q 231 1115 212 1115 q 273 1116 251 1115 q 314 1116 294 1116 q 342 1116 334 1116 q 479 1116 406 1116 q 619 1099 552 1115 q 739 1045 686 1084 q 812 929 791 1006 q 820 903 815 921 q 825 884 825 886 l 825 850 q 817 773 825 808 q 783 703 810 738 q 768 684 779 697 q 746 656 758 671 q 723 628 734 642 q 708 609 712 614 q 726 599 712 608 q 743 587 739 590 q 753 579 745 586 q 769 564 761 572 q 785 549 777 556 q 795 540 792 541 q 804 536 798 540 q 812 529 811 532 q 816 521 814 528 q 818 513 818 514 q 822 507 818 511 q 830 497 826 502 q 838 488 834 492 q 842 483 842 484 q 846 474 844 481 q 848 465 848 467 q 856 453 849 463 q 864 441 863 444 l 864 439 l 864 435 q 862 427 864 434 q 860 418 860 420 q 862 410 860 416 q 864 401 864 403 q 868 390 867 399 q 872 378 869 381 q 876 355 873 372 q 883 319 879 338 q 890 284 887 301 q 894 262 892 267 l 894 259 l 894 255 q 891 244 894 252 q 886 226 888 236 q 880 206 883 216 q 876 193 878 197 q 835 110 865 149 q 765 47 804 71 q 637 1 707 11 q 500 -11 567 -8 q 446 -12 484 -11 q 363 -14 407 -14 q 280 -16 319 -15 q 225 -18 241 -18 q 213 -22 218 -22 q 199 -23 208 -23 q 182 -8 184 -23 q 174 18 179 7 q 171 21 174 19 q 168 24 168 23 l 168 27 l 168 35 m 146 123 l 146 87 l 57 0 l 57 35 l 146 123 m 146 203 q 149 192 146 201 q 151 180 151 183 l 151 178 l 151 175 q 142 162 149 171 q 134 151 136 153 q 122 139 130 148 q 104 121 114 130 q 86 104 95 113 q 75 94 77 96 q 66 87 73 91 q 57 81 60 83 l 57 117 l 146 203 m 151 285 l 151 273 q 150 258 151 267 q 146 244 149 248 l 57 157 l 57 193 l 151 285 m 429 198 l 448 198 l 476 198 q 509 201 487 198 q 534 203 532 203 q 573 221 553 209 q 608 251 593 233 q 634 289 624 269 q 644 331 644 309 q 642 352 644 340 q 632 372 640 363 q 581 417 608 401 q 517 441 553 433 q 495 446 509 442 q 467 452 481 449 q 441 456 453 454 q 429 458 430 458 q 416 460 426 460 q 404 460 407 460 q 408 361 404 414 q 418 262 412 308 q 420 254 418 260 q 423 244 423 247 l 423 203 l 429 198 m 153 361 q 151 342 153 354 q 146 327 149 330 l 57 237 l 57 244 l 57 250 q 61 267 60 256 q 64 279 62 278 l 146 361 l 153 361 m 609 354 q 621 335 621 349 l 621 331 q 618 326 620 330 q 614 320 616 321 l 529 235 l 517 262 l 609 354 m 481 302 l 570 389 l 571 389 q 573 390 572 389 q 575 391 574 391 q 591 378 585 391 l 500 285 l 496 285 l 494 285 q 487 290 491 286 q 481 297 483 294 l 481 300 l 481 302 m 439 334 q 440 339 439 336 q 441 343 441 342 l 510 414 l 521 414 q 531 414 524 414 q 540 407 538 414 l 446 315 q 440 323 441 316 q 439 334 439 331 m 151 441 l 151 407 l 64 320 l 64 354 l 151 441 m 429 399 q 445 423 429 418 q 476 429 461 429 l 476 418 l 435 378 q 429 388 430 384 q 429 399 429 392 m 151 522 q 152 514 151 521 q 153 505 153 507 q 152 496 153 502 q 151 488 151 490 q 144 477 151 486 q 134 465 137 469 q 121 452 130 461 q 103 435 113 444 q 85 418 94 426 q 75 407 77 410 q 70 404 73 407 q 64 401 66 401 l 64 435 l 151 522 m 151 600 l 151 564 l 64 477 l 64 513 l 151 600 m 151 681 l 151 646 l 64 557 l 64 591 l 151 681 m 151 755 l 151 720 l 64 633 l 64 669 l 151 755 m 418 708 q 433 684 425 693 q 460 674 441 674 l 471 674 l 528 703 q 549 715 537 708 q 573 730 562 722 q 592 749 585 739 q 600 773 600 760 q 598 779 600 774 q 597 785 597 783 q 517 852 557 829 q 415 876 477 876 l 411 876 q 408 875 410 876 q 407 872 407 873 l 407 841 l 407 807 q 408 787 407 802 q 412 758 410 773 q 415 728 414 742 q 418 708 416 713 m 441 732 l 528 819 l 545 802 l 453 708 l 450 708 q 442 714 444 708 q 441 724 441 720 l 441 732 m 151 837 q 152 829 151 836 q 153 819 153 822 q 153 814 153 817 q 152 808 152 811 q 151 802 151 804 q 144 791 151 800 q 134 777 137 781 q 121 766 130 774 q 103 748 113 757 q 85 731 94 739 q 75 720 77 723 q 70 717 73 719 q 64 715 66 715 l 64 750 l 151 837 m 570 777 q 572 776 571 777 l 575 773 l 575 769 q 561 751 575 761 q 540 738 547 742 q 522 728 536 735 q 505 720 509 722 l 563 777 q 564 779 564 777 q 566 780 564 779 l 570 777 m 471 842 l 472 842 q 474 843 473 842 q 476 844 475 844 q 488 842 481 844 q 495 831 495 840 q 494 828 495 830 q 494 825 494 826 q 485 815 491 822 q 471 801 479 808 q 456 787 464 793 q 446 777 449 780 q 441 775 445 777 q 435 773 438 773 l 435 807 l 471 842 m 151 911 l 151 876 l 64 789 l 64 825 l 151 911 m 435 849 l 429 842 l 429 849 l 435 849 m 151 993 l 151 959 l 64 872 l 64 906 l 151 993 m 151 1069 l 151 1054 q 151 1041 151 1047 q 146 1028 152 1035 l 64 947 l 57 947 l 57 975 l 151 1069 z "},"C":{"ha":1127,"x_min":47,"x_max":1074,"o":"m 552 -35 l 557 -35 q 582 -39 567 -35 l 488 -134 l 458 -129 l 552 -35 m 663 -39 l 570 -134 l 534 -134 l 627 -39 l 663 -39 m 732 -47 q 729 -53 731 -49 q 726 -60 727 -57 l 669 -117 q 655 -127 665 -121 q 644 -134 646 -134 q 637 -136 642 -136 l 627 -136 q 618 -135 625 -136 q 609 -134 612 -134 l 699 -47 l 732 -47 m 819 -39 l 732 -129 l 699 -129 l 785 -39 l 819 -39 m 901 -35 l 819 -117 q 806 -123 812 -122 q 793 -123 800 -123 q 785 -123 791 -123 q 777 -122 780 -122 l 860 -39 q 873 -35 867 -34 q 886 -35 879 -35 l 901 -35 m 407 -104 l 495 -18 l 502 -18 q 513 -18 509 -18 q 522 -23 517 -19 l 430 -117 l 426 -117 q 413 -115 419 -117 q 407 -107 407 -114 l 407 -104 m 1005 -5 q 949 -58 985 -30 q 884 -99 914 -87 l 959 -23 l 1005 -5 m 441 12 l 469 -1 l 384 -87 q 378 -90 382 -88 q 372 -94 374 -92 l 370 -94 q 349 -81 355 -94 l 441 12 m 389 35 l 395 35 q 414 23 406 35 l 320 -69 l 297 -60 l 389 35 m 343 69 l 346 69 l 349 69 q 355 64 351 68 q 361 57 359 60 l 361 56 l 361 52 l 267 -39 l 250 -23 l 343 69 m 163 643 q 172 717 163 682 q 193 789 182 751 q 204 822 197 807 q 221 854 212 837 q 227 865 222 857 q 237 883 232 873 q 248 901 243 892 q 255 911 252 909 q 294 958 271 935 q 336 998 317 981 q 424 1059 380 1039 q 522 1103 468 1080 q 630 1133 581 1127 q 743 1139 680 1139 q 768 1139 753 1139 q 798 1138 783 1138 q 824 1137 812 1138 q 837 1137 836 1137 q 872 1133 854 1137 q 906 1127 890 1130 q 934 1123 916 1124 q 963 1115 952 1122 q 977 1108 967 1114 q 998 1096 986 1103 q 1019 1083 1009 1089 q 1035 1074 1029 1077 q 1041 1066 1042 1070 q 1040 1054 1040 1062 l 1040 1040 q 1038 1034 1040 1038 q 1035 1028 1036 1029 q 1026 1018 1032 1025 q 1013 1002 1020 1010 q 1000 985 1006 993 q 993 975 994 977 q 980 956 987 967 q 964 932 972 944 q 945 913 955 921 q 922 905 935 905 q 846 914 884 905 q 769 924 808 924 l 738 924 q 723 921 735 924 q 708 917 711 918 q 623 900 665 910 q 547 860 582 890 q 497 810 518 837 q 453 755 476 784 q 433 715 439 738 q 423 674 426 693 q 424 665 423 671 q 425 650 425 658 q 425 635 425 643 q 423 627 425 628 q 422 621 423 625 q 418 614 420 616 l 418 566 q 452 400 418 469 q 557 267 487 331 q 606 237 579 248 q 660 219 632 225 q 717 211 688 213 q 773 209 746 209 l 831 209 q 861 217 844 212 q 888 225 878 222 q 897 230 890 227 q 912 237 905 233 q 926 245 920 241 q 936 250 933 248 q 944 252 937 250 q 954 255 951 255 l 955 255 q 977 248 967 255 q 996 231 987 241 q 1012 210 1005 221 q 1023 191 1019 199 q 1033 172 1025 186 q 1048 142 1040 159 q 1064 112 1057 126 q 1074 92 1072 98 l 1074 81 q 1065 61 1074 65 q 1040 47 1055 57 q 1034 43 1039 46 q 1023 35 1028 39 q 1012 28 1017 31 q 1005 23 1006 24 q 960 4 985 11 q 911 -5 935 -3 q 883 -9 902 -7 q 844 -13 864 -11 q 806 -16 823 -15 q 785 -18 789 -18 l 732 -18 l 674 -18 q 653 -17 667 -18 q 623 -15 639 -16 q 594 -13 608 -14 q 575 -12 581 -12 q 539 -3 559 -9 q 505 12 519 4 q 441 41 471 27 q 384 75 412 56 q 370 85 381 77 q 361 92 365 90 q 351 102 358 95 q 335 118 343 110 q 319 134 327 126 q 309 146 312 142 q 255 212 278 176 q 221 290 232 248 q 210 337 217 307 q 195 399 202 368 q 182 456 189 430 q 175 488 176 481 q 165 565 168 526 q 163 643 163 604 m 309 110 q 321 92 321 103 q 321 91 321 91 q 320 90 320 91 l 320 87 l 228 -5 l 210 12 l 309 110 m 175 57 l 267 151 q 277 142 275 148 q 279 130 279 137 l 279 122 l 193 35 q 184 43 190 37 q 175 52 178 49 q 174 53 174 52 l 174 56 l 175 57 m 233 191 q 244 174 244 186 l 244 168 l 157 81 q 155 80 157 81 l 151 81 l 148 84 q 146 87 146 85 q 141 94 144 90 q 141 99 138 98 l 233 191 m 117 156 l 203 243 l 206 244 q 214 237 213 244 q 216 225 216 229 l 216 221 l 122 129 q 117 153 117 140 l 117 156 m 99 216 l 191 308 l 198 278 l 104 186 q 100 196 100 191 q 99 206 99 201 l 99 216 m 81 278 l 168 366 l 172 366 l 175 366 q 177 358 175 365 q 180 349 179 351 l 180 346 l 180 342 q 178 336 180 342 l 175 331 l 99 255 l 87 250 q 81 274 81 262 l 81 278 m 69 342 l 157 429 l 163 429 l 163 401 l 76 315 q 70 324 71 320 q 69 335 69 328 l 69 342 m 146 500 q 149 488 148 498 q 151 476 151 479 l 151 472 l 151 471 l 60 377 l 60 411 l 146 500 m 141 570 l 141 534 l 52 446 l 52 483 l 141 570 m 141 632 q 140 614 141 618 q 129 597 140 609 l 60 528 l 47 522 l 47 534 q 48 549 47 540 q 52 563 49 559 l 141 651 l 141 632 m 151 738 q 149 722 151 734 q 146 708 148 711 q 142 697 145 705 q 141 690 141 693 l 64 614 l 64 621 q 66 642 64 629 q 76 662 69 655 l 151 738 m 186 848 q 184 839 186 845 q 180 830 182 833 q 174 813 178 825 q 168 800 170 802 l 104 738 q 141 797 123 769 q 186 848 159 825 m 639 876 l 557 795 q 544 793 549 795 q 532 791 537 792 q 522 789 526 791 l 521 789 l 517 789 l 582 854 q 606 869 591 861 q 633 876 620 876 l 639 876 m 849 888 l 857 888 q 868 888 861 888 q 876 882 875 888 l 785 789 l 757 798 l 849 888 m 732 894 q 729 888 731 892 q 726 882 727 884 q 715 871 723 879 q 698 853 707 863 q 680 836 689 844 q 669 825 671 827 q 625 806 650 806 q 617 806 623 806 q 609 807 612 807 l 690 888 q 705 893 694 892 q 724 894 716 894 l 732 894 m 793 901 q 804 901 798 901 q 812 894 811 901 l 726 807 l 690 807 l 785 899 l 789 899 q 791 900 791 899 q 793 901 792 901 z "},"D":{"ha":1149,"x_min":52,"x_max":1097,"o":"m 62 -119 q 64 -117 62 -118 l 151 -27 l 168 -45 l 75 -138 l 73 -138 q 64 -134 66 -138 q 62 -123 62 -129 l 62 -119 m 216 -45 q 227 -47 218 -45 q 237 -52 235 -50 l 151 -138 l 117 -138 l 203 -52 q 209 -47 205 -50 q 216 -45 213 -45 m 320 -52 l 237 -134 q 225 -139 232 -140 q 212 -138 218 -138 l 198 -138 l 285 -52 q 300 -47 288 -49 q 320 -45 313 -45 l 320 -52 m 401 -45 q 397 -52 399 -47 q 395 -57 396 -56 q 384 -69 392 -61 q 366 -86 376 -77 q 349 -104 357 -95 q 336 -117 340 -113 q 324 -125 332 -119 q 315 -134 316 -132 l 296 -134 l 278 -134 l 366 -45 l 401 -45 m 528 -39 l 563 -39 l 471 -134 l 441 -134 l 441 -126 l 528 -39 m 488 -39 l 401 -126 l 366 -126 l 453 -39 l 488 -39 m 644 -39 l 557 -126 l 522 -126 l 604 -45 q 617 -40 608 -41 q 632 -39 627 -39 l 644 -39 m 731 -27 q 729 -34 731 -30 q 726 -39 727 -38 q 715 -52 723 -43 q 698 -68 707 -60 q 680 -86 689 -77 q 669 -99 671 -95 q 644 -116 655 -110 q 614 -122 632 -122 l 604 -122 l 690 -35 q 704 -33 697 -34 q 715 -30 709 -31 q 726 -27 722 -28 l 730 -27 l 731 -27 m 783 -23 q 811 -17 798 -20 q 837 -5 825 -14 q 827 -15 834 -8 q 813 -28 821 -22 q 799 -42 806 -35 q 789 -52 792 -49 q 782 -58 788 -54 q 773 -64 776 -61 q 759 -72 769 -66 q 738 -84 749 -77 q 717 -97 727 -91 q 703 -104 707 -103 l 783 -23 m 146 47 l 146 7 l 57 -81 l 57 -39 l 146 47 m 163 229 q 177 355 163 293 q 191 481 191 418 l 191 495 q 191 549 191 513 q 189 630 190 585 q 186 726 187 675 q 183 823 184 777 q 181 905 182 868 q 180 959 180 941 l 186 1069 q 189 1081 186 1073 q 198 1092 191 1089 l 290 1092 q 303 1093 293 1092 q 325 1095 313 1093 q 347 1097 336 1096 q 359 1097 357 1097 q 377 1097 361 1097 q 415 1098 393 1097 q 458 1099 437 1099 q 494 1099 480 1099 q 521 1099 502 1099 q 561 1098 540 1099 q 601 1097 582 1097 q 627 1097 620 1097 q 706 1086 666 1093 q 783 1062 746 1078 q 795 1058 791 1062 q 890 991 846 1025 q 975 911 933 956 q 1023 838 1006 879 q 1050 755 1039 798 q 1057 732 1053 747 q 1067 699 1062 716 q 1076 669 1072 682 q 1080 651 1080 655 q 1084 618 1084 633 q 1092 587 1084 602 l 1092 500 q 1095 492 1092 498 q 1097 483 1097 486 l 1097 479 l 1097 477 q 1095 471 1097 476 l 1092 465 q 1088 452 1090 461 q 1085 441 1085 444 q 1085 433 1085 439 q 1085 418 1085 426 q 1085 404 1085 411 q 1085 396 1085 397 q 1082 390 1085 395 q 1080 384 1080 385 q 1077 369 1080 381 q 1074 354 1074 357 q 1064 326 1072 346 q 1048 282 1057 305 q 1033 239 1040 259 q 1023 210 1025 218 q 988 161 1004 187 q 951 111 972 134 q 887 56 922 77 q 812 12 852 35 q 806 9 810 11 q 800 7 802 7 q 792 6 799 5 q 783 7 785 7 q 701 -7 739 0 q 614 -18 662 -15 q 583 -18 608 -18 q 528 -18 557 -18 q 473 -18 498 -18 q 441 -18 448 -18 q 419 -18 437 -18 q 382 -20 401 -19 q 346 -22 363 -22 q 324 -23 328 -23 l 203 -23 q 195 -27 201 -24 q 186 -27 189 -30 q 182 -24 184 -27 q 180 -18 180 -20 q 177 -1 179 -15 q 174 18 175 12 q 165 123 167 69 q 163 229 163 178 m 138 117 l 138 81 l 52 -5 l 52 30 l 138 117 m 138 198 l 138 163 l 52 76 l 52 111 l 138 198 m 138 237 l 52 151 l 52 167 q 52 180 52 174 q 57 193 52 186 l 138 273 l 138 237 m 458 250 q 462 227 460 240 q 476 210 464 214 q 488 210 479 210 q 500 209 498 209 q 512 210 503 209 q 522 210 521 210 q 549 212 530 210 q 589 215 568 213 q 629 218 610 217 q 656 221 648 220 q 884 519 884 282 q 869 614 884 563 q 830 703 853 665 q 817 716 826 707 q 798 736 808 726 q 779 755 788 746 q 765 768 769 764 q 747 777 764 768 q 720 789 730 787 q 688 802 707 796 q 656 812 670 808 q 619 814 646 812 q 563 819 593 817 q 507 823 533 821 q 471 825 480 825 l 453 825 l 435 825 q 434 799 435 818 q 432 758 433 780 q 430 718 431 736 q 429 690 429 699 l 429 682 l 429 674 l 458 302 l 458 250 m 151 353 q 150 336 151 346 q 146 320 149 326 l 69 244 l 64 244 q 66 262 64 248 q 69 279 68 275 l 72 285 l 75 290 l 151 366 l 151 353 m 849 430 q 841 398 849 414 q 821 368 833 382 q 797 342 810 354 q 773 320 784 330 q 766 317 770 320 q 761 315 762 315 l 761 317 l 761 320 q 764 340 761 327 q 765 354 765 346 l 848 435 l 849 430 m 163 418 l 75 331 l 75 340 q 76 357 75 347 q 81 372 77 368 l 168 458 l 163 418 m 860 522 l 860 488 l 773 401 l 765 430 l 860 522 m 163 534 l 163 500 l 75 414 l 75 448 l 163 534 m 754 498 q 755 500 754 499 l 848 591 l 854 564 l 761 471 q 754 494 754 479 l 754 498 m 163 609 l 163 575 l 75 488 l 75 522 l 163 609 m 825 646 l 826 646 l 830 646 q 833 637 830 644 q 837 627 836 631 l 837 624 l 837 621 l 743 529 l 731 552 l 825 646 m 165 686 q 165 666 165 680 q 156 646 164 652 l 81 570 l 69 564 l 69 578 q 69 591 69 585 q 75 604 69 598 l 156 686 l 165 686 m 795 699 l 799 699 q 808 690 804 699 q 812 677 812 682 l 812 674 l 726 587 l 722 587 l 720 587 q 711 595 718 589 q 703 604 705 601 l 795 699 m 669 646 l 761 738 l 764 738 l 765 738 q 777 726 774 735 l 777 724 l 777 720 l 686 627 l 682 627 l 678 627 q 673 633 677 628 q 669 639 669 637 q 667 640 667 639 l 667 643 l 669 646 m 156 761 l 156 726 l 69 639 l 69 674 l 156 761 m 708 768 q 715 765 711 766 q 726 761 723 762 q 731 755 731 761 l 639 663 l 637 662 l 635 662 q 624 666 629 662 q 614 674 618 670 l 708 768 m 563 699 l 650 785 l 658 785 q 669 785 665 785 q 678 777 673 784 l 587 686 l 583 686 l 581 686 q 571 689 578 688 q 563 690 564 690 l 563 694 l 563 699 m 590 798 q 600 797 591 798 q 609 789 609 796 q 608 784 609 788 q 604 777 606 780 l 528 703 l 488 703 l 581 795 q 585 796 582 795 q 587 797 586 796 q 590 798 589 798 m 540 795 l 453 708 l 453 712 l 453 715 q 456 736 454 723 q 458 750 458 749 l 505 795 l 540 795 m 156 842 l 156 807 l 69 720 l 69 755 l 156 842 m 156 918 l 156 884 l 69 795 l 69 831 l 156 918 m 156 1000 q 157 990 156 997 q 157 981 157 983 q 156 962 157 967 q 146 947 155 958 q 131 932 142 943 q 107 909 119 921 q 84 886 95 897 q 69 872 73 876 l 69 911 l 156 1000 m 156 1058 l 163 1058 l 156 1040 l 75 959 l 75 975 l 156 1058 z "},"E":{"ha":917,"x_min":52,"x_max":860,"o":"m 446 -42 l 372 -117 q 357 -122 370 -118 q 336 -129 343 -126 l 331 -129 l 324 -129 l 411 -42 l 446 -42 m 609 -35 l 517 -129 l 481 -129 l 575 -35 l 609 -35 m 274 -30 q 285 -31 281 -30 q 296 -35 289 -31 l 209 -123 l 174 -123 l 267 -30 l 274 -30 m 372 -35 l 372 -42 l 296 -117 q 281 -123 289 -123 q 267 -123 274 -123 l 250 -123 l 336 -35 l 372 -35 m 505 -30 q 516 -31 507 -30 q 528 -35 525 -33 l 441 -123 l 407 -123 l 494 -35 q 499 -31 495 -33 q 505 -30 503 -30 m 686 -35 l 686 -42 l 609 -117 q 595 -123 602 -123 q 581 -123 587 -123 l 563 -123 l 650 -35 l 686 -35 m 110 -106 l 203 -12 l 206 -12 l 209 -12 q 215 -18 212 -14 q 221 -24 218 -22 l 221 -26 l 221 -30 l 134 -117 q 130 -118 133 -118 l 125 -118 q 115 -116 121 -118 q 110 -107 110 -114 l 110 -106 m 777 -24 l 690 -111 l 650 -117 l 738 -30 q 752 -25 742 -26 q 769 -24 762 -24 l 777 -24 m 75 -64 l 163 23 q 170 14 165 20 q 174 5 174 8 l 174 4 q 174 3 174 3 q 175 1 175 3 l 174 0 l 81 -94 q 75 -85 75 -92 q 75 -75 75 -77 l 75 -64 m 163 104 l 170 104 q 170 84 170 98 q 163 62 170 71 l 75 -24 l 75 18 l 163 104 m 190 494 q 186 552 189 513 q 182 641 184 591 q 178 745 180 690 q 173 850 175 800 q 170 940 171 901 q 168 998 168 979 l 168 1054 l 168 1108 q 176 1128 168 1119 q 191 1142 183 1137 l 285 1142 q 296 1143 286 1142 q 316 1145 305 1145 q 336 1147 327 1146 q 349 1149 346 1149 l 503 1149 l 644 1149 q 674 1147 652 1149 q 720 1144 696 1146 q 766 1140 745 1142 q 795 1137 787 1138 q 802 1135 798 1137 q 807 1133 806 1134 q 818 1112 811 1126 q 825 1097 825 1099 l 825 939 q 810 921 825 930 q 789 911 796 911 l 471 899 q 460 897 467 899 q 453 894 453 895 q 450 882 452 892 q 446 864 448 871 q 445 853 446 860 q 443 839 444 846 q 441 825 442 831 q 441 818 441 819 l 441 780 l 441 754 l 464 745 l 690 745 l 789 726 q 807 703 800 723 q 818 660 814 684 q 823 614 822 636 q 825 585 825 591 q 811 538 825 553 q 776 517 798 524 q 728 511 754 511 q 678 510 703 511 q 635 509 666 510 q 568 507 604 507 q 502 505 533 506 q 458 505 471 505 q 457 489 458 500 q 455 465 456 477 q 454 439 454 452 q 453 423 453 427 q 452 401 453 420 q 452 370 452 381 q 452 357 452 365 q 452 340 452 349 q 453 326 453 332 q 453 320 453 320 q 455 296 453 313 q 458 273 457 278 q 463 256 460 264 q 476 248 465 248 l 830 248 q 845 246 833 248 q 860 237 857 244 l 860 182 l 860 126 q 859 106 860 121 q 857 77 859 92 q 855 47 856 61 q 854 27 854 33 q 834 9 846 12 q 807 5 822 7 q 770 1 795 4 q 718 -4 745 -1 q 668 -9 690 -7 q 639 -12 646 -12 l 612 -12 q 545 -9 579 -12 q 477 -7 511 -7 q 452 -9 464 -7 q 429 -12 441 -12 q 342 -9 385 -12 q 255 0 298 -5 q 244 -1 254 0 q 233 0 235 -1 q 224 5 231 0 q 216 11 217 11 q 201 18 212 14 q 191 27 191 22 l 190 458 l 190 494 m 163 179 l 163 144 l 75 57 l 75 92 l 163 179 m 163 225 l 75 138 l 75 153 q 75 167 75 160 q 81 179 75 174 l 163 260 l 163 225 m 168 342 l 168 308 l 81 221 l 81 255 l 168 342 m 168 423 l 168 407 q 168 391 168 399 q 163 377 168 384 l 87 300 l 81 300 l 81 336 l 168 423 m 68 395 q 69 399 68 396 l 163 494 l 163 458 l 75 372 q 68 380 69 373 q 68 391 68 387 l 68 395 m 581 481 q 566 467 576 477 q 543 444 555 456 q 519 421 530 431 q 505 407 509 411 q 473 392 492 392 q 474 408 473 399 q 481 423 475 416 q 497 440 487 430 q 516 459 507 450 q 532 475 525 468 q 540 481 540 481 l 581 481 m 656 488 l 656 481 l 570 395 l 534 395 l 621 481 l 656 488 m 703 488 l 738 488 l 650 399 q 633 394 646 396 q 614 392 620 392 l 614 399 l 703 488 m 156 568 l 156 533 l 69 446 l 69 481 l 156 568 m 500 481 l 481 464 l 481 481 l 500 481 m 156 644 l 156 609 l 69 522 l 64 522 l 64 551 l 156 644 m 151 719 l 151 701 q 151 687 151 694 q 146 674 152 680 l 69 597 l 64 597 l 64 632 l 151 719 m 57 701 l 151 795 l 151 761 l 64 674 q 57 682 57 675 q 57 693 57 689 l 57 701 m 146 869 l 146 836 l 57 749 l 57 783 l 146 869 m 545 876 l 581 876 l 494 788 l 464 788 l 464 795 l 545 876 m 621 876 q 633 882 627 883 q 647 882 640 882 l 662 882 l 656 869 l 581 795 q 569 791 581 793 q 552 788 557 789 l 540 788 l 540 795 l 621 876 m 743 882 l 656 795 q 642 789 652 791 q 624 788 631 788 l 614 788 l 708 882 l 743 882 m 146 947 l 146 911 l 57 823 l 57 860 l 146 947 m 500 876 l 471 848 q 470 852 471 849 q 469 856 469 854 q 473 871 469 867 q 488 876 476 876 l 500 876 m 138 1021 l 149 1021 q 147 996 149 1005 q 134 974 145 986 q 113 953 126 966 q 88 928 100 940 q 67 907 76 916 q 57 899 58 899 l 52 899 l 52 935 l 138 1021 m 138 1062 l 52 974 l 52 982 q 57 1006 52 994 q 69 1028 62 1019 q 83 1042 73 1032 q 104 1062 94 1051 q 125 1083 115 1073 q 138 1097 134 1093 l 138 1062 z "},"F":{"ha":848,"x_min":52,"x_max":802,"o":"m 285 -47 l 209 -122 q 204 -125 209 -123 q 198 -129 199 -126 q 184 -130 195 -129 q 168 -134 174 -132 l 165 -134 l 163 -134 l 255 -39 l 285 -47 m 186 -30 q 189 -28 187 -30 q 190 -28 190 -28 q 191 -27 190 -27 q 206 -28 197 -27 q 216 -38 216 -30 l 216 -39 q 200 -55 212 -43 q 176 -79 189 -66 q 153 -102 164 -91 q 138 -117 142 -113 q 131 -122 137 -118 q 122 -129 125 -126 l 118 -129 l 117 -129 q 104 -125 114 -126 q 92 -122 95 -123 l 186 -30 m 336 -35 l 372 -35 l 285 -122 q 267 -130 278 -129 q 250 -130 256 -130 l 250 -122 l 336 -35 m 163 -12 l 69 -104 l 62 -104 q 64 -85 62 -99 q 69 -69 66 -72 l 151 12 l 163 -12 m 156 99 l 156 64 l 69 -23 l 69 12 l 156 99 m 180 163 q 179 176 180 165 q 177 197 178 186 q 175 220 176 209 q 174 233 174 231 q 168 488 168 361 q 168 743 168 614 l 168 906 q 169 954 168 925 q 171 1011 170 983 q 173 1059 172 1039 q 174 1080 174 1080 l 180 1085 q 208 1089 180 1086 q 274 1095 236 1092 q 352 1100 312 1097 q 418 1103 392 1103 q 428 1103 419 1103 q 449 1103 437 1103 q 473 1104 461 1104 q 494 1104 486 1104 q 517 1104 502 1104 q 547 1103 532 1104 q 573 1103 562 1103 q 587 1103 585 1103 q 624 1102 597 1103 q 682 1101 651 1101 q 739 1099 712 1100 q 777 1097 766 1097 q 798 1038 795 1073 q 802 972 802 1002 q 794 928 802 945 q 772 901 787 911 q 739 886 758 891 q 696 876 719 880 q 669 873 689 875 q 644 872 650 872 q 604 870 633 871 q 543 868 575 869 q 481 866 510 867 q 441 864 453 865 l 441 818 q 441 790 441 807 q 444 758 442 773 q 446 720 445 741 l 453 713 l 503 713 q 601 717 552 713 q 699 720 650 720 q 738 717 722 720 q 761 690 754 713 q 764 677 761 685 q 765 669 765 673 l 765 517 q 745 483 765 499 q 708 467 726 467 l 446 467 l 446 81 q 444 62 446 79 q 441 39 442 46 q 423 5 439 23 q 414 -3 420 3 q 407 -8 408 -8 l 290 -8 q 283 -16 286 -15 q 273 -18 279 -18 l 267 -18 q 261 -15 266 -18 q 255 -12 256 -12 q 237 -10 247 -11 q 216 -7 227 -9 q 195 -1 205 -5 q 180 12 186 3 l 180 163 m 156 174 l 156 138 l 69 52 l 64 52 l 64 81 l 156 174 m 146 243 q 149 229 148 240 q 151 216 151 218 q 146 207 151 213 q 138 198 141 201 q 118 176 130 189 q 94 152 106 164 l 64 122 l 56 122 q 57 142 56 127 q 64 163 58 157 l 146 243 m 146 320 q 151 310 152 317 q 151 300 151 302 l 151 290 l 57 198 l 57 233 l 146 320 m 146 401 l 146 366 l 57 278 l 57 315 l 146 401 m 581 441 l 614 441 l 528 354 q 510 347 521 347 q 494 354 502 347 l 581 441 m 146 476 l 146 441 l 57 354 l 57 389 l 146 476 m 690 441 l 690 435 q 684 429 690 435 q 668 412 677 422 q 649 393 659 403 q 632 377 639 384 q 609 360 620 366 q 583 354 598 354 l 570 354 l 656 441 l 690 441 m 464 401 q 467 406 464 403 q 471 411 469 410 q 486 429 475 418 q 500 441 498 439 l 507 441 q 512 441 510 441 q 517 442 514 442 q 526 441 519 442 q 534 441 532 441 l 471 377 q 467 389 469 380 q 464 401 464 399 m 52 458 q 54 465 52 460 q 57 471 56 469 l 146 557 l 146 540 q 146 524 146 532 q 138 510 145 517 l 64 435 l 57 435 q 54 444 56 435 q 52 458 52 453 m 146 632 l 146 618 q 146 605 146 612 q 138 591 145 598 l 57 510 l 52 510 l 52 540 l 146 632 m 146 708 l 146 678 l 52 587 l 52 601 q 52 614 52 608 q 57 627 52 621 l 138 708 l 146 708 m 146 789 l 146 755 l 57 669 l 52 669 l 52 696 l 146 789 m 148 864 q 147 845 148 859 q 138 825 146 831 l 64 749 l 52 743 l 52 757 q 52 771 52 765 q 57 783 52 777 l 138 864 l 148 864 m 621 842 l 534 755 l 500 755 l 587 842 l 621 842 m 464 761 l 464 765 l 464 773 q 467 789 465 779 q 471 800 469 800 q 479 812 473 804 q 492 826 486 819 q 503 838 498 833 q 510 842 509 842 l 545 842 l 464 761 m 713 854 l 632 773 l 587 761 l 674 848 q 688 852 677 850 q 705 854 699 854 l 713 854 m 146 947 l 146 932 q 146 918 146 925 q 138 906 145 911 l 57 825 l 57 860 l 146 947 m 146 1028 l 146 993 l 57 906 l 57 941 l 146 1028 z "},"G":{"ha":1271,"x_min":47,"x_max":1221,"o":"m 708 -27 l 621 -117 q 609 -122 616 -122 q 595 -122 602 -122 l 582 -122 l 674 -27 l 708 -27 m 750 -27 l 789 -27 l 703 -117 q 682 -123 696 -123 q 663 -123 669 -123 l 663 -117 l 750 -27 m 867 -27 l 777 -117 q 764 -121 774 -121 q 746 -122 753 -122 l 738 -122 l 831 -27 l 867 -27 m 600 -23 l 633 -23 l 540 -117 l 533 -117 q 522 -116 526 -117 q 513 -110 518 -115 l 600 -23 m 947 -23 l 872 -99 q 852 -108 865 -106 q 831 -110 840 -110 l 825 -110 l 906 -27 q 920 -24 911 -24 q 936 -23 929 -23 l 947 -23 m 540 -5 l 545 -5 q 570 -11 557 -5 l 476 -104 l 472 -104 q 459 -103 464 -104 q 448 -99 454 -102 l 540 -5 m 395 -71 l 396 -69 l 483 18 l 484 18 q 486 18 486 18 q 488 19 487 19 q 513 7 503 19 q 497 -9 509 3 q 473 -33 486 -20 q 450 -55 461 -45 q 435 -69 439 -65 q 425 -79 429 -76 q 414 -81 420 -81 q 401 -80 408 -81 q 395 -73 395 -79 l 395 -71 m 430 42 l 433 42 l 435 42 q 445 38 438 39 q 453 35 452 37 l 453 33 l 453 30 l 366 -57 q 362 -58 365 -58 q 355 -60 359 -60 q 346 -59 353 -60 q 336 -52 339 -58 l 430 42 m 384 76 l 385 76 q 407 64 400 76 l 315 -27 l 312 -30 q 300 -26 305 -30 q 290 -18 294 -22 l 384 76 m 163 681 q 191 785 172 734 q 233 888 210 837 q 255 935 244 916 q 285 975 266 955 q 336 1029 309 1001 q 393 1082 363 1058 q 454 1126 422 1107 q 522 1156 486 1146 q 596 1174 557 1165 q 684 1185 635 1183 q 799 1183 734 1188 q 954 1161 864 1179 q 962 1158 955 1161 q 971 1156 968 1156 q 982 1150 974 1154 q 999 1142 990 1146 q 1016 1133 1008 1138 q 1028 1127 1024 1128 q 1035 1109 1035 1120 q 1035 1092 1035 1099 l 1035 1069 q 1026 1044 1032 1062 q 1014 1005 1020 1025 q 1002 966 1008 985 q 993 941 996 948 q 987 927 991 939 q 975 911 982 916 l 955 911 l 936 911 q 921 915 933 911 q 895 921 909 918 q 869 926 882 924 q 854 929 857 929 q 846 929 853 929 q 829 930 838 929 q 809 930 819 930 q 793 930 799 930 q 691 923 735 930 q 611 896 647 916 q 546 842 575 876 q 488 755 517 808 q 451 676 467 718 q 435 590 435 635 q 437 541 435 562 q 442 500 438 519 q 453 462 446 481 q 471 418 460 442 q 522 326 495 365 q 583 260 548 286 q 662 222 617 235 q 768 209 707 209 q 827 214 802 209 q 884 233 852 220 q 903 242 890 236 q 918 250 916 248 l 959 290 q 981 339 977 311 q 986 395 986 368 q 913 392 949 395 q 841 389 876 389 l 777 389 q 761 418 764 399 l 761 461 l 761 505 q 763 534 761 517 q 767 569 765 552 q 770 597 769 586 q 773 609 772 609 l 785 616 q 803 616 785 616 q 849 619 821 617 q 913 623 878 621 q 984 626 948 624 q 1053 630 1020 628 q 1109 633 1085 632 l 1137 633 l 1161 633 q 1184 620 1175 632 q 1200 591 1194 608 q 1209 556 1206 574 q 1214 529 1213 538 q 1218 507 1215 522 q 1221 488 1221 491 l 1221 448 q 1200 295 1221 366 q 1139 151 1179 224 q 1101 98 1124 125 q 1047 50 1077 72 q 984 14 1017 28 q 918 0 951 0 q 671 -1 765 -12 q 547 24 578 9 q 533 30 544 26 q 509 40 522 34 q 484 52 496 46 q 465 60 471 57 q 425 82 446 66 q 389 111 403 98 q 370 130 385 115 q 336 162 354 145 q 302 196 319 179 q 279 221 286 213 q 271 233 277 224 q 262 244 264 241 q 252 264 259 248 q 235 298 244 279 q 216 334 225 316 q 203 361 208 351 q 170 476 176 418 q 163 595 163 534 l 163 681 m 255 24 l 349 117 l 366 99 l 273 7 q 270 5 271 5 l 267 5 q 255 19 255 5 l 255 24 m 216 64 l 309 157 q 318 150 312 156 q 327 141 324 144 q 322 132 327 138 q 315 122 317 125 q 299 107 311 118 q 275 84 288 96 q 252 62 263 72 q 237 47 241 52 l 233 47 q 216 61 216 47 l 216 64 m 267 193 l 271 193 l 273 193 q 279 186 275 191 q 285 180 283 182 l 285 178 l 285 175 l 193 81 l 175 99 l 267 193 m 141 146 l 233 237 q 241 229 239 235 q 244 217 244 224 l 244 216 l 151 122 q 143 131 148 125 q 138 144 138 137 l 141 146 m 117 198 l 210 290 l 221 267 l 129 175 l 125 174 q 117 181 118 174 q 117 193 117 189 l 117 198 m 87 250 l 180 343 q 189 332 186 340 q 193 320 193 323 q 187 311 191 317 q 180 302 183 305 q 165 288 176 298 q 142 264 155 277 q 119 242 130 252 q 104 228 109 232 l 103 225 q 92 234 96 225 q 87 248 87 243 l 87 250 m 954 331 q 943 311 949 323 q 926 288 936 300 q 906 269 917 277 q 886 262 895 262 l 884 262 l 954 331 m 825 361 l 860 361 l 854 349 q 846 340 853 349 q 828 322 838 332 q 807 302 818 312 q 789 285 796 292 q 766 270 779 274 q 738 266 753 266 l 738 273 l 825 361 m 761 366 q 785 361 773 366 l 699 273 l 663 273 l 755 366 l 761 366 m 69 308 l 157 396 l 160 396 l 163 396 q 165 388 163 395 q 168 378 168 381 l 168 374 l 168 372 l 76 279 q 70 289 71 285 q 69 300 69 293 l 69 308 m 954 372 l 867 285 q 854 279 860 279 q 841 278 848 278 q 832 279 838 278 q 825 279 826 279 l 911 366 q 926 369 913 366 q 947 372 940 372 l 949 372 l 954 372 m 732 423 q 737 414 736 418 q 738 403 738 410 l 738 396 l 644 302 l 644 336 l 732 423 m 52 372 l 144 464 l 151 435 l 60 343 q 52 354 53 350 q 52 365 52 358 l 52 372 m 732 465 l 644 378 l 644 384 l 644 389 q 648 407 646 396 q 651 418 650 418 l 732 500 l 732 465 m 134 529 q 137 517 136 526 q 141 505 138 507 l 141 502 l 141 500 l 47 407 l 47 441 l 134 529 m 743 582 q 744 576 743 581 q 745 570 745 571 q 743 554 745 559 q 732 540 741 549 q 718 525 728 536 q 694 503 707 514 q 671 480 682 491 q 656 465 661 469 l 656 495 l 743 582 m 134 609 l 134 570 l 47 483 l 47 522 l 134 609 m 141 689 l 141 686 q 137 665 138 678 q 134 651 136 651 l 52 570 l 52 582 q 52 596 52 587 q 60 609 53 605 l 141 690 l 141 689 m 168 799 l 168 795 q 164 779 168 792 q 157 761 160 766 q 155 754 156 758 q 151 750 153 750 l 81 681 l 81 682 l 81 686 q 87 701 83 689 q 94 715 91 712 q 100 728 95 719 q 104 738 104 736 q 116 751 107 742 q 135 771 125 761 q 155 790 145 781 q 168 802 164 799 l 168 799 m 800 804 q 802 807 800 806 l 888 894 l 891 894 q 892 895 892 894 q 894 895 892 895 q 918 888 905 895 l 825 795 l 823 795 l 819 795 q 808 799 815 798 q 802 802 802 800 l 800 804 m 216 911 q 209 898 213 909 q 203 884 205 887 q 201 876 203 882 q 198 872 199 873 l 134 807 q 168 864 144 836 q 216 911 193 892 m 616 819 q 610 816 614 818 q 604 812 606 814 q 591 810 602 812 q 575 807 581 808 l 572 807 l 570 807 l 644 884 q 671 895 654 891 q 699 901 688 898 l 616 819 m 825 906 l 854 906 l 854 901 l 768 812 l 738 812 l 738 819 l 825 906 m 769 913 q 777 912 772 913 q 785 911 783 911 l 777 901 l 703 825 q 688 818 696 818 q 674 818 681 818 q 665 819 671 818 q 656 819 659 819 l 743 906 q 756 912 750 911 q 769 913 762 913 z "},"H":{"ha":1103,"x_min":52,"x_max":1040,"o":"m 848 -45 l 848 -52 l 765 -134 q 753 -138 762 -137 q 738 -138 743 -138 l 726 -138 l 818 -45 l 848 -45 m 233 -39 l 138 -134 l 104 -134 l 198 -39 l 233 -39 m 894 -45 q 908 -40 899 -41 q 924 -39 917 -39 l 935 -39 q 930 -49 935 -42 q 924 -57 925 -56 q 900 -84 911 -71 q 875 -109 888 -98 q 846 -127 861 -121 q 812 -134 831 -134 l 812 -126 l 894 -45 m 315 -39 l 237 -117 q 232 -119 236 -117 q 225 -122 228 -122 q 207 -125 222 -123 q 186 -126 191 -126 l 273 -39 q 283 -38 278 -39 q 302 -35 297 -35 q 308 -34 304 -35 q 315 -33 312 -33 l 315 -39 m 674 -110 l 765 -18 l 783 -35 l 690 -126 q 686 -129 690 -129 q 674 -113 674 -129 l 674 -110 m 1004 -35 l 924 -117 q 915 -121 920 -121 q 906 -122 910 -122 l 899 -122 l 986 -35 l 1004 -35 m 401 -27 l 315 -117 l 278 -117 l 366 -27 l 401 -27 m 174 -18 l 81 -110 l 75 -110 q 75 -92 75 -104 q 81 -75 76 -80 l 163 7 l 174 -18 m 761 52 l 761 18 l 674 -69 l 674 -35 l 761 52 m 168 87 l 168 52 l 81 -35 l 81 0 l 168 87 m 789 0 q 789 20 789 5 q 787 50 788 34 q 785 79 785 65 q 783 99 784 92 l 783 146 q 782 155 783 148 q 780 169 781 161 q 778 183 779 176 q 777 193 777 190 l 777 349 q 777 363 777 353 q 775 387 776 374 q 774 409 774 399 q 773 423 773 419 q 769 433 770 426 q 765 441 768 439 q 650 453 708 453 q 534 453 593 453 q 494 453 511 453 q 453 448 477 453 q 446 442 446 446 q 446 434 446 438 l 446 423 q 459 242 453 334 q 465 60 465 151 q 465 30 465 45 q 458 0 465 15 q 436 -1 452 0 q 403 -2 420 -1 q 370 -4 385 -3 q 349 -5 354 -5 q 331 -7 345 -5 q 302 -12 317 -9 q 273 -16 286 -14 q 255 -18 259 -18 l 233 -18 l 209 -18 q 198 -5 202 -14 q 191 7 194 3 q 192 45 191 18 q 193 105 193 73 q 192 165 193 137 q 191 203 191 193 q 189 239 191 210 q 183 300 186 267 q 177 361 180 332 q 174 396 174 389 q 173 433 174 401 q 172 503 172 464 q 170 583 171 543 q 168 646 168 623 l 168 707 l 168 768 q 169 818 168 783 q 171 890 170 853 q 173 961 172 928 q 174 1005 174 994 q 175 1027 174 1013 q 177 1054 176 1040 q 179 1077 178 1067 q 180 1086 180 1086 l 186 1092 l 411 1092 q 426 1087 415 1092 q 441 1080 437 1082 q 449 1074 446 1077 l 454 1069 l 454 715 q 466 702 454 705 q 481 699 477 699 q 522 695 494 697 q 583 691 551 693 q 645 688 616 689 q 686 686 674 686 q 700 686 690 686 q 720 687 709 686 q 741 688 731 688 q 754 688 750 688 q 751 825 754 757 q 749 962 749 892 l 749 1062 q 759 1087 750 1074 q 777 1104 768 1100 q 795 1107 780 1104 q 818 1109 811 1109 l 880 1109 q 954 1109 922 1109 q 1028 1104 985 1108 q 1034 1092 1034 1097 q 1034 1080 1034 1086 l 1034 1062 q 1033 1045 1034 1059 q 1031 1014 1032 1031 q 1029 982 1029 997 q 1028 963 1028 967 q 1027 926 1028 958 q 1027 857 1027 895 q 1026 779 1027 818 q 1025 718 1025 739 q 1026 677 1025 703 q 1027 625 1027 651 q 1027 580 1027 600 q 1028 557 1028 560 l 1034 547 q 1036 459 1031 503 q 1040 372 1040 415 l 1040 361 q 1038 347 1039 358 q 1036 322 1036 335 q 1034 298 1035 309 q 1034 285 1034 288 l 1034 157 q 1027 141 1027 151 q 1028 125 1028 132 q 1031 71 1028 98 q 1034 18 1034 45 l 1034 0 q 1004 -7 1021 -5 q 975 -11 987 -8 q 948 -14 967 -12 q 909 -17 929 -15 q 871 -20 888 -19 q 848 -23 853 -22 l 831 -23 q 805 -19 821 -23 q 789 0 789 -15 m 669 42 l 761 134 q 762 125 761 132 q 762 117 762 119 q 762 111 762 114 q 761 106 761 109 l 761 99 q 754 88 761 98 q 743 76 747 79 q 729 62 739 72 q 708 41 719 52 q 688 20 697 30 q 674 7 678 11 q 670 21 671 9 q 669 35 669 33 l 669 38 l 669 42 m 168 168 l 168 151 q 168 136 168 144 q 163 123 168 129 l 87 47 l 81 47 l 81 81 l 168 168 m 755 203 l 755 168 l 669 81 l 662 81 l 662 111 l 755 203 m 163 237 l 163 203 l 75 117 l 75 151 l 163 237 m 755 285 l 755 250 l 669 163 l 669 198 l 755 285 m 156 315 l 156 279 l 69 193 l 69 228 l 156 315 m 755 361 l 755 327 l 669 237 l 662 237 l 662 267 l 755 361 m 57 290 l 151 384 l 151 349 l 64 262 q 59 274 61 269 q 57 286 57 279 l 57 290 m 731 418 l 750 418 q 749 403 750 411 q 743 389 749 395 l 674 320 q 668 318 671 320 q 662 315 665 316 l 658 315 q 651 321 652 315 q 644 331 650 328 l 731 418 m 146 458 l 146 441 q 146 422 146 427 q 134 407 145 418 q 119 392 130 403 q 95 369 107 381 q 72 346 83 357 q 57 331 61 335 l 57 372 l 146 458 m 662 423 l 696 423 l 609 336 q 591 331 604 331 q 583 332 586 331 q 575 336 581 332 l 662 423 m 614 423 l 528 336 l 494 336 l 581 423 l 614 423 m 510 430 l 545 430 l 481 366 l 476 366 l 476 396 l 510 430 m 146 534 l 146 500 l 57 414 l 57 448 l 146 534 m 146 616 l 146 582 l 57 495 l 57 529 l 146 616 m 146 690 l 146 656 l 57 570 l 52 570 l 52 600 l 146 690 m 146 755 q 146 736 146 742 q 134 720 145 731 q 113 699 126 712 q 88 675 100 686 q 67 654 76 663 q 57 646 58 646 l 52 646 l 52 651 q 54 661 53 655 q 56 673 54 666 q 57 686 57 678 l 146 773 l 146 755 m 731 708 l 708 708 l 731 732 l 731 708 m 726 802 q 732 780 732 793 q 732 778 732 779 q 731 776 731 777 l 731 773 l 674 715 l 639 715 l 726 802 m 146 849 l 146 812 l 57 726 l 57 761 l 146 849 m 720 876 q 725 867 724 871 q 726 856 726 863 l 726 849 l 632 755 l 632 789 l 720 876 m 146 894 l 57 807 l 57 823 q 57 836 57 830 q 64 849 57 842 l 146 929 l 146 894 m 720 954 l 720 918 l 632 831 l 632 867 l 720 954 m 151 1010 l 151 975 l 64 888 l 57 888 l 64 924 l 151 1010 m 720 1017 q 720 1002 720 1009 q 713 987 720 994 l 639 911 l 631 911 q 631 932 631 918 q 639 954 631 945 l 720 1035 l 720 1017 m 151 1058 q 142 1046 149 1055 q 134 1035 136 1038 q 121 1022 130 1031 q 103 1004 113 1013 q 85 986 94 994 q 75 975 77 978 q 64 971 71 971 l 151 1058 z "},"I":{"ha":522,"x_min":52,"x_max":465,"o":"m 221 -35 l 134 -123 q 119 -125 132 -123 q 99 -129 107 -126 l 95 -129 l 92 -129 l 180 -42 l 221 -35 m 260 -35 l 296 -35 l 296 -42 l 221 -117 q 199 -127 213 -123 q 174 -130 184 -130 l 174 -123 l 260 -35 m 384 -30 l 302 -111 q 288 -117 297 -117 q 273 -118 279 -118 q 267 -117 271 -118 q 260 -117 262 -117 l 349 -30 l 384 -30 m 57 -81 l 146 5 l 148 5 l 151 5 q 153 -3 151 4 q 156 -12 156 -9 l 156 -16 l 156 -18 l 64 -111 q 57 -87 57 -98 l 57 -81 m 146 80 l 146 45 l 57 -42 l 57 -7 l 146 80 m 174 23 q 172 512 176 269 q 168 1004 168 755 l 168 1103 l 174 1108 l 331 1108 q 342 1109 332 1108 q 363 1110 351 1109 q 383 1112 374 1111 q 395 1115 392 1114 l 408 1115 q 442 1094 431 1115 q 453 1054 453 1073 l 453 1050 q 452 1043 453 1048 q 449 1031 450 1038 q 447 1018 448 1024 q 446 1010 446 1012 l 446 951 l 446 894 q 448 855 446 884 q 451 786 449 826 q 455 702 453 746 q 459 618 457 658 q 463 549 461 578 q 464 510 464 519 q 465 479 464 506 q 465 415 465 452 q 465 342 465 378 q 465 283 465 305 q 465 239 465 271 q 465 170 465 206 q 465 102 465 134 q 464 57 464 69 q 443 23 457 35 q 410 5 429 11 q 371 -3 392 -1 q 331 -7 350 -5 q 311 -7 327 -7 q 275 -9 294 -8 q 237 -11 255 -9 q 209 -12 218 -12 l 197 -12 q 186 -12 191 -12 q 180 -7 182 -12 q 177 8 179 -3 q 174 23 175 19 m 146 122 l 69 45 l 57 39 l 57 54 q 57 68 57 61 q 64 80 57 75 l 146 161 l 146 122 m 151 243 l 151 229 q 151 215 151 221 q 146 203 152 209 l 64 122 l 64 156 l 151 243 m 151 324 l 151 290 l 64 203 l 64 237 l 151 324 m 151 399 l 151 365 l 64 278 l 64 312 l 151 399 m 151 481 l 151 464 q 151 448 151 456 q 146 434 152 441 l 69 359 l 64 359 l 64 395 l 151 481 m 146 551 l 151 551 l 151 522 l 64 434 l 57 434 l 57 464 l 146 551 m 146 632 l 146 597 l 57 510 l 57 545 l 146 632 m 146 708 l 146 674 l 57 585 l 57 620 l 146 708 m 146 788 l 146 770 q 146 753 146 758 q 134 736 145 747 q 119 722 130 732 q 95 699 107 711 q 72 676 83 686 q 57 662 61 666 l 57 701 l 146 788 m 138 860 l 146 860 l 146 830 l 52 736 l 52 770 l 138 860 m 138 939 l 138 905 l 52 818 l 52 852 l 138 939 m 138 1016 l 138 981 l 52 894 l 52 929 l 138 1016 m 138 1073 q 140 1070 138 1072 q 141 1067 140 1069 q 134 1050 141 1059 l 57 974 l 52 974 l 52 986 l 138 1073 z "},"J":{"ha":819,"x_min":27,"x_max":762,"o":"m 336 -35 l 342 -35 q 366 -39 354 -35 l 273 -134 l 271 -134 l 267 -134 q 256 -132 264 -134 q 244 -129 247 -129 l 336 -35 m 441 -47 l 354 -134 l 320 -134 l 407 -47 l 441 -47 m 517 -47 q 515 -53 517 -49 q 513 -60 513 -57 q 490 -83 502 -71 q 465 -107 479 -96 q 437 -126 452 -118 q 404 -134 422 -134 l 396 -134 l 483 -47 l 517 -47 m 279 -18 l 285 -18 q 296 -18 289 -18 q 304 -26 304 -19 l 302 -30 l 216 -117 l 209 -117 q 197 -116 202 -117 q 186 -111 191 -115 l 279 -18 m 141 -76 l 233 18 q 242 9 236 16 q 250 0 248 3 q 244 -12 250 -4 l 168 -87 q 164 -90 168 -88 q 157 -94 160 -92 l 155 -94 l 151 -94 q 145 -87 149 -92 q 141 -81 141 -83 l 140 -80 q 138 -79 138 -80 l 141 -76 m 621 -5 q 576 -52 602 -28 q 522 -87 551 -76 q 535 -73 526 -83 q 554 -54 544 -64 q 574 -35 564 -43 q 587 -23 583 -26 q 604 -14 590 -20 q 621 -5 617 -7 m 104 -35 l 198 57 q 210 37 210 52 l 210 35 l 117 -60 q 104 -39 104 -53 l 104 -35 m 244 39 q 227 60 239 45 q 200 93 214 76 q 174 125 186 110 q 157 146 161 140 q 149 157 155 149 q 141 168 142 165 q 137 174 138 170 q 134 180 136 179 l 134 182 l 134 186 q 147 199 138 190 q 166 218 156 208 q 185 237 176 228 q 198 250 194 245 q 207 257 201 251 q 220 270 213 263 q 235 282 228 277 q 244 290 241 288 q 269 309 251 296 q 292 324 286 321 q 303 332 294 327 q 315 336 312 336 q 320 335 316 336 q 327 331 324 334 q 332 320 328 330 q 336 308 336 311 q 391 244 359 267 q 469 221 422 221 q 494 233 486 221 q 505 260 503 245 q 507 272 506 263 q 509 290 507 281 q 511 308 510 300 q 513 320 511 316 l 513 570 l 513 818 q 510 870 511 829 q 507 958 509 911 q 503 1046 505 1005 q 500 1097 500 1086 l 500 1115 q 499 1124 500 1118 q 505 1133 498 1130 q 541 1136 515 1134 q 595 1141 567 1138 q 650 1146 624 1143 q 686 1149 675 1149 l 701 1149 q 750 1133 728 1149 q 749 1105 750 1124 q 749 1065 749 1086 q 749 1025 749 1044 q 750 998 750 1006 q 751 978 750 994 q 753 943 751 962 q 755 909 754 925 q 755 888 755 892 l 755 825 q 757 815 755 822 q 761 807 758 808 q 761 762 761 795 q 762 694 761 730 q 762 627 762 659 q 762 583 762 595 q 762 525 762 562 q 762 453 762 488 q 761 390 761 418 q 761 359 761 362 q 760 328 761 351 q 759 279 760 305 q 757 231 758 254 q 755 198 755 208 q 749 168 754 183 q 738 138 745 153 q 677 58 713 84 q 587 5 642 31 q 553 -8 570 -3 q 517 -18 536 -14 l 453 -18 q 397 -16 426 -18 q 342 -9 369 -15 q 290 9 315 -3 q 244 39 264 20 m 157 99 l 160 99 l 163 99 q 170 93 165 98 q 175 87 174 88 l 175 83 l 175 81 l 81 -12 l 79 -12 l 76 -12 q 67 -1 72 -8 q 64 5 62 5 l 157 99 m 123 138 l 125 141 q 127 140 125 141 l 129 138 q 134 134 130 138 q 141 129 138 130 l 141 125 l 141 122 l 47 30 q 46 28 47 28 q 43 27 45 27 l 42 30 q 33 39 38 33 q 30 47 27 45 l 123 138 m 483 267 q 479 254 481 262 q 471 243 477 247 l 465 250 l 483 267 m 407 267 l 488 349 q 489 341 488 346 q 490 334 490 336 q 489 321 490 327 q 483 308 488 315 q 471 296 479 304 q 454 278 463 288 q 436 260 445 269 q 423 250 427 252 q 416 254 422 250 q 407 260 410 259 l 407 264 l 407 267 m 395 334 q 396 336 395 335 l 483 423 l 488 423 l 488 395 l 401 308 q 395 330 395 316 l 395 334 m 483 500 l 483 464 l 396 377 l 396 411 l 483 500 m 488 587 q 489 578 488 585 q 490 570 490 571 q 490 554 490 562 q 483 540 490 547 l 407 464 l 401 464 l 401 500 l 488 587 m 495 669 l 495 659 q 494 642 495 652 q 488 627 492 631 l 401 540 l 401 575 l 495 669 m 488 743 q 495 734 495 742 q 495 724 495 727 l 495 713 l 401 621 l 401 656 l 488 743 m 395 723 q 396 726 395 724 l 488 818 l 488 783 l 401 696 q 395 719 395 704 l 395 723 m 483 894 l 483 854 l 396 765 l 396 807 l 483 894 m 477 963 q 484 954 483 962 q 484 944 484 947 q 484 941 484 943 q 483 939 483 940 l 483 935 l 389 842 l 389 876 l 477 963 m 477 1046 l 477 1010 l 389 924 l 389 959 l 477 1046 m 471 1097 q 475 1095 472 1097 q 477 1092 477 1093 q 475 1086 477 1090 q 471 1080 472 1081 l 384 993 l 384 1010 l 471 1097 z "}}}
